<?xml version="1.0" encoding="utf-8"?>
<!-- Generator: Adobe Illustrator 23.1.1, SVG Export Plug-In . SVG Version: 6.00 Build 0)  -->
<svg version="1.1" id="Layer_1" xmlns="http://www.w3.org/2000/svg" xmlns:xlink="http://www.w3.org/1999/xlink" x="0px" y="0px"
	 viewBox="0 0 1300 82" style="enable-background:new 0 0 1300 82;" xml:space="preserve">
<style type="text/css">
	.st0{fill:#240F6E;}
	.st1{fill:#FFC82E;}
	.st2{fill:#C18A24;}
</style>
<g id="Mask_Group_27" transform="translate(-270 -1828)">
	<g id="Group_221" transform="translate(-186.766 1973.588)">
		<path id="Path_509" class="st0" d="M456.8-82.3h1026.4v18H456.8L456.8-82.3z"/>
		<g id="Group_219" transform="translate(1525.057 469.69)">
			<path id="Path_501" class="st1" d="M73.4-533.5l52.3-81.7h48.1l-52.4,81.7H73.4z"/>
			<path id="Path_502" class="st0" d="M231.7-533.5l-57.9-81.8h-48.1l57.9,81.8H231.7z"/>
			<path id="Path_503" class="st1" d="M-8.2-533.5l38.4-56.1h48.1L39-533.5H-8.2z"/>
			<path id="Path_504" class="st2" d="M121.7-533.3l-22.9-39.6l-16.4,24.2L121.7-533.3z"/>
			<path id="Path_505" class="st0" d="M121.3-533.5l-42.9-56.1H30.3l42.9,56.1H121.3z"/>
			<path id="Path_506" class="st1" d="M-71.8-533.7l29.5-40.7H5.8l-29.2,40.7H-71.8z"/>
			<path id="Path_507" class="st2" d="M39.5-533.4l-21.9-38.2L4.1-550.8L39.5-533.4z"/>
			<path id="Path_508" class="st0" d="M39.4-533.5L5.8-574.4h-48.1l33.6,40.9H39.4z"/>
		</g>
	</g>
</g>
</svg>
