<?xml version="1.0" encoding="utf-8"?>
<!-- Generator: Adobe Illustrator 23.1.1, SVG Export Plug-In . SVG Version: 6.00 Build 0)  -->
<svg version="1.1" id="Layer_1" xmlns="http://www.w3.org/2000/svg" xmlns:xlink="http://www.w3.org/1999/xlink" x="0px" y="0px"
	 viewBox="0 0 100 100" style="enable-background:new 0 0 100 100;" xml:space="preserve">
<style type="text/css">
	.st0{fill:#FFC82E;}
</style>
<g>
	<path class="st0" d="M21.9,38.3c4.6,0,8.4-3.8,8.4-8.4s-3.8-8.4-8.4-8.4s-8.4,3.8-8.4,8.4S17.3,38.3,21.9,38.3z M21.9,24.6
		c2.9,0,5.3,2.4,5.3,5.3s-2.4,5.3-5.3,5.3s-5.3-2.4-5.3-5.3S19,24.6,21.9,24.6z"/>
	<path class="st0" d="M16.5,63c-0.9,0-1.6,0.7-1.6,1.6v26.9c0,0.9,0.7,1.6,1.6,1.6c0.9,0,1.6-0.7,1.6-1.6V64.6
		C18,63.7,17.3,63,16.5,63z"/>
	<path class="st0" d="M27.4,53.7c-0.9,0-1.6,0.7-1.6,1.6v36.2c0,0.9,0.7,1.6,1.6,1.6s1.6-0.7,1.6-1.6V55.2
		C29,54.4,28.3,53.7,27.4,53.7z"/>
	<path class="st0" d="M61,71.6h-8.4c-3.4,0-6.2,2.8-6.2,6.2v13.7c0,0.9,0.7,1.6,1.6,1.6c0.9,0,1.6-0.7,1.6-1.6V77.8c0-1.7,1.4-3,3-3
		H61c1.7,0,3,1.4,3,3v13.7c0,0.9,0.7,1.6,1.6,1.6s1.6-0.7,1.6-1.6V77.8C67.2,74.4,64.4,71.6,61,71.6z"/>
	<path class="st0" d="M85.1,64.4h-8.4c-3.4,0-6.2,2.8-6.2,6.2v20.9c0,0.9,0.7,1.6,1.6,1.6s1.6-0.7,1.6-1.6v-21c0-1.7,1.4-3,3-3h8.4
		c1.7,0,3,1.4,3,3v20.9c0,0.9,0.7,1.6,1.6,1.6s1.6-0.7,1.6-1.6V70.5C91.3,67.2,88.5,64.4,85.1,64.4z"/>
	<path class="st0" d="M56.8,68.5c3.5,0,6.4-2.9,6.4-6.4s-2.9-6.4-6.4-6.4s-6.4,2.9-6.4,6.4C50.5,65.7,53.3,68.5,56.8,68.5z
		 M56.8,58.9c1.8,0,3.3,1.5,3.3,3.3s-1.5,3.3-3.3,3.3s-3.3-1.5-3.3-3.3C53.6,60.4,55,58.9,56.8,58.9z"/>
	<path class="st0" d="M80.9,61.3c3.5,0,6.4-2.9,6.4-6.4s-2.9-6.4-6.4-6.4s-6.4,2.9-6.4,6.4C74.6,58.5,77.4,61.3,80.9,61.3z
		 M80.9,51.7c1.8,0,3.3,1.5,3.3,3.3s-1.5,3.3-3.3,3.3s-3.3-1.5-3.3-3.3C77.7,53.2,79.1,51.7,80.9,51.7z"/>
	<path class="st0" d="M56.8,51.7c3.5,0,6.4-2.9,6.4-6.4s-2.9-6.4-6.4-6.4s-6.4,2.9-6.4,6.4C50.5,48.9,53.3,51.7,56.8,51.7z
		 M56.8,42.1c1.8,0,3.3,1.5,3.3,3.3s-1.5,3.3-3.3,3.3s-3.3-1.5-3.3-3.3C53.6,43.6,55,42.1,56.8,42.1z"/>
	<path class="st0" d="M80.9,44.5c3.5,0,6.4-2.9,6.4-6.4s-2.9-6.4-6.4-6.4s-6.4,2.9-6.4,6.4C74.6,41.7,77.4,44.5,80.9,44.5z
		 M80.9,34.9c1.8,0,3.3,1.5,3.3,3.3s-1.5,3.3-3.3,3.3s-3.3-1.5-3.3-3.3S79.1,34.9,80.9,34.9z"/>
	<path class="st0" d="M69.9,15.2c-0.3-0.5-0.8-0.8-1.4-0.8h-8V12c0-0.9-0.7-1.6-1.6-1.6H45.4V8.6c0-0.9-0.7-1.6-1.6-1.6
		s-1.6,0.7-1.6,1.6V12v11.5v30.6H35v-4.9c0-4.5-3.6-8.1-8.1-8.1H16.8c-4.5,0-8.1,3.6-8.1,8.1v18.6c0,0.9,0.7,1.6,1.6,1.6
		s1.6-0.7,1.6-1.6V49.2c0-2.8,2.2-5,5-5H27c2.8,0,5,2.2,5,5v6.5c0,0.9,0.7,1.6,1.6,1.6h8.7v3.9c0,0.9,0.7,1.6,1.6,1.6
		s1.6-0.7,1.6-1.6V25.1h5.4v2.4c0,0.9,0.7,1.6,1.6,1.6h16.1c0.6,0,1.1-0.3,1.4-0.8s0.2-1.1-0.1-1.6l-3.5-4.9l3.5-4.9
		C70.1,16.4,70.1,15.7,69.9,15.2z M45.4,13.5h12V22h-12V13.5z M63.1,22.6l2.4,3.3H53.9V25h5c0.9,0,1.6-0.7,1.6-1.6v-6h4.9L63,20.7
		C62.7,21.3,62.7,22.1,63.1,22.6z"/>
</g>
</svg>
