<?xml version="1.0" encoding="utf-8"?>
<!-- Generator: Adobe Illustrator 23.1.1, SVG Export Plug-In . SVG Version: 6.00 Build 0)  -->
<svg version="1.1" id="Layer_1" xmlns="http://www.w3.org/2000/svg" xmlns:xlink="http://www.w3.org/1999/xlink" x="0px" y="0px"
	 viewBox="0 0 100 100" style="enable-background:new 0 0 100 100;" xml:space="preserve">
<style type="text/css">
	.st0{fill:#FFC82E;}
</style>
<g>
	<path class="st0" d="M20.9,38.9V43c0,1-0.3,1.6-1.4,2.4c-0.7,0.5-0.8,1.5-0.3,2.2c0.3,0.4,0.8,0.6,1.2,0.6c0.3,0,0.7-0.1,1-0.3
		c1.3-1,2.6-2.4,2.6-4.9v-4.1h30.6c0.9,0,1.6-0.7,1.6-1.6s-0.7-1.6-1.6-1.6H22.8c-0.1,0-0.2,0-0.4,0h-1.1c-0.9,0-1.6-0.7-1.6-1.6V33
		c0-0.9,0.7-1.6,1.6-1.6h3.9c0.9,0,1.6-0.7,1.6-1.6s-0.7-1.6-1.6-1.6h-3.9c-2.7,0-4.8,2.2-4.8,4.8v1.1
		C16.5,36.6,18.4,38.6,20.9,38.9z"/>
	<path class="st0" d="M81.4,46.1c-1.6-1.1-2.3-1.7-2.3-3.1v-4.2c2.4-0.2,4.4-2.3,4.4-4.8v-1c0-2.7-2.2-4.8-4.8-4.8H58.3
		c-0.8-4.8-4.9-8.5-10-8.5c-0.9,0-1.6,0.7-1.6,1.6s0.7,1.6,1.6,1.6c3.3,0,6,2.3,6.7,5.4H41.6c0.4-1.6,1.3-3.1,2.7-4
		c0.7-0.5,0.9-1.5,0.4-2.2s-1.5-0.9-2.2-0.4c-2.2,1.6-3.6,4-4,6.6h-8.2c-0.9,0-1.6,0.7-1.6,1.6s0.7,1.6,1.6,1.6h48.4
		c0.9,0,1.6,0.7,1.6,1.6v1.1c0,0.9-0.7,1.6-1.6,1.6h-1.1c-0.9,0-1.6,0.7-1.6,1.6V43c0,3,1.9,4.4,3.6,5.6c2.1,1.5,4.2,3.1,4.2,8.3v27
		c0,4.3-3.5,7.9-7.9,7.9H24.1c-4.3,0-7.9-3.5-7.9-7.9V57c0-2.6,0.5-4.5,1.5-5.9c0.5-0.7,0.4-1.7-0.3-2.2c-0.7-0.5-1.7-0.4-2.2,0.3
		c-1.5,2-2.2,4.5-2.2,7.8v27c0,6.1,5,11,11,11h51.7c6.1,0,11-5,11-11V57C86.9,50.1,83.7,47.8,81.4,46.1z"/>
	<path class="st0" d="M62.9,35.7h-0.5c-0.9,0-1.6,0.7-1.6,1.6s0.7,1.6,1.6,1.6h0.5c0.9,0,1.6-0.7,1.6-1.6S63.7,35.7,62.9,35.7z"/>
	<path class="st0" d="M71.1,38.9c0.9,0,1.6-0.7,1.6-1.6s-0.7-1.6-1.6-1.6h-3.3c-0.9,0-1.6,0.7-1.6,1.6s0.7,1.6,1.6,1.6H71.1z"/>
	<path class="st0" d="M65.1,26.4c5.6,0,10.1-4.5,10.1-10.1s-4.6-10-10.1-10S55,10.8,55,16.3S59.5,26.4,65.1,26.4z M65.1,9.4
		c3.8,0,6.9,3.1,6.9,6.9s-3.1,6.9-6.9,6.9s-6.9-3.1-6.9-6.9S61.3,9.4,65.1,9.4z"/>
	<path class="st0" d="M30.8,19.4c4,0,7.2-3.2,7.2-7.2S34.8,5,30.8,5s-7.2,3.2-7.2,7.2S26.9,19.4,30.8,19.4z M30.8,8.2
		c2.2,0,4,1.8,4,4s-1.8,4-4,4s-4-1.8-4-4S28.6,8.2,30.8,8.2z"/>
	<path class="st0" d="M58.9,52.1l-25.1-7.5c-0.8-0.3-1.7,0.2-2,1.1c-0.3,0.8,0.2,1.7,1.1,2l23.6,7.1l-3.7,12.5l-26.7-8l4.2-14
		c0.3-0.8-0.2-1.7-1.1-2c-0.8-0.3-1.7,0.2-2,1.1l-4.7,15.5c-0.3,0.8,0.2,1.7,1.1,2l29.8,8.9c0.1,0,0.3,0.1,0.5,0.1
		c0.3,0,0.5-0.1,0.8-0.2c0.4-0.2,0.6-0.5,0.8-0.9l4.7-15.5C60.2,53.2,59.7,52.4,58.9,52.1z"/>
	<path class="st0" d="M40.2,59.2c-0.6-0.2-1.1-0.5-1.5-0.9c-0.1-0.1-0.3-0.2-0.4-0.2c-0.2,0-0.3,0.1-0.4,0.2L37.3,59
		c-0.2,0.2-0.2,0.5,0,0.7c0.4,0.4,1,0.8,1.6,1.1l-0.2,0.7c0,0.1,0,0.3,0,0.4c0.1,0.1,0.2,0.2,0.3,0.3l0.8,0.2c0.1,0,0.1,0,0.2,0
		c0.2,0,0.4-0.1,0.5-0.4l0.2-0.8c1.6,0,2.5-0.8,2.8-1.8c0.5-1.6-0.6-2.6-1.6-3.4c-1.1-0.8-1.1-1.1-1-1.3c0-0.1,0.1-0.2,0.2-0.3
		c0.2-0.1,0.5-0.1,0.8,0c0.8,0.2,1.2,0.6,1.3,0.8c0.1,0.1,0.2,0.2,0.4,0.1c0.1,0,0.3-0.1,0.4-0.2l0.6-0.7c0.2-0.2,0.2-0.5,0-0.7
		c-0.4-0.4-0.8-0.7-1.3-0.9l0.2-0.7c0.1-0.3-0.1-0.6-0.4-0.7l-0.8-0.2c-0.1,0-0.3,0-0.4,0c-0.1,0.1-0.2,0.2-0.3,0.3l-0.2,0.8
		c-1.3,0-2.4,0.6-2.7,1.7c-0.4,1.5,0.6,2.5,1.7,3.3c0.9,0.7,1,1,0.9,1.3C41.4,59.3,40.8,59.4,40.2,59.2z"/>
	<path class="st0" d="M60.9,85.9H22c-0.9,0-1.6,0.7-1.6,1.6s0.7,1.6,1.6,1.6h38.9c0.9,0,1.6-0.7,1.6-1.6S61.7,85.9,60.9,85.9z"/>
	<path class="st0" d="M20.4,82.8c0,0.9,0.7,1.6,1.6,1.6h38.9c0.9,0,1.6-0.7,1.6-1.6s-0.7-1.6-1.6-1.6H22
		C21.1,81.3,20.4,82,20.4,82.8z"/>
	<path class="st0" d="M75.4,85.2H66c-0.9,0-1.6,0.7-1.6,1.6s0.7,1.6,1.6,1.6h9.4c0.9,0,1.6-0.7,1.6-1.6C77,85.9,76.3,85.2,75.4,85.2
		z"/>
	<path class="st0" d="M75.4,80.9H66c-0.9,0-1.6,0.7-1.6,1.6s0.7,1.6,1.6,1.6h9.4c0.9,0,1.6-0.7,1.6-1.6C77,81.7,76.3,80.9,75.4,80.9
		z"/>
	<path class="st0" d="M75.4,76.7H66c-0.9,0-1.6,0.7-1.6,1.6s0.7,1.6,1.6,1.6h9.4c0.9,0,1.6-0.7,1.6-1.6S76.3,76.7,75.4,76.7z"/>
	<path class="st0" d="M75.4,72.5H66c-0.9,0-1.6,0.7-1.6,1.6s0.7,1.6,1.6,1.6h9.4c0.9,0,1.6-0.7,1.6-1.6S76.3,72.5,75.4,72.5z"/>
	<path class="st0" d="M43.6,78.4c0,0.9,0.7,1.6,1.6,1.6h9.4c0.9,0,1.6-0.7,1.6-1.6s-0.7-1.6-1.6-1.6h-9.4
		C44.3,76.8,43.6,77.5,43.6,78.4z"/>
	<path class="st0" d="M44.8,71.8l-8.3,4.4c-0.8,0.4-1.1,1.4-0.7,2.1c0.3,0.5,0.8,0.8,1.4,0.8c0.2,0,0.5-0.1,0.7-0.2l8.3-4.4
		c0.8-0.4,1.1-1.4,0.7-2.1C46.6,71.7,45.6,71.4,44.8,71.8z"/>
	<path class="st0" d="M61.9,46.8c-0.6,1.7-0.8,3.4-0.4,5c0.4,1.7,1.4,3,2.9,3.6c0.5,0.2,1,0.3,1.5,0.3c1,0,2.1-0.4,3.1-1.1
		c1.3-0.9,2.3-2.3,3-4c1.4-3.7,0.3-7.5-2.4-8.5c-1.4-0.5-3.1-0.2-4.5,0.8C63.6,43.7,62.5,45.1,61.9,46.8z M66.7,45.3
		c0.2-0.2,0.7-0.5,1.2-0.5c0.1,0,0.2,0,0.3,0.1c0.9,0.4,1.4,2.3,0.6,4.5c-0.4,1.1-1.1,2-1.8,2.6c-0.3,0.2-1,0.6-1.5,0.4
		c-0.6-0.2-0.8-1-0.9-1.3c-0.2-0.9-0.1-2.1,0.3-3.1C65.3,46.8,65.9,45.9,66.7,45.3z"/>
</g>
</svg>
