<?xml version="1.0" encoding="utf-8"?>
<!-- Generator: Adobe Illustrator 23.1.1, SVG Export Plug-In . SVG Version: 6.00 Build 0)  -->
<svg version="1.1" id="Layer_1" xmlns="http://www.w3.org/2000/svg" xmlns:xlink="http://www.w3.org/1999/xlink" x="0px" y="0px"
	 viewBox="0 0 100 100" style="enable-background:new 0 0 100 100;" xml:space="preserve">
<style type="text/css">
	.st0{fill:#C18A24;}
</style>
<g>
	<path class="st0" d="M31.8,82.5c-0.8,0-1.5,0.7-1.5,1.5s0.7,1.5,1.5,1.5h53.9c0.8,0,1.5-0.7,1.5-1.5s-0.7-1.5-1.5-1.5H31.8z"/>
	<path class="st0" d="M19.5,82.5c-0.8,0-1.5,0.7-1.5,1.5s0.7,1.5,1.5,1.5h4.7c0.8,0,1.5-0.7,1.5-1.5s-0.7-1.5-1.5-1.5H19.5z"/>
	<path class="st0" d="M89.6,73.5V16.3c0-5.1-4.2-9.3-9.3-9.3H19.7c-5.1,0-9.3,4.2-9.3,9.3v66.9c0,0.1,0,0.1,0,0.2s0,0.1,0,0.2
		c0,5.1,4.2,9.3,9.3,9.3H88c0.8,0,1.5-0.7,1.5-1.5S88.9,90,88.1,90H19.7c-3.5,0-6.3-2.8-6.3-6.3c0-0.1,0-0.1,0-0.2s0-0.1,0-0.2
		c0-3.6,3.2-5.3,6.3-5.3h65.4C87.6,78,89.6,76,89.6,73.5z M68.9,10h8.6v17.5l-3.3-2.8c-0.6-0.5-1.4-0.5-2,0l-3.3,2.8
		C68.9,27.5,68.9,10,68.9,10z M86.5,73.5c0,0.8-0.6,1.4-1.4,1.4H19.7c-2.5,0-4.7,0.7-6.3,2V16.3c0-3.5,2.8-6.3,6.3-6.3h46.2v20.8
		c0,0.6,0.3,1.1,0.9,1.4c0.5,0.2,1.2,0.2,1.6-0.2l4.8-4.1L78,32c0.3,0.2,0.6,0.4,1,0.4c0.2,0,0.4,0,0.6-0.1c0.5-0.2,0.9-0.8,0.9-1.4
		V10.1c3.3,0.2,6,2.9,6,6.3C86.5,16.4,86.5,73.5,86.5,73.5z"/>
	<path class="st0" d="M41.7,32.7L41.7,32.7l-6.3-14.8c-0.3-0.7-0.9-1.1-1.6-1.1c-0.7,0-1.3,0.4-1.6,1.1l-6.3,14.8l0,0l-3.7,8.7
		c-0.3,0.8,0,1.7,0.8,2s1.7,0,2-0.8l3.3-7.8h11l3.3,7.8c0.2,0.6,0.8,0.9,1.4,0.9c0.2,0,0.4,0,0.6-0.1c0.8-0.3,1.1-1.2,0.8-2
		L41.7,32.7z M29.6,31.8l4.2-9.9l4.2,9.9H29.6z"/>
	<path class="st0" d="M70,42c-0.3-0.4-0.7-0.6-1.2-0.6h-9.2c-0.5,0-0.9,0.2-1.2,0.6L47.5,56c-0.5,0.7-0.4,1.6,0.3,2.1
		s1.6,0.4,2.1-0.3l2.2-2.9V68c0,0.8,0.7,1.5,1.5,1.5h9.2h6.3h5.5c0.8,0,1.5-0.7,1.5-1.5V55l2.2,2.9c0.3,0.4,0.7,0.6,1.2,0.6
		c0.3,0,0.6-0.1,0.9-0.3c0.7-0.5,0.8-1.5,0.3-2.1L70,42z M64.4,66.6v-9h3.2v9H64.4z M73.1,66.6h-2.5V56c0-0.8-0.7-1.5-1.5-1.5h-6.3
		c-0.8,0-1.5,0.7-1.5,1.5v10.5h-6.2V51l5.1-6.6H68l5.1,6.6V66.6z"/>
</g>
</svg>
