<?xml version="1.0" encoding="utf-8"?>
<!-- Generator: Adobe Illustrator 23.1.1, SVG Export Plug-In . SVG Version: 6.00 Build 0)  -->
<svg version="1.1" id="Layer_1" xmlns="http://www.w3.org/2000/svg" xmlns:xlink="http://www.w3.org/1999/xlink" x="0px" y="0px"
	 viewBox="0 0 100 100" style="enable-background:new 0 0 100 100;" xml:space="preserve">
<style type="text/css">
	.st0{fill:#FFC82E;}
</style>
<g>
	<path class="st0" d="M49.9,38.9c-6.5,0-11.8,5.3-11.8,11.8s5.3,11.8,11.8,11.8s11.8-5.3,11.8-11.8S56.4,38.9,49.9,38.9z M49.9,59.5
		c-4.8,0-8.7-3.9-8.7-8.7s3.9-8.7,8.7-8.7s8.7,3.9,8.7,8.7C58.6,55.5,54.7,59.5,49.9,59.5z"/>
	<path class="st0" d="M44.6,27c0.8,0.3,1.7,0,2-0.8l1.3-3h3.8l1.3,3c0.3,0.6,0.8,0.9,1.4,0.9c0.2,0,0.4,0,0.6-0.1
		c0.8-0.3,1.2-1.2,0.8-2l-1.7-3.9l0,0l-2.8-6.7c-0.3-0.6-0.9-1-1.5-1l0,0c-0.7,0-1.2,0.4-1.5,1L45.5,21l0,0l-1.7,4
		C43.4,25.8,43.8,26.7,44.6,27z M49.8,18.8l0.6,1.3h-1.1L49.8,18.8z"/>
	<path class="st0" d="M73.7,39.1c0.3,0.3,0.7,0.5,1.1,0.5h0.1c0.4,0,0.8-0.2,1.1-0.6l7.6-9.2c0.5-0.7,0.4-1.6-0.2-2.2
		c-0.7-0.5-1.6-0.4-2.2,0.2l-6.5,7.9l-1.8-1.8c-0.6-0.6-1.6-0.6-2.2,0s-0.6,1.6,0,2.2L73.7,39.1z"/>
	<path class="st0" d="M17.9,40.7h9.5c0.9,0,1.6-0.7,1.6-1.6v-5.8c0-0.7-0.4-1.3-1-1.5l-4.2-1.4v-0.5H27v-3.6h-5.4v3.6h0.1v0.5
		l-4.2,1.5c-0.6,0.2-1,0.8-1,1.5v5.8C16.3,40,17,40.7,17.9,40.7z M19.4,34.5l3.2-1.1l3.2,1.1v3.1h-1.6v-0.8c0-0.9-0.7-1.6-1.6-1.6
		S21,35.9,21,36.8v0.8h-1.6V34.5z"/>
	<path class="st0" d="M46.4,32.6l2,3.6c0.3,0.5,0.8,0.8,1.4,0.8s1.1-0.3,1.4-0.8l2-3.6c5.5-1.5,9.5-6.6,9.5-12.4
		c0-7.1-5.7-12.8-12.8-12.8S37,13.2,37,20.3C37,26,40.9,31.1,46.4,32.6z M49.8,10.6c5.3,0,9.7,4.3,9.7,9.7c0,4.6-3.2,8.6-7.7,9.5
		c-0.4,0.1-0.8,0.4-1,0.8l-0.9,1.7L49,30.6c-0.2-0.4-0.6-0.7-1-0.8c-4.5-0.9-7.7-4.9-7.7-9.5C40.1,14.9,44.4,10.6,49.8,10.6z"/>
	<path class="st0" d="M22.7,46.5c2.2,0,4.5-0.6,6.5-1.8l4,1.1c0.5,0.2,1.1,0,1.5-0.4s0.5-1,0.4-1.5L33.8,40c2.8-5,1.9-11.4-2.2-15.4
		c-5-4.9-13.2-4.9-18.1,0.2c-4.9,5-4.9,13.2,0.2,18.1C16.2,45.3,19.4,46.5,22.7,46.5z M15.7,27c1.9-1.9,4.4-2.9,6.9-2.9
		c2.4,0,4.9,0.9,6.8,2.8c3.3,3.2,3.8,8.3,1.4,12.1c-0.2,0.4-0.3,0.9-0.2,1.3l0.6,1.9l-1.9-0.5c-0.4-0.1-0.9-0.1-1.3,0.2
		c-3.8,2.5-8.9,2.1-12.2-1.1C12.1,36.9,12,30.8,15.7,27z"/>
	<path class="st0" d="M64.3,44c-0.2,0.5,0,1.1,0.4,1.5s1,0.6,1.5,0.4l4-1.1c2,1.2,4.2,1.8,6.5,1.8c3.3,0,6.5-1.2,9-3.6
		c2.4-2.4,3.8-5.6,3.8-9s-1.3-6.6-3.7-9.1c-4.9-5-13.1-5.1-18.1-0.2c-4.1,4-5,10.4-2.2,15.4L64.3,44z M69.9,26.8
		c3.8-3.7,10-3.7,13.7,0.1c1.8,1.8,2.8,4.3,2.8,6.9s-1.1,5-2.9,6.8c-3.3,3.2-8.4,3.7-12.2,1.1c-0.3-0.2-0.6-0.3-0.9-0.3
		c-0.1,0-0.3,0-0.4,0.1L68.1,42l0.6-1.9c0.1-0.4,0.1-0.9-0.2-1.3C66.1,35.1,66.7,30,69.9,26.8z"/>
	<path class="st0" d="M91.4,77.2H71.8v-1.3c0-6.3-5.1-11.4-11.4-11.4h-21c-6.3,0-11.4,5.1-11.4,11.4v1.3H8.6c-0.9,0-1.6,0.7-1.6,1.6
		V91c0,0.9,0.7,1.6,1.6,1.6h82.9c0.9,0,1.6-0.7,1.6-1.6V78.8C93,77.9,92.3,77.2,91.4,77.2z M31.1,75.9c0-4.6,3.7-8.3,8.3-8.3h21
		c4.6,0,8.3,3.7,8.3,8.3v1.3H31.1V75.9z M89.9,89.4H10.1v-9.1h79.8V89.4z"/>
	<path class="st0" d="M14.6,86.9c0.7,0,1.3-0.6,1.3-1.3v-3c0-0.7-0.6-1.3-1.3-1.3s-1.3,0.6-1.3,1.3v3C13.3,86.3,13.9,86.9,14.6,86.9
		z"/>
	<path class="st0" d="M19,83.9c0.3,0,0.7-0.1,0.9-0.4s0.4-0.6,0.4-0.9s-0.1-0.7-0.4-0.9c-0.5-0.5-1.3-0.5-1.8,0
		c-0.2,0.2-0.4,0.6-0.4,0.9s0.1,0.7,0.4,0.9C18.3,83.8,18.7,83.9,19,83.9z"/>
	<path class="st0" d="M23.4,83.9c0.1,0,0.2,0,0.2,0c0.1,0,0.2,0,0.2-0.1c0.1,0,0.2-0.1,0.2-0.1c0.1-0.1,0.1-0.1,0.2-0.2
		c0.2-0.2,0.4-0.6,0.4-0.9s-0.1-0.7-0.4-0.9c-0.1-0.1-0.1-0.1-0.2-0.2s-0.1-0.1-0.2-0.1s-0.2-0.1-0.2-0.1c-0.4-0.1-0.9,0.1-1.2,0.4
		c-0.2,0.2-0.4,0.6-0.4,0.9s0.1,0.7,0.4,0.9C22.7,83.8,23.1,83.9,23.4,83.9z"/>
	<path class="st0" d="M27.8,83.9c0.3,0,0.7-0.1,0.9-0.4c0.2-0.2,0.4-0.6,0.4-0.9s-0.1-0.7-0.4-0.9c-0.5-0.5-1.3-0.5-1.8,0
		c-0.1,0.1-0.1,0.1-0.2,0.2s-0.1,0.1-0.1,0.2s-0.1,0.2-0.1,0.2c0,0.1,0,0.2,0,0.3c0,0.3,0.1,0.7,0.4,0.9
		C27.1,83.8,27.5,83.9,27.8,83.9z"/>
	<path class="st0" d="M32.2,86.9c0.7,0,1.3-0.6,1.3-1.3v-3c0-0.7-0.6-1.3-1.3-1.3s-1.3,0.6-1.3,1.3v3C30.9,86.3,31.5,86.9,32.2,86.9
		z"/>
	<path class="st0" d="M36.6,83.9c0.3,0,0.7-0.1,0.9-0.4c0.2-0.2,0.4-0.6,0.4-0.9s-0.1-0.7-0.4-0.9c-0.5-0.5-1.3-0.5-1.8,0
		c-0.2,0.2-0.4,0.6-0.4,0.9s0.1,0.7,0.4,0.9C35.9,83.8,36.2,83.9,36.6,83.9z"/>
	<path class="st0" d="M41,83.9c0.1,0,0.2,0,0.2,0c0.1,0,0.2,0,0.2-0.1c0.1,0,0.2-0.1,0.2-0.1c0.1-0.1,0.1-0.1,0.2-0.2
		c0.2-0.2,0.4-0.6,0.4-0.9s-0.1-0.7-0.4-0.9c-0.1-0.1-0.1-0.1-0.2-0.2c-0.1-0.1-0.2-0.1-0.2-0.1c-0.1,0-0.2-0.1-0.2-0.1
		c-0.4-0.1-0.9,0.1-1.2,0.4c-0.2,0.2-0.4,0.6-0.4,0.9s0.1,0.7,0.4,0.9C40.3,83.8,40.6,83.9,41,83.9z"/>
	<path class="st0" d="M45.4,83.9c0.3,0,0.7-0.1,0.9-0.4c0.2-0.2,0.4-0.6,0.4-0.9s-0.1-0.7-0.4-0.9c-0.5-0.5-1.4-0.5-1.8,0
		c-0.2,0.2-0.4,0.6-0.4,0.9s0.1,0.7,0.4,0.9S45,83.9,45.4,83.9z"/>
	<path class="st0" d="M49.8,86.9c0.7,0,1.3-0.6,1.3-1.3v-3c0-0.7-0.6-1.3-1.3-1.3s-1.3,0.6-1.3,1.3v3C48.5,86.3,49.1,86.9,49.8,86.9
		z"/>
	<path class="st0" d="M54.2,83.9c0.3,0,0.7-0.1,0.9-0.4s0.4-0.6,0.4-0.9s-0.1-0.7-0.4-0.9c-0.5-0.5-1.3-0.5-1.8,0
		c-0.2,0.2-0.4,0.6-0.4,0.9s0.1,0.7,0.4,0.9C53.5,83.8,53.8,83.9,54.2,83.9z"/>
	<path class="st0" d="M58.6,83.9c0.3,0,0.7-0.1,0.9-0.4s0.4-0.6,0.4-0.9s-0.1-0.7-0.4-0.9c-0.5-0.5-1.3-0.5-1.8,0
		c-0.2,0.2-0.4,0.6-0.4,0.9s0.1,0.7,0.4,0.9C57.9,83.8,58.2,83.9,58.6,83.9z"/>
	<path class="st0" d="M62.2,83.7c0.1,0,0.1,0.1,0.2,0.1c0.1,0,0.2,0.1,0.2,0.1c0.1,0,0.2,0,0.3,0s0.2,0,0.2,0c0.1,0,0.2,0,0.2-0.1
		c0.1,0,0.2-0.1,0.2-0.1c0.1-0.1,0.1-0.1,0.2-0.2c0.2-0.2,0.4-0.6,0.4-0.9s-0.1-0.7-0.4-0.9c-0.1-0.1-0.1-0.1-0.2-0.2
		c-0.1-0.1-0.1-0.1-0.2-0.1c-0.1,0-0.2-0.1-0.2-0.1c-0.4-0.1-0.9,0.1-1.2,0.4c-0.2,0.2-0.4,0.6-0.4,0.9s0.1,0.7,0.4,0.9
		C62.1,83.6,62.2,83.6,62.2,83.7z"/>
	<path class="st0" d="M67.4,86.9c0.7,0,1.3-0.6,1.3-1.3v-3c0-0.7-0.6-1.3-1.3-1.3s-1.3,0.6-1.3,1.3v3C66.1,86.3,66.6,86.9,67.4,86.9
		z"/>
	<path class="st0" d="M71,83.7c0.1,0,0.2,0.1,0.2,0.1c0.1,0,0.2,0.1,0.2,0.1c0.1,0,0.2,0,0.3,0c0.3,0,0.7-0.1,0.9-0.4
		c0.2-0.2,0.4-0.6,0.4-0.9c0-0.1,0-0.2,0-0.3c0-0.1,0-0.2-0.1-0.2c0-0.1-0.1-0.2-0.1-0.2c-0.1-0.1-0.1-0.1-0.2-0.2
		c-0.5-0.5-1.3-0.5-1.8,0c-0.1,0.1-0.1,0.1-0.2,0.2s-0.1,0.1-0.1,0.2s-0.1,0.2-0.1,0.2c0,0.1,0,0.2,0,0.3c0,0.3,0.1,0.7,0.4,0.9
		C70.9,83.6,71,83.6,71,83.7z"/>
	<path class="st0" d="M76.1,83.9c0.3,0,0.7-0.1,0.9-0.4c0.2-0.2,0.4-0.6,0.4-0.9s-0.1-0.7-0.4-0.9c-0.5-0.5-1.3-0.5-1.8,0
		c-0.1,0.1-0.1,0.1-0.2,0.2c0,0.1-0.1,0.1-0.1,0.2s-0.1,0.2-0.1,0.2c0,0.1,0,0.2,0,0.3c0,0.3,0.1,0.7,0.4,0.9
		C75.5,83.8,75.8,83.9,76.1,83.9z"/>
	<path class="st0" d="M80.5,83.9c0.1,0,0.2,0,0.2,0c0.1,0,0.2,0,0.2-0.1c0.1,0,0.2-0.1,0.2-0.1c0.1-0.1,0.1-0.1,0.2-0.2
		c0.2-0.2,0.4-0.6,0.4-0.9s-0.1-0.7-0.4-0.9c-0.1-0.1-0.1-0.1-0.2-0.2s-0.1-0.1-0.2-0.1s-0.2-0.1-0.2-0.1c-0.4-0.1-0.9,0.1-1.2,0.4
		c-0.2,0.2-0.4,0.6-0.4,0.9s0.1,0.7,0.4,0.9C79.9,83.8,80.2,83.9,80.5,83.9z"/>
	<path class="st0" d="M84.9,86.9c0.7,0,1.3-0.6,1.3-1.3v-3c0-0.7-0.6-1.3-1.3-1.3s-1.3,0.6-1.3,1.3v3C83.6,86.3,84.2,86.9,84.9,86.9
		z"/>
</g>
</svg>
