<?xml version="1.0" encoding="utf-8"?>
<!-- Generator: Adobe Illustrator 23.1.1, SVG Export Plug-In . SVG Version: 6.00 Build 0)  -->
<svg version="1.1" id="Layer_1" xmlns="http://www.w3.org/2000/svg" xmlns:xlink="http://www.w3.org/1999/xlink" x="0px" y="0px"
	 viewBox="0 0 100 100" style="enable-background:new 0 0 100 100;" xml:space="preserve">
<style type="text/css">
	.st0{fill:#C18A24;}
</style>
<g>
	<path class="st0" d="M62.8,75.2h-25c-7.3,0-13.2,5.9-13.2,13.2v2.8c0,0.8,0.7,1.5,1.5,1.5s1.5-0.7,1.5-1.5v-2.8
		c0-5.6,4.6-10.2,10.2-10.2h25c5.6,0,10.2,4.6,10.2,10.2v2.8c0,0.8,0.7,1.5,1.5,1.5S76,92,76,91.2v-2.8C75.9,81.1,70,75.2,62.8,75.2
		z"/>
	<path class="st0" d="M50.3,44.7c-7.6,0-13.7,6.2-13.7,13.7c0,7.6,6.2,13.7,13.7,13.7C57.8,72.2,64,66,64,58.4
		C64,50.9,57.8,44.7,50.3,44.7z M50.3,69.2c-5.9,0-10.8-4.8-10.8-10.8c0-5.9,4.8-10.8,10.8-10.8S61,52.5,61,58.4
		C61,64.4,56.2,69.2,50.3,69.2z"/>
	<path class="st0" d="M44.1,29.9c0.8,0.3,1.6,0,1.9-0.8l1.6-3.8h5l1.6,3.8c0.2,0.6,0.8,0.9,1.4,0.9c0.2,0,0.4,0,0.6-0.1
		c0.8-0.3,1.1-1.2,0.8-1.9l-2-4.6l0,0l-3.4-7.9c-0.3-0.6-0.8-1-1.5-1c-0.6,0-1.2,0.4-1.5,1l-3.4,7.9l0,0l-2,4.6
		C43,28.7,43.3,29.6,44.1,29.9z M50.1,19.5l1.2,2.9h-2.5L50.1,19.5z"/>
	<path class="st0" d="M83.7,65.2l-3,3.6l-0.4-0.4c-0.6-0.6-1.5-0.6-2.1,0s-0.6,1.5,0,2.1l1.6,1.6c0.3,0.3,0.7,0.4,1,0.4
		c0,0,0,0,0.1,0c0.4,0,0.8-0.2,1.1-0.5l4-4.9c0.5-0.6,0.4-1.6-0.2-2.1C85.2,64.4,84.2,64.5,83.7,65.2z"/>
	<path class="st0" d="M46.4,36.6l2.4,4.4c0.3,0.5,0.8,0.8,1.3,0.8s1-0.3,1.3-0.8l2.4-4.4C60.3,34.9,65,28.9,65,22.2
		C65,14,58.3,7.3,50.1,7.3S35.2,14,35.2,22.2C35.3,28.9,39.9,34.9,46.4,36.6z M50.1,10.3c6.6,0,11.9,5.3,11.9,11.9
		c0,5.6-4,10.5-9.5,11.6c-0.4,0.1-0.8,0.4-1,0.7l-1.4,2.6l-1.4-2.6c-0.2-0.4-0.6-0.7-1-0.7c-5.5-1.1-9.5-6-9.5-11.6
		C38.2,15.6,43.6,10.3,50.1,10.3z"/>
	<path class="st0" d="M25.5,51l4.9,1.4c0.5,0.1,1.1,0,1.5-0.4s0.5-1,0.4-1.5l-1.5-4.8c3.3-5.8,2.4-13.3-2.5-18
		c-2.8-2.8-6.6-4.3-10.5-4.3c-4,0-7.7,1.6-10.5,4.5C4.5,30.7,3,34.4,3,38.4s1.6,7.7,4.5,10.5s6.6,4.2,10.4,4.2
		C20.5,53.1,23.2,52.4,25.5,51z M9.5,46.7C7.3,44.5,6,41.5,6,38.3s1.2-6.2,3.4-8.4c2.2-2.3,5.2-3.5,8.4-3.6h0.1
		c3.1,0,6.1,1.2,8.3,3.4c4,3.9,4.7,10.2,1.7,14.9c-0.2,0.4-0.3,0.8-0.2,1.2l0.9,2.9l-2.9-0.8c-0.4-0.1-0.9,0-1.2,0.2
		C19.8,51.2,13.5,50.6,9.5,46.7z"/>
	<path class="st0" d="M92.8,27.8c-5.7-5.9-15.2-5.9-21-0.2c-4.8,4.7-5.8,12.2-2.5,18l-1.5,4.8c-0.2,0.5,0,1.1,0.4,1.5
		s0.9,0.5,1.5,0.4l4.9-1.4c2.4,1.4,5,2.1,7.6,2.1c3.8,0,7.6-1.4,10.4-4.2C98.4,43.1,98.5,33.7,92.8,27.8z M90.5,46.7
		c-4,3.9-10.3,4.5-14.9,1.4c-0.2-0.2-0.5-0.3-0.8-0.3c-0.1,0-0.3,0-0.4,0.1l-2.9,0.8l0.9-2.9c0.1-0.4,0.1-0.9-0.2-1.2
		c-3-4.7-2.3-11,1.7-14.9c4.7-4.6,12.2-4.5,16.8,0.2C95.2,34.6,95.2,42.1,90.5,46.7z"/>
	<path class="st0" d="M18.4,47.6l7.2-2.8c0.6-0.2,1-0.8,1-1.4V33.1c0-0.5-0.2-0.9-0.6-1.2s-0.9-0.3-1.4-0.2l-6.7,2.6l-6.7-2.6
		c-0.5-0.2-1-0.1-1.4,0.2s-0.6,0.7-0.6,1.2v10.3c0,0.6,0.4,1.2,1,1.4l7.2,2.8l0,0c0.2,0.1,0.3,0.1,0.5,0.1l0,0
		C18,47.7,18.2,47.6,18.4,47.6L18.4,47.6z M23.6,42.4L19.3,44v-7.1l4.2-1.6v7.1H23.6z M16.4,44l-4.2-1.6v-7.1l4.2,1.6V44z"/>
	<path class="st0" d="M27.8,67l1.5-2.1c0.3-0.4,0.4-1,0.1-1.5c-0.2-0.5-0.7-0.8-1.3-0.8l-2.6-0.1c-2.7-2.9-7.1-3.8-10.7-2
		c-4.5,2.2-6.4,7.7-4.2,12.2c1.1,2.2,2.9,3.8,5.2,4.6c1,0.3,2,0.5,2.9,0.5c1.4,0,2.7-0.3,4-0.9C26.4,74.9,28.4,70.9,27.8,67z
		 M24.7,67c0.7,2.8-0.6,5.8-3.2,7c-1.5,0.7-3.1,0.8-4.7,0.3s-2.8-1.6-3.5-3.1c-1.5-3-0.2-6.7,2.8-8.2c0.9-0.4,1.8-0.6,2.7-0.6
		c1.8,0,3.7,0.8,4.8,2.4c0.3,0.3,0.7,0.6,1.1,0.6h0.5L25,65.8C24.7,66.1,24.6,66.6,24.7,67z"/>
	<path class="st0" d="M86,60.4c-3.6-1.8-8-0.9-10.7,2l-2.6,0.1c-0.5,0-1,0.3-1.3,0.8c-0.2,0.5-0.2,1.1,0.1,1.5l1.5,2.1
		c-0.7,3.9,1.3,7.9,4.9,9.7c1.3,0.6,2.7,0.9,4,0.9c3.4,0,6.6-1.9,8.2-5.1C92.4,68,90.5,62.6,86,60.4z M87.5,71.2
		c-1.5,3-5.2,4.3-8.2,2.8c-2.6-1.3-4-4.2-3.2-7c0.1-0.4,0-0.9-0.2-1.2l-0.3-0.4h0.5c0.4,0,0.8-0.2,1.1-0.6c1.8-2.3,4.9-3,7.5-1.7
		C87.8,64.5,89,68.2,87.5,71.2z"/>
	<path class="st0" d="M21.1,67.3h-0.8v-0.8c0-0.8-0.7-1.5-1.5-1.5s-1.5,0.7-1.5,1.5v0.8h-0.8c-0.8,0-1.5,0.7-1.5,1.5
		s0.7,1.5,1.5,1.5h0.8V71c0,0.8,0.7,1.5,1.5,1.5s1.5-0.7,1.5-1.5v-0.8h0.8c0.8,0,1.5-0.7,1.5-1.5S21.9,67.3,21.1,67.3z"/>
	<path class="st0" d="M82.1,30.4c-3.5,0-6.3,2.8-6.3,6.3c0,2,1,3.9,2.5,5v3.6c0,0.8,0.7,1.5,1.5,1.5h4.6c0.8,0,1.5-0.7,1.5-1.5v-3.6
		c1.5-1.2,2.5-3,2.5-5C88.4,33.2,85.6,30.4,82.1,30.4z M82.1,33.4c1.8,0,3.3,1.5,3.3,3.3S84,40,82.1,40c-1.8,0-3.3-1.5-3.3-3.3
		S80.3,33.4,82.1,33.4z M82.9,43.8h-1.6v-0.9c0.3,0,0.5,0.1,0.8,0.1s0.6,0,0.8-0.1C82.9,42.9,82.9,43.8,82.9,43.8z"/>
</g>
</svg>
