<?xml version="1.0" encoding="utf-8"?>
<!-- Generator: Adobe Illustrator 23.1.1, SVG Export Plug-In . SVG Version: 6.00 Build 0)  -->
<svg version="1.1" id="Layer_1" xmlns="http://www.w3.org/2000/svg" xmlns:xlink="http://www.w3.org/1999/xlink" x="0px" y="0px"
	 viewBox="0 0 100 100" style="enable-background:new 0 0 100 100;" xml:space="preserve">
<style type="text/css">
	.st0{fill:#240F6E;}
</style>
<g>
	<path class="st0" d="M47.3,27.5c0.7,0.5,1.6,0.4,2.1-0.3l4.6-6l6.2,8.5c-0.6,0.8-1,1.8-1,2.9c0,2.3,1.7,4.2,3.8,4.6l5.9,8.1H61
		c-0.8,0-1.5,0.7-1.5,1.5s0.7,1.5,1.5,1.5h9.2c0.5,0,1-0.3,1.3-0.7c0.7-1.1,0.7-2.8,0-4l-5.1-7c1.3-0.8,2.2-2.3,2.2-4
		c0-2.6-2.1-4.7-4.7-4.7c-0.4,0-0.7,0.1-1.1,0.1l-7-9.6c-0.1-0.1-0.2-0.3-0.3-0.4c0.1-0.2,0.1-0.3,0.1-0.5v-1.2l1,0.6
		c0.2,0.1,0.5,0.2,0.8,0.2c0.5,0,1-0.3,1.3-0.8c0.4-0.7,0.2-1.7-0.6-2.1l-1-0.6l1-0.6c0.7-0.4,1-1.3,0.6-2.1c-0.4-0.7-1.3-1-2.1-0.6
		l-1,0.6V10c0-0.8-0.7-1.5-1.5-1.5s-1.5,0.7-1.5,1.5v1.2l-1-0.6c-0.7-0.4-1.7-0.2-2.1,0.6c-0.4,0.7-0.2,1.7,0.6,2.1l1,0.6l-1,0.6
		c-0.7,0.4-1,1.3-0.6,2.1c0.3,0.5,0.8,0.8,1.3,0.8c0.3,0,0.5-0.1,0.8-0.2l1-0.6v1.2c0,0.2,0,0.4,0.1,0.5c-0.1,0.1-0.2,0.2-0.3,0.3
		l-5.3,7C46.5,26,46.7,27,47.3,27.5z M65.5,32.6c0,0.9-0.7,1.6-1.6,1.6s-1.6-0.7-1.6-1.6S63,31,63.9,31S65.5,31.7,65.5,32.6z"/>
	<path class="st0" d="M56.7,45.3L56.7,45.3c-0.9,0-1.6,0.7-1.6,1.5s0.7,1.5,1.6,1.5c0.8,0,1.5-0.7,1.5-1.5S57.5,45.3,56.7,45.3z"/>
	<path class="st0" d="M44.1,37.3c1.6,0,3-0.8,3.9-2.1h8.3c0.8,0,1.5-0.7,1.5-1.5s-0.7-1.5-1.5-1.5h-7.5c-0.2-2.4-2.2-4.2-4.6-4.2
		c-2.6,0-4.7,2.1-4.7,4.7S41.5,37.3,44.1,37.3z M44.1,31c0.9,0,1.6,0.7,1.6,1.6s-0.7,1.6-1.6,1.6s-1.6-0.7-1.6-1.6S43.2,31,44.1,31z
		"/>
	<path class="st0" d="M21.7,29.2c0.4,0,0.8-0.2,1.1-0.4c0.3-0.3,0.4-0.7,0.4-1.1s-0.2-0.8-0.4-1.1c-0.6-0.6-1.6-0.6-2.1,0
		c-0.3,0.3-0.4,0.7-0.4,1.1s0.2,0.8,0.4,1.1C20.9,29,21.3,29.2,21.7,29.2z"/>
	<path class="st0" d="M10.4,28.2c0,0.1,0.1,0.2,0.1,0.3c0.1,0.1,0.1,0.2,0.2,0.2c0.3,0.3,0.7,0.4,1.1,0.4c0.1,0,0.2,0,0.3,0
		s0.2-0.1,0.3-0.1s0.2-0.1,0.3-0.1c0.1-0.1,0.2-0.1,0.2-0.2c0.1-0.1,0.1-0.2,0.2-0.2c0.1-0.1,0.1-0.2,0.1-0.3c0-0.1,0.1-0.2,0.1-0.3
		c0-0.1,0-0.2,0-0.3c0-0.4-0.2-0.8-0.4-1.1c-0.1-0.1-0.1-0.1-0.2-0.2c-0.1-0.1-0.2-0.1-0.3-0.1s-0.2-0.1-0.3-0.1
		c-0.5-0.1-1,0.1-1.4,0.4c-0.3,0.3-0.4,0.7-0.4,1.1c0,0.1,0,0.2,0,0.3C10.3,28.1,10.4,28.2,10.4,28.2z"/>
	<path class="st0" d="M30.1,28.2c0,0.1,0.1,0.2,0.1,0.3c0.1,0.1,0.1,0.2,0.2,0.2c0.1,0.1,0.2,0.1,0.2,0.2c0.1,0.1,0.2,0.1,0.3,0.1
		c0.1,0,0.2,0.1,0.3,0.1c0.1,0,0.2,0,0.3,0c0.4,0,0.8-0.2,1.1-0.4c0.1-0.1,0.1-0.2,0.2-0.2c0.1-0.1,0.1-0.2,0.1-0.3
		c0-0.1,0.1-0.2,0.1-0.3c0-0.1,0-0.2,0-0.3c0-0.1,0-0.2,0-0.3c0-0.1-0.1-0.2-0.1-0.3c0-0.1-0.1-0.2-0.1-0.3
		c-0.1-0.1-0.1-0.2-0.2-0.2c-0.4-0.4-0.9-0.5-1.4-0.4c-0.1,0-0.2,0.1-0.3,0.1c-0.1,0-0.2,0.1-0.3,0.1c-0.1,0.1-0.2,0.1-0.2,0.2
		c-0.1,0.1-0.1,0.1-0.2,0.2s-0.1,0.2-0.1,0.3c0,0.1-0.1,0.2-0.1,0.3c0,0.1,0,0.2,0,0.3c0,0.1,0,0.2,0,0.3
		C30,28.1,30.1,28.2,30.1,28.2z"/>
	<path class="st0" d="M21.7,48.9c0.4,0,0.8-0.2,1.1-0.4c0.3-0.3,0.4-0.7,0.4-1.1c0-0.1,0-0.2,0-0.3s-0.1-0.2-0.1-0.3
		S23,46.6,23,46.5c-0.1-0.1-0.1-0.2-0.2-0.2c-0.6-0.6-1.6-0.6-2.1,0c-0.3,0.3-0.4,0.7-0.4,1.1c0,0.4,0.2,0.8,0.4,1.1
		C20.9,48.7,21.3,48.9,21.7,48.9z"/>
	<path class="st0" d="M11.8,48.9c0.4,0,0.8-0.2,1.1-0.4c0.3-0.3,0.4-0.7,0.4-1.1c0-0.4-0.2-0.8-0.4-1.1c-0.6-0.6-1.6-0.6-2.1,0
		c-0.3,0.3-0.4,0.7-0.4,1.1c0,0.4,0.2,0.8,0.4,1.1C11,48.7,11.4,48.9,11.8,48.9z"/>
	<path class="st0" d="M31.5,48.9c0.4,0,0.8-0.2,1.1-0.4c0.3-0.3,0.4-0.7,0.4-1.1c0-0.4-0.2-0.8-0.4-1.1c-0.6-0.6-1.6-0.6-2.1,0
		c-0.1,0.1-0.1,0.2-0.2,0.2c-0.1,0.1-0.1,0.2-0.1,0.3s-0.1,0.2-0.1,0.3s0,0.2,0,0.3c0,0.4,0.2,0.8,0.4,1.1
		C30.7,48.7,31.1,48.9,31.5,48.9z"/>
	<path class="st0" d="M25.7,38.8c0.1,0.1,0.2,0.1,0.3,0.1c0.1,0,0.2,0.1,0.3,0.1c0.1,0,0.2,0,0.3,0c0.1,0,0.2,0,0.3,0
		c0.1,0,0.2-0.1,0.3-0.1c0.1,0,0.2-0.1,0.3-0.1c0.1-0.1,0.2-0.1,0.2-0.2c0.3-0.3,0.4-0.7,0.4-1.1c0-0.4-0.2-0.8-0.4-1.1
		c-0.1-0.1-0.1-0.1-0.2-0.2c-0.1-0.1-0.2-0.1-0.3-0.1c-0.1,0-0.2-0.1-0.3-0.1c-0.2,0-0.4,0-0.6,0c-0.1,0-0.2,0-0.3,0.1
		c-0.1,0-0.2,0.1-0.3,0.1c-0.1,0.1-0.2,0.1-0.2,0.2c-0.1,0.1-0.1,0.1-0.2,0.2c-0.1,0.1-0.1,0.2-0.1,0.3s-0.1,0.2-0.1,0.3
		s0,0.2,0,0.3c0,0.4,0.2,0.8,0.4,1.1C25.6,38.7,25.7,38.7,25.7,38.8z"/>
	<path class="st0" d="M15.9,38.8c0.1,0.1,0.2,0.1,0.3,0.1c0.1,0,0.2,0.1,0.3,0.1c0.1,0,0.2,0,0.3,0c0.1,0,0.2,0,0.3,0
		c0.1,0,0.2-0.1,0.3-0.1c0.1,0,0.2-0.1,0.3-0.1c0.1-0.1,0.2-0.1,0.2-0.2c0.3-0.3,0.4-0.7,0.4-1.1c0-0.4-0.2-0.8-0.4-1.1
		c-0.1-0.1-0.1-0.1-0.2-0.2c-0.1-0.1-0.2-0.1-0.3-0.1c-0.1,0-0.2-0.1-0.3-0.1c-0.5-0.1-1,0.1-1.4,0.4c-0.1,0.1-0.1,0.1-0.2,0.2
		c-0.1,0.1-0.1,0.2-0.1,0.3s-0.1,0.2-0.1,0.3s0,0.2,0,0.3c0,0.4,0.2,0.8,0.4,1.1C15.7,38.7,15.8,38.7,15.9,38.8z"/>
	<path class="st0" d="M25.2,18.4c0,0.1,0.1,0.2,0.1,0.3c0.1,0.1,0.1,0.2,0.2,0.2c0.1,0.1,0.2,0.1,0.2,0.2c0.1,0.1,0.2,0.1,0.3,0.1
		c0.1,0,0.2,0.1,0.3,0.1c0.1,0,0.2,0,0.3,0c0.4,0,0.8-0.2,1.1-0.4c0.1-0.1,0.1-0.2,0.2-0.2c0.1-0.1,0.1-0.2,0.1-0.3
		c0-0.1,0.1-0.2,0.1-0.3c0-0.1,0-0.2,0-0.3c0-0.1,0-0.2,0-0.3c0-0.1-0.1-0.2-0.1-0.3c0-0.1-0.1-0.2-0.1-0.3
		c-0.1-0.1-0.1-0.2-0.2-0.2c-0.4-0.4-0.9-0.5-1.4-0.4c-0.1,0-0.2,0.1-0.3,0.1c-0.1,0-0.2,0.1-0.3,0.1c-0.1,0.1-0.2,0.1-0.2,0.2
		c-0.1,0.1-0.1,0.1-0.2,0.2s-0.1,0.2-0.1,0.3c0,0.1-0.1,0.2-0.1,0.3c0,0.1,0,0.2,0,0.3c0,0.1,0,0.2,0,0.3
		C25.1,18.2,25.1,18.3,25.2,18.4z"/>
	<path class="st0" d="M36.4,19.3c0.4,0,0.8-0.2,1.1-0.4c0.3-0.3,0.4-0.7,0.4-1.1c0-0.1,0-0.2,0-0.3c0-0.1-0.1-0.2-0.1-0.3
		c0-0.1-0.1-0.2-0.1-0.3c-0.1-0.1-0.1-0.2-0.2-0.2c-0.4-0.4-0.9-0.5-1.4-0.4c-0.1,0-0.2,0.1-0.3,0.1s-0.2,0.1-0.3,0.1
		c-0.1,0.1-0.2,0.1-0.2,0.2c-0.1,0.1-0.1,0.1-0.2,0.2C35,17,35,17.1,35,17.2c0,0.1-0.1,0.2-0.1,0.3c0,0.1,0,0.2,0,0.3
		c0,0.4,0.2,0.8,0.4,1.1S36,19.3,36.4,19.3z"/>
	<path class="st0" d="M16.7,19.3c0.4,0,0.8-0.2,1.1-0.4c0.3-0.3,0.4-0.7,0.4-1.1S18,17,17.8,16.7c-0.6-0.6-1.6-0.6-2.1,0
		c-0.3,0.3-0.4,0.7-0.4,1.1s0.2,0.8,0.4,1.1C15.9,19.2,16.3,19.3,16.7,19.3z"/>
	<path class="st0" d="M79.4,18.4c0,0.1,0.1,0.2,0.1,0.3c0.1,0.1,0.1,0.2,0.2,0.2c0.1,0.1,0.2,0.1,0.2,0.2c0.1,0.1,0.2,0.1,0.3,0.1
		c0.1,0,0.2,0.1,0.3,0.1c0.1,0,0.2,0,0.3,0c0.1,0,0.2,0,0.3,0c0.1,0,0.2-0.1,0.3-0.1c0.1,0,0.2-0.1,0.3-0.1c0.1-0.1,0.2-0.1,0.2-0.2
		c0.1-0.1,0.1-0.2,0.2-0.2c0.1-0.1,0.1-0.2,0.1-0.3c0-0.1,0.1-0.2,0.1-0.3c0-0.1,0-0.2,0-0.3c0-0.4-0.2-0.8-0.4-1.1
		c-0.1-0.1-0.1-0.1-0.2-0.2s-0.2-0.1-0.3-0.1c-0.1,0-0.2-0.1-0.3-0.1c-0.2,0-0.4,0-0.6,0c-0.1,0-0.2,0.1-0.3,0.1
		c-0.1,0-0.2,0.1-0.3,0.1c-0.1,0.1-0.2,0.1-0.2,0.2c-0.3,0.3-0.4,0.7-0.4,1.1c0,0.1,0,0.2,0,0.3C79.3,18.2,79.3,18.3,79.4,18.4z"/>
	<path class="st0" d="M89.8,19.1c0.1,0.1,0.2,0.1,0.3,0.1c0.1,0,0.2,0.1,0.3,0.1c0.1,0,0.2,0,0.3,0c0.1,0,0.2,0,0.3,0
		c0.1,0,0.2-0.1,0.3-0.1c0.1,0,0.2-0.1,0.3-0.1c0.1-0.1,0.2-0.1,0.2-0.2c0.3-0.3,0.4-0.7,0.4-1.1c0-0.1,0-0.2,0-0.3
		c0-0.1,0-0.2-0.1-0.3c0-0.1-0.1-0.2-0.1-0.3c-0.1-0.1-0.1-0.2-0.2-0.2c-0.1-0.1-0.1-0.1-0.2-0.2s-0.2-0.1-0.3-0.1
		c-0.1,0-0.2-0.1-0.3-0.1c-0.2,0-0.4,0-0.6,0c-0.1,0-0.2,0.1-0.3,0.1c-0.1,0-0.2,0.1-0.3,0.1c-0.1,0.1-0.2,0.1-0.2,0.2
		c-0.3,0.3-0.4,0.7-0.4,1.1s0.2,0.8,0.4,1.1C89.6,19,89.7,19,89.8,19.1z"/>
	<path class="st0" d="M79.9,38.8c0.1,0.1,0.2,0.1,0.3,0.1c0.1,0,0.2,0.1,0.3,0.1c0.1,0,0.2,0,0.3,0c0.1,0,0.2,0,0.3,0
		c0.1,0,0.2-0.1,0.3-0.1c0.1,0,0.2-0.1,0.3-0.1c0.1-0.1,0.2-0.1,0.2-0.2c0.3-0.3,0.4-0.7,0.4-1.1c0-0.4-0.2-0.8-0.4-1.1
		c-0.1-0.1-0.1-0.1-0.2-0.2c-0.1-0.1-0.2-0.1-0.3-0.1c-0.1,0-0.2-0.1-0.3-0.1c-0.2,0-0.4,0-0.6,0c-0.1,0-0.2,0-0.3,0.1
		c-0.1,0-0.2,0.1-0.3,0.1c-0.1,0.1-0.2,0.1-0.2,0.2c-0.3,0.3-0.4,0.7-0.4,1.1c0,0.4,0.2,0.8,0.4,1.1C79.8,38.7,79.9,38.7,79.9,38.8z
		"/>
	<path class="st0" d="M89.8,38.8c0.1,0.1,0.2,0.1,0.3,0.1c0.1,0,0.2,0.1,0.3,0.1c0.1,0,0.2,0,0.3,0c0.1,0,0.2,0,0.3,0
		c0.1,0,0.2-0.1,0.3-0.1c0.1,0,0.2-0.1,0.3-0.1c0.1-0.1,0.2-0.1,0.2-0.2c0.3-0.3,0.4-0.7,0.4-1.1c0-0.1,0-0.2,0-0.3s0-0.2-0.1-0.3
		c0-0.1-0.1-0.2-0.1-0.3c-0.1-0.1-0.1-0.2-0.2-0.2c-0.1-0.1-0.1-0.1-0.2-0.2c-0.1-0.1-0.2-0.1-0.3-0.1c-0.1,0-0.2-0.1-0.3-0.1
		c-0.2,0-0.4,0-0.6,0c-0.1,0-0.2,0-0.3,0.1c-0.1,0-0.2,0.1-0.3,0.1c-0.1,0.1-0.2,0.1-0.2,0.2c-0.3,0.3-0.4,0.7-0.4,1.1
		c0,0.4,0.2,0.8,0.4,1.1C89.6,38.7,89.7,38.7,89.8,38.8z"/>
	<path class="st0" d="M69.5,18.4c0,0.1,0.1,0.2,0.1,0.3c0.1,0.1,0.1,0.2,0.2,0.2c0.3,0.3,0.7,0.4,1.1,0.4s0.8-0.2,1.1-0.4
		c0.3-0.3,0.4-0.7,0.4-1.1S72.2,17,72,16.7c-0.6-0.6-1.6-0.6-2.2,0c-0.1,0.1-0.1,0.1-0.2,0.2s-0.1,0.2-0.1,0.3
		c0,0.1-0.1,0.2-0.1,0.3c0,0.1,0,0.2,0,0.3c0,0.1,0,0.2,0,0.3C69.5,18.2,69.5,18.3,69.5,18.4z"/>
	<path class="st0" d="M75.8,29.2c0.1,0,0.2,0,0.3,0c0.1,0,0.2-0.1,0.3-0.1c0.1,0,0.2-0.1,0.3-0.1c0.1-0.1,0.2-0.1,0.2-0.2
		c0.1-0.1,0.1-0.2,0.2-0.2c0.1-0.1,0.1-0.2,0.1-0.3c0-0.1,0.1-0.2,0.1-0.3c0-0.1,0-0.2,0-0.3c0-0.4-0.2-0.8-0.4-1.1
		c-0.1-0.1-0.1-0.1-0.2-0.2s-0.2-0.1-0.3-0.1c-0.1,0-0.2-0.1-0.3-0.1c-0.2,0-0.4,0-0.6,0c-0.1,0-0.2,0.1-0.3,0.1
		c-0.1,0-0.2,0.1-0.3,0.1c-0.1,0.1-0.2,0.1-0.2,0.2c-0.3,0.3-0.4,0.7-0.4,1.1s0.2,0.8,0.4,1.1C75.1,29,75.5,29.2,75.8,29.2z"/>
	<path class="st0" d="M84.3,28.2c0,0.1,0.1,0.2,0.1,0.3c0.1,0.1,0.1,0.2,0.2,0.2c0.1,0.1,0.2,0.1,0.2,0.2C84.9,29,85,29,85.1,29
		c0.1,0,0.2,0.1,0.3,0.1c0.1,0,0.2,0,0.3,0c0.1,0,0.2,0,0.3,0c0.1,0,0.2-0.1,0.3-0.1c0.1,0,0.2-0.1,0.3-0.1c0.1-0.1,0.2-0.1,0.2-0.2
		c0.1-0.1,0.1-0.2,0.2-0.2c0.1-0.1,0.1-0.2,0.1-0.3c0-0.1,0.1-0.2,0.1-0.3c0-0.1,0-0.2,0-0.3c0-0.1,0-0.2,0-0.3
		c0-0.1-0.1-0.2-0.1-0.3c0-0.1-0.1-0.2-0.1-0.3c-0.1-0.1-0.1-0.2-0.2-0.2c-0.1-0.1-0.1-0.1-0.2-0.2s-0.2-0.1-0.3-0.1
		c-0.1,0-0.2-0.1-0.3-0.1c-0.2,0-0.4,0-0.6,0c-0.1,0-0.2,0.1-0.3,0.1c-0.1,0-0.2,0.1-0.3,0.1c-0.1,0.1-0.2,0.1-0.2,0.2
		c-0.1,0.1-0.1,0.1-0.2,0.2s-0.1,0.2-0.1,0.3c0,0.1-0.1,0.2-0.1,0.3c0,0.1,0,0.2,0,0.3c0,0.1,0,0.2,0,0.3
		C84.2,28.1,84.3,28.2,84.3,28.2z"/>
	<path class="st0" d="M84.3,48c0,0.1,0.1,0.2,0.1,0.3c0.1,0.1,0.1,0.2,0.2,0.2c0.1,0.1,0.2,0.1,0.2,0.2c0.1,0.1,0.2,0.1,0.3,0.1
		c0.1,0,0.2,0.1,0.3,0.1c0.1,0,0.2,0,0.3,0c0.4,0,0.8-0.2,1.1-0.4c0.1-0.1,0.1-0.2,0.2-0.2c0.1-0.1,0.1-0.2,0.1-0.3s0.1-0.2,0.1-0.3
		s0-0.2,0-0.3s0-0.2,0-0.3s-0.1-0.2-0.1-0.3S87,46.6,87,46.5c-0.1-0.1-0.1-0.2-0.2-0.2c-0.3-0.4-0.9-0.5-1.4-0.4
		c-0.1,0-0.2,0-0.3,0.1c-0.1,0-0.2,0.1-0.3,0.1c-0.1,0.1-0.2,0.1-0.2,0.2c-0.1,0.1-0.1,0.1-0.2,0.2c-0.1,0.1-0.1,0.2-0.1,0.3
		s-0.1,0.2-0.1,0.3s0,0.2,0,0.3s0,0.2,0,0.3C84.2,47.8,84.3,47.9,84.3,48z"/>
	<path class="st0" d="M26.6,58.7c0.4,0,0.8-0.2,1.1-0.4c0.3-0.3,0.4-0.7,0.4-1.1c0-0.4-0.2-0.8-0.4-1.1c-0.6-0.6-1.6-0.6-2.1,0
		c-0.3,0.3-0.4,0.7-0.4,1.1c0,0.4,0.2,0.8,0.4,1.1S26.2,58.7,26.6,58.7z"/>
	<path class="st0" d="M15.3,57.8c0,0.1,0.1,0.2,0.1,0.3c0.1,0.1,0.1,0.2,0.2,0.2c0.3,0.3,0.7,0.4,1.1,0.4s0.8-0.2,1.1-0.4
		c0.3-0.3,0.4-0.7,0.4-1.1c0-0.4-0.2-0.8-0.4-1.1c-0.1-0.1-0.1-0.1-0.2-0.2c-0.1-0.1-0.2-0.1-0.3-0.1c-0.1,0-0.2-0.1-0.3-0.1
		c-0.5-0.1-1,0.1-1.4,0.4c-0.3,0.3-0.4,0.7-0.4,1.1c0,0.1,0,0.2,0,0.3C15.3,57.6,15.3,57.7,15.3,57.8z"/>
	<path class="st0" d="M91.3,89.3h-4.4V67.7c0-0.8-0.7-1.5-1.5-1.5h-4.3c0.3-1.1,1-3,2.7-2.9c0.8,0.1,1.6-0.5,1.6-1.4
		s-0.5-1.6-1.4-1.6c-0.7-0.1-1.3,0-1.9,0.2c-0.1-0.5-0.4-1-0.7-1.5c-0.5-0.7-1.4-0.8-2.1-0.3s-0.8,1.4-0.3,2.1
		c0.5,0.7,0.2,1.9,0.1,2.1l0,0c-0.7,1.2-1,2.4-1.2,3.2h-9.1c-0.8,0-1.5,0.7-1.5,1.5v5.2c0,0.8,0.7,1.5,1.5,1.5s1.5-0.7,1.5-1.5h13.5
		v16.3H71.5V77.9c0-0.8-0.7-1.5-1.5-1.5h-5.8l1.9-2.6c0.5-0.7,0.3-1.6-0.4-2.1c-0.7-0.5-1.6-0.3-2.1,0.3l-2.2,3.1V68
		c0.9-0.6,1.5-1.5,1.8-2.6c3.7-0.2,10.3-0.6,13.3-1.5h0.3c0.5,0,0.9-0.2,1.2-0.6c0.1-0.1,0.2-0.3,0.2-0.4c0.3-0.4,0.4-0.8,0.4-1.2
		l0,0c0.2-1.1,0-2.2-0.7-3.1c0,0,0-0.1-0.1-0.1l-2.1-2.3c0.4-0.7,0.6-1.5,0.6-2.3c0-2.6-2.1-4.7-4.7-4.7s-4.7,2.1-4.7,4.7
		s2.1,4.7,4.7,4.7c0.6,0,1.2-0.1,1.8-0.3l2,2.3c0.1,0.1,0.1,0.3,0.1,0.5c-1.4,0.5-5.4,1.1-12.6,1.4c-0.7-1.7-2.4-3-4.3-3
		c-2,0-3.8,1.3-4.4,3.2h-0.3c-11.2,0-19.3-0.8-21.6-1.6c0-0.2,0-0.4,0.1-0.5l0.5-0.6c0.6,0.3,1.4,0.5,2.1,0.5c2.6,0,4.7-2.1,4.7-4.7
		c0-1-0.3-1.9-0.8-2.6l4.3-4.8h1.9c0.7,1.7,2.4,3,4.4,3c2.6,0,4.7-2.1,4.7-4.7S52.1,42,49.5,42c-2.1,0-3.9,1.4-4.5,3.3h-5.9l3.5-4.8
		c0.5-0.7,0.3-1.6-0.3-2.1c-0.7-0.5-1.6-0.3-2.1,0.3l-3.6,4.9c-0.7,1.1-0.7,2.8,0,4c0.3,0.4,0.8,0.7,1.3,0.7h1.4l-2.7,3
		c-0.4-0.1-0.9-0.2-1.4-0.2c-2.6,0-4.7,2.1-4.7,4.7c0,0.7,0.2,1.3,0.4,1.9l-0.7,0.8l-0.1,0.1c-0.6,0.8-0.9,2-0.7,3.1l0,0
		c0,0.3,0.1,0.7,0.4,1.2c0.1,0.1,0.1,0.3,0.2,0.4c0.3,0.4,0.7,0.6,1.2,0.6h0.3c2.6,0.8,8.9,1.4,16.6,1.6v4c-0.1,0-0.1-0.1-0.2-0.1
		l-5.1-1.6c-0.8-0.2-1.6,0.2-1.9,1l-1.3,3.7l-1.3-3.7c-0.3-0.8-1.1-1.2-1.9-1l-5.1,1.6c-0.5,0.2-0.9,0.6-1,1.2s0.1,1.1,0.5,1.5
		l1.8,1.4h-3.8c-0.8,0-1.5,0.7-1.5,1.5v4.8H11.8c-0.8,0-1.5,0.7-1.5,1.5v3.5c0,0.8,0.7,1.5,1.5,1.5h0.3v2.9H8.3
		c-0.8,0-1.5,0.7-1.5,1.5s0.7,1.5,1.5,1.5h5.3H28h25.5H70h15.4h5.9c0.8,0,1.5-0.7,1.5-1.5S92.1,89.3,91.3,89.3z M70.4,70v-0.7h13.5
		V70H70.4z M70.1,53.9c0-0.9,0.7-1.6,1.6-1.6s1.6,0.7,1.6,1.6s-0.7,1.6-1.6,1.6S70.1,54.8,70.1,53.9z M49.5,45
		c0.9,0,1.6,0.7,1.6,1.6s-0.7,1.6-1.6,1.6c-0.9,0-1.6-0.7-1.6-1.6S48.6,45,49.5,45z M35.2,54.2c0.9,0,1.6,0.7,1.6,1.6
		c0,0.9-0.7,1.6-1.6,1.6c-0.4,0-0.8-0.2-1.1-0.5c0,0,0,0-0.1-0.1c-0.3-0.3-0.4-0.7-0.4-1.1C33.5,54.9,34.3,54.2,35.2,54.2z
		 M68.5,80.9H55v-1.4h13.5V80.9z M58.8,62.5c0.9,0,1.6,0.7,1.6,1.6c0,0.9-0.7,1.6-1.6,1.6s-1.6-0.7-1.6-1.6
		C57.1,63.2,57.8,62.5,58.8,62.5z M54,65.6h0.3c0.6,1.7,2.1,3,4,3.1v4l-0.1-0.1c-0.6-0.6-1.5-0.6-2.1,0s-0.6,1.5,0,2.1l1.7,1.7h-4.2
		c-0.8,0-1.5,0.7-1.5,1.5v11.4h-0.7V75.1v-9.5C52.1,65.6,53.1,65.6,54,65.6z M48.2,76.6v1.5H37.3v-1.5H48.2z M48.2,81.1v8.2H37.3
		v-8.2H48.2z M34.2,89.3h-3.8v-8.2h3.8V89.3z M48.2,72.4v1.2h-1.5L48.2,72.4z M43.4,71.2l1,0.3l-1.5,1.2L43.4,71.2z M36,71.2
		l0.5,1.5L35,71.5L36,71.2z M34.2,76.6v1.5h-3.8v-1.5H34.2z M13.4,82.9h13.1v0.5H13.6h-0.3L13.4,82.9L13.4,82.9z M15.2,89.3v-2.9
		h11.3v2.9H15.2z M55,83.9h13.5v5.4H55V83.9z"/>
</g>
</svg>
