<?xml version="1.0" encoding="utf-8"?>
<!-- Generator: Adobe Illustrator 23.1.1, SVG Export Plug-In . SVG Version: 6.00 Build 0)  -->
<svg version="1.1" id="Layer_1" xmlns="http://www.w3.org/2000/svg" xmlns:xlink="http://www.w3.org/1999/xlink" x="0px" y="0px"
	 viewBox="0 0 100 100" style="enable-background:new 0 0 100 100;" xml:space="preserve">
<style type="text/css">
	.st0{fill:#FFC82E;}
</style>
<g>
	<path class="st0" d="M34.2,22.1c4.4,0,8-3.6,8-8s-3.6-8-8-8s-8,3.6-8,8S29.8,22.1,34.2,22.1z M34.2,9.3c2.6,0,4.8,2.1,4.8,4.8
		c0,2.6-2.1,4.8-4.8,4.8c-2.6,0-4.8-2.1-4.8-4.8C29.5,11.4,31.6,9.3,34.2,9.3z"/>
	<path class="st0" d="M65.8,22.1c4.4,0,8-3.6,8-8s-3.6-8-8-8s-8,3.6-8,8C57.8,18.5,61.3,22.1,65.8,22.1z M65.8,9.3
		c2.6,0,4.8,2.1,4.8,4.8c0,2.6-2.1,4.8-4.8,4.8c-2.6,0-4.8-2.1-4.8-4.8C61,11.4,63.1,9.3,65.8,9.3z"/>
	<path class="st0" d="M7.7,52.1c0.9,0,1.6-0.7,1.6-1.6V49c0-2.5,2-4.5,4.5-4.5h13c2.5,0,4.5,2,4.5,4.5v1.5c0,0.9,0.7,1.6,1.6,1.6
		c0.9,0,1.6-0.7,1.6-1.6V49c0-4.3-3.5-7.7-7.7-7.7h-13c-4.3,0-7.7,3.5-7.7,7.7v1.5C6.1,51.4,6.8,52.1,7.7,52.1z"/>
	<path class="st0" d="M20.3,39c4.4,0,8-3.6,8-8s-3.6-8-8-8s-8,3.6-8,8C12.3,35.5,15.9,39,20.3,39z M20.3,26.3c2.6,0,4.8,2.1,4.8,4.8
		c0,2.6-2.1,4.8-4.8,4.8c-2.6,0-4.8-2.1-4.8-4.8C15.6,28.4,17.7,26.3,20.3,26.3z"/>
	<path class="st0" d="M62.6,52.1c0.9,0,1.6-0.7,1.6-1.6V49c0-4.3-3.5-7.7-7.7-7.7h-13c-4.3,0-7.7,3.5-7.7,7.7v1.5
		c0,0.9,0.7,1.6,1.6,1.6c0.9,0,1.6-0.7,1.6-1.6V49c0-2.5,2-4.5,4.5-4.5h13c2.5,0,4.5,2,4.5,4.5v1.5C61,51.4,61.7,52.1,62.6,52.1z"/>
	<path class="st0" d="M50,39c4.4,0,8-3.6,8-8s-3.6-8-8-8s-8,3.6-8,8C42,35.5,45.6,39,50,39z M50,26.3c2.6,0,4.8,2.1,4.8,4.8
		c0,2.6-2.1,4.8-4.8,4.8c-2.6,0-4.8-2.1-4.8-4.8S47.4,26.3,50,26.3z"/>
	<path class="st0" d="M73.2,41.3c-4.3,0-7.7,3.5-7.7,7.7v1.5c0,0.9,0.7,1.6,1.6,1.6s1.6-0.7,1.6-1.6V49c0-2.5,2-4.5,4.5-4.5h13
		c2.5,0,4.5,2,4.5,4.5v1.5c0,0.9,0.7,1.6,1.6,1.6s1.6-0.7,1.6-1.6V49c0-4.3-3.5-7.7-7.7-7.7H73.2z"/>
	<path class="st0" d="M79.7,39c4.4,0,8-3.6,8-8s-3.6-8-8-8s-8,3.6-8,8C71.7,35.5,75.3,39,79.7,39z M79.7,26.3c2.6,0,4.8,2.1,4.8,4.8
		c0,2.6-2.1,4.8-4.8,4.8s-4.8-2.1-4.8-4.8C74.9,28.4,77,26.3,79.7,26.3z"/>
	<path class="st0" d="M94.4,53.7H33.8c-0.9,0-1.6,0.7-1.6,1.6c0,0.9,0.7,1.6,1.6,1.6h60.6c0.9,0,1.6-0.7,1.6-1.6
		C96,54.4,95.3,53.7,94.4,53.7z"/>
	<path class="st0" d="M26.6,54.2c-0.3,0.3-0.5,0.7-0.5,1.1c0,0.4,0.2,0.8,0.5,1.1s0.7,0.5,1.1,0.5s0.8-0.2,1.1-0.5
		c0.3-0.3,0.5-0.7,0.5-1.1c0-0.4-0.2-0.8-0.5-1.1C28.2,53.5,27.2,53.5,26.6,54.2z"/>
	<path class="st0" d="M23.6,53.7h-18c-0.9,0-1.6,0.7-1.6,1.6c0,0.9,0.7,1.6,1.6,1.6h18c0.9,0,1.6-0.7,1.6-1.6S24.5,53.7,23.6,53.7z"
		/>
	<path class="st0" d="M57.3,83.3c-0.7-0.6-1.7-0.5-2.3,0.2l-3.4,4.2V63.1c0-0.9-0.7-1.6-1.6-1.6s-1.6,0.7-1.6,1.6v24.6L45,83.5
		c-0.6-0.7-1.6-0.8-2.3-0.2s-0.8,1.6-0.2,2.3l6.3,7.8c0,0,0,0,0.1,0.1c0,0.1,0.1,0.1,0.2,0.1l0.1,0.1c0.1,0,0.1,0.1,0.2,0.1
		c0,0,0.1,0,0.1,0.1c0.1,0,0.2,0.1,0.2,0.1h0.1c0.1,0,0.2,0,0.3,0s0.2,0,0.3,0h0.1c0.1,0,0.2,0,0.2-0.1c0,0,0.1,0,0.1-0.1
		c0.1,0,0.1-0.1,0.2-0.1l0.1-0.1c0.1,0,0.1-0.1,0.2-0.1c0,0,0,0,0.1-0.1l6.3-7.8C58.1,84.9,58,83.8,57.3,83.3z"/>
	<path class="st0" d="M40.5,78.5c-0.7-0.6-1.7-0.5-2.3,0.2l-3.4,4.2V63.1c0-0.9-0.7-1.6-1.6-1.6c-0.9,0-1.6,0.7-1.6,1.6v19.8
		l-3.4-4.2c-0.6-0.7-1.6-0.8-2.3-0.2c-0.7,0.6-0.8,1.6-0.2,2.3l6.3,7.8c0,0,0,0,0.1,0.1c0,0.1,0.1,0.1,0.2,0.1l0.1,0.1
		c0.1,0,0.1,0.1,0.2,0.1c0,0,0.1,0,0.1,0.1c0.1,0,0.2,0.1,0.2,0.1H33c0.1,0,0.2,0,0.3,0s0.2,0,0.3,0h0.1c0.1,0,0.2,0,0.2-0.1
		c0,0,0.1,0,0.1-0.1c0.1,0,0.1-0.1,0.2-0.1l0.1-0.1c0.1,0,0.1-0.1,0.2-0.1c0,0,0,0,0.1-0.1l6.3-7.8C41.3,80.1,41.2,79,40.5,78.5z"/>
	<path class="st0" d="M23.8,70.8c-0.7-0.6-1.7-0.5-2.3,0.2l-3.4,4.2V63.1c0-0.9-0.7-1.6-1.6-1.6s-1.6,0.7-1.6,1.6v12.1L11.5,71
		c-0.6-0.7-1.6-0.8-2.3-0.2c-0.7,0.6-0.8,1.6-0.2,2.3l6.3,7.8c0,0,0,0,0.1,0.1c0,0.1,0.1,0.1,0.2,0.1l0.1,0.1c0.1,0,0.1,0.1,0.2,0.1
		c0,0,0.1,0,0.1,0.1c0.1,0,0.2,0.1,0.2,0.1h0.1c0.1,0,0.2,0,0.3,0c0.1,0,0.2,0,0.3,0H17c0.1,0,0.2,0,0.2-0.1c0,0,0.1,0,0.1-0.1
		c0.1,0,0.1-0.1,0.2-0.1l0.1-0.1c0.1,0,0.1-0.1,0.2-0.1c0,0,0,0,0.1-0.1l6.3-7.8C24.6,72.4,24.5,71.4,23.8,70.8z"/>
	<path class="st0" d="M74.1,78.5c-0.7-0.6-1.7-0.5-2.3,0.2l-3.4,4.2V63.1c0-0.9-0.7-1.6-1.6-1.6s-1.6,0.7-1.6,1.6v19.8l-3.4-4.2
		c-0.6-0.7-1.6-0.8-2.3-0.2c-0.7,0.6-0.8,1.6-0.2,2.3l6.3,7.8c0,0,0,0,0.1,0.1c0,0.1,0.1,0.1,0.2,0.1l0.1,0.1c0.1,0,0.1,0.1,0.2,0.1
		c0,0,0.1,0,0.1,0.1c0.1,0,0.2,0.1,0.2,0.1h0.1c0.1,0,0.2,0,0.3,0c0.1,0,0.2,0,0.3,0h0.1c0.1,0,0.2,0,0.2-0.1c0,0,0.1,0,0.1-0.1
		c0.1,0,0.1-0.1,0.2-0.1l0.1-0.1c0.1,0,0.1-0.1,0.2-0.1c0,0,0,0,0.1-0.1l6.3-7.8C74.9,80.1,74.8,79,74.1,78.5z"/>
	<path class="st0" d="M90.8,70.8c-0.7-0.6-1.7-0.5-2.3,0.2l-3.4,4.2V63.1c0-0.9-0.7-1.6-1.6-1.6s-1.6,0.7-1.6,1.6v12.1L78.5,71
		c-0.6-0.7-1.6-0.8-2.3-0.2c-0.7,0.6-0.8,1.6-0.2,2.3l6.3,7.8c0,0,0,0,0.1,0.1c0,0.1,0.1,0.1,0.2,0.1l0.1,0.1c0.1,0,0.1,0.1,0.2,0.1
		c0,0,0.1,0,0.1,0.1c0.1,0,0.2,0.1,0.2,0.1h0.1c0.1,0,0.2,0,0.3,0c0.1,0,0.2,0,0.3,0H84c0.1,0,0.2,0,0.2-0.1c0,0,0.1,0,0.1-0.1
		c0.1,0,0.1-0.1,0.2-0.1l0.1-0.1c0.1,0,0.1-0.1,0.2-0.1c0,0,0,0,0.1-0.1l6.3-7.8C91.6,72.4,91.5,71.4,90.8,70.8z"/>
</g>
</svg>
