<?xml version="1.0" encoding="utf-8"?>
<!-- Generator: Adobe Illustrator 23.1.1, SVG Export Plug-In . SVG Version: 6.00 Build 0)  -->
<svg version="1.1" id="Layer_1" xmlns="http://www.w3.org/2000/svg" xmlns:xlink="http://www.w3.org/1999/xlink" x="0px" y="0px"
	 viewBox="0 0 100 100" style="enable-background:new 0 0 100 100;" xml:space="preserve">
<style type="text/css">
	.st0{fill:#240F6E;}
</style>
<g>
	<path class="st0" d="M93.3,74.3H40c0.5-1.1,0.9-2.2,1.3-3.3l0,0l0,0c5.5-15.9,5.2-34.4,5.2-35.3l0,0c1.6-1.1,2.8-3,3.3-5.3l9.1,1
		l0,0l0,0l12.6,1.4c0.1,0,0.1,0,0.2,0c0.5,0,1-0.2,1.3-0.7s0.4-1.1,0.1-1.6c-2.9-6-7.9-10.2-13.6-11.7l9.2-5.8
		c0.5-0.3,0.8-0.9,0.7-1.4c0-0.6-0.4-1.1-0.9-1.3C62.1,7.6,55.1,8,49.3,11.5c-2.3,1.3-4.3,3-5.9,5c-0.5-2-1.4-4.3-3.3-6.2
		c-2.4-2.4-5.7-3.6-9.9-3.5c-0.5,0-1,0.3-1.3,0.7c-0.3,0.4-0.3,1-0.1,1.5l1.3,3.1c0.3,0.8,1.3,1.1,2,0.8c0.8-0.3,1.1-1.3,0.8-2
		l-0.3-0.8c2.1,0.3,3.9,1.1,5.2,2.5c2.7,2.7,2.9,6.8,2.9,8c-0.1,0.1-0.1,0.3-0.2,0.4c-0.5,0.2-0.9,0.5-1.3,0.8
		c-2.7-3.7-6.5-6.5-10.9-8c-6.4-2.2-13.4-1.2-19,2.6c-0.5,0.3-0.7,0.9-0.7,1.5c0.1,0.6,0.5,1.1,1,1.3l8.5,3.1c0.8,0.3,1.7-0.1,2-0.9
		s-0.1-1.7-0.9-2l-5.3-1.9c4.2-1.9,8.9-2.2,13.4-0.7c3.7,1.2,6.8,3.5,9.1,6.5c-4.7-2.2-9.7-2.6-14.3-1.2c-6.4,2.1-11.4,7.7-13.2,15
		c-0.1,0.5,0,1.1,0.4,1.5C9.6,38.9,10,39,10.4,39c0.2,0,0.3,0,0.5-0.1l18-5.8c0,0.1,0,0.3,0,0.4c-0.1,2.1,0.5,4,1.6,5.6
		c1.2,1.6,2.9,2.6,4.7,2.7c0.1,0,0.2,0,0.3,0c0.5,0,1.1-0.1,1.6-0.2c-1,5.9-4,19.8-10.6,28.2C15.2,66.8,6.8,67,6.4,67
		c-0.9,0-1.5,0.7-1.5,1.6s0.7,1.6,1.6,1.5c0.1,0,9.7-0.2,21.5,3.2c0.1,0,0.3,0.1,0.4,0.1c0.7,0,1.3-0.4,1.5-1.1
		c0.2-0.6,0-1.2-0.5-1.6c8.5-11.6,10.9-30.8,11-31.6V39c0.5-0.7,0.9-1.4,1.2-2.3c0.4,0.1,0.7,0.1,1.1,0.2c0.1,0,0.2,0,0.3,0
		c0.2,0,0.3,0,0.5,0c0,3.5-0.3,15.1-3.1,26.6l-1.8-0.4c-0.8-0.2-1.7,0.3-1.9,1.2c-0.2,0.8,0.3,1.7,1.2,1.9l1.7,0.4
		c-0.2,0.7-0.4,1.4-0.6,2.1l-2.9-1c-0.8-0.3-1.7,0.2-2,1s0.2,1.7,1,2l2.9,1c-0.7,2-1.6,3.9-2.5,5.7c-0.4,0.8-0.1,1.7,0.6,2.1
		c0.2,0.1,0.5,0.2,0.7,0.2c0.6,0,1.1-0.3,1.4-0.8c0.1-0.2,0.2-0.4,0.3-0.6l1,0.4c7.4,3.2,15.1,6.4,20.7,14.6
		c0.3,0.4,0.8,0.7,1.3,0.7c0.3,0,0.6-0.1,0.9-0.3c0.7-0.5,0.9-1.5,0.4-2.2c-5-7.2-11.3-10.9-17.7-13.8h48.4c0.9,0,1.6-0.7,1.6-1.6
		C94.9,75,94.2,74.3,93.3,74.3z M68.8,29.2l-8.1-0.9l0.1-1.6c0.1-0.9-0.6-1.6-1.4-1.7c-0.9-0.1-1.6,0.6-1.7,1.4L57.6,28l-1.1-0.1
		l0.3-3.1c0.1-0.9-0.5-1.6-1.4-1.7c-0.8-0.1-1.6,0.5-1.7,1.4l-0.3,3l-3.5-0.4c-0.2-1.6-0.8-3.1-1.6-4.2c2.7-1.3,5.6-1.8,8.5-1.5
		C61.5,21.9,65.8,24.7,68.8,29.2z M50.8,14.1c4.1-2.4,8.8-3.1,13.3-2l-9.8,6.1c-3,0.1-5.9,1-8.7,2.5c-0.4-0.2-0.8-0.3-1.3-0.4
		C46,17.8,48.2,15.7,50.8,14.1z M24.9,31l-0.8-3.1c-0.2-0.8-1.1-1.3-1.9-1.1c-0.8,0.2-1.3,1.1-1.1,1.9l0.8,3.3l-1.8,0.6l-0.4-1.4
		c-0.2-0.8-1.1-1.3-1.9-1.1c-0.8,0.2-1.3,1.1-1.1,1.9l0.4,1.6L12.7,35c2-5,5.6-8.6,10.3-10.1c3.9-1.2,8-0.9,11.9,1
		c-2.1,0.2-3.9,1.6-5.1,3.6L24.9,31z M35.2,38.5c-0.9,0-1.7-0.5-2.3-1.4c-0.7-1-1.1-2.2-1-3.6c0.1-2.6,1.8-4.7,3.6-4.7h0.1
		c0.2,0,0.3,0,0.5,0.1c0.1,2.5,1.1,4.7,2.7,6.1C38.2,37.1,36.8,38.6,35.2,38.5z M42.8,33.6c-0.5,0-1-0.2-1.5-0.5l0,0
		c-1.4-0.9-2.2-2.8-2.1-4.8l0,0v-0.1l0,0v-0.1l0,0c0.2-2.7,2-4.9,4-4.8c2.1,0.1,3.7,2.5,3.6,5.3C46.7,31.5,44.9,33.7,42.8,33.6z"/>
	<path class="st0" d="M75.5,81.4c0-0.9-0.7-1.6-1.6-1.6H60.6c-0.9,0-1.6,0.7-1.6,1.6s0.7,1.6,1.6,1.6H74
		C74.8,83,75.5,82.3,75.5,81.4z"/>
	<path class="st0" d="M80.7,85.1H69.3c-0.9,0-1.6,0.7-1.6,1.6s0.7,1.6,1.6,1.6h11.3c0.9,0,1.6-0.7,1.6-1.6
		C82.2,85.8,81.5,85.1,80.7,85.1z"/>
	<path class="st0" d="M84.9,79.9h-3.3c-0.9,0-1.6,0.7-1.6,1.6s0.7,1.6,1.6,1.6h3.3c0.9,0,1.6-0.7,1.6-1.6S85.8,79.9,84.9,79.9z"/>
	<path class="st0" d="M18.2,81.2c0-0.1-0.1-0.2-0.1-0.3c-0.1-0.1-0.1-0.2-0.2-0.2c-0.4-0.4-0.9-0.5-1.4-0.4c-0.1,0-0.2,0.1-0.3,0.1
		c-0.1,0-0.2,0.1-0.3,0.1c-0.1,0.1-0.2,0.1-0.2,0.2c-0.1,0.1-0.1,0.2-0.2,0.2c-0.1,0.1-0.1,0.2-0.1,0.3c0,0.1-0.1,0.2-0.1,0.3
		c0,0.1,0,0.2,0,0.3c0,0.1,0,0.2,0,0.3c0,0.1,0,0.2,0.1,0.3c0,0.1,0.1,0.2,0.1,0.3c0.1,0.1,0.1,0.2,0.2,0.2c0.1,0.1,0.1,0.1,0.2,0.2
		s0.2,0.1,0.3,0.1s0.2,0.1,0.3,0.1c0.1,0,0.2,0,0.3,0c0.4,0,0.8-0.2,1.1-0.5c0.1-0.1,0.1-0.1,0.2-0.2s0.1-0.2,0.1-0.3
		c0-0.1,0.1-0.2,0.1-0.3c0-0.1,0-0.2,0-0.3c0-0.1,0-0.2,0-0.3C18.2,81.3,18.2,81.3,18.2,81.2z"/>
	<path class="st0" d="M28.5,81.2c0-0.1-0.1-0.2-0.1-0.3c-0.1-0.1-0.1-0.2-0.2-0.2c-0.6-0.6-1.6-0.6-2.2,0c-0.3,0.3-0.5,0.7-0.5,1.1
		c0,0.1,0,0.2,0,0.3c0,0.1,0.1,0.2,0.1,0.3c0,0.1,0.1,0.2,0.1,0.3c0.1,0.1,0.1,0.2,0.2,0.2c0.3,0.3,0.7,0.5,1.1,0.5s0.8-0.2,1.1-0.5
		c0.1-0.1,0.1-0.1,0.2-0.2s0.1-0.2,0.1-0.3c0-0.1,0.1-0.2,0.1-0.3c0-0.1,0-0.2,0-0.3c0-0.1,0-0.2,0-0.3
		C28.6,81.4,28.6,81.3,28.5,81.2z"/>
	<path class="st0" d="M22.3,88.4c0-0.1-0.1-0.2-0.1-0.3c-0.1,0-0.2-0.1-0.2-0.2c-0.6-0.6-1.6-0.6-2.2,0c-0.1,0.1-0.1,0.2-0.2,0.2
		c-0.1,0.1-0.1,0.2-0.1,0.3c0,0.1-0.1,0.2-0.1,0.3c0,0.1,0,0.2,0,0.3c0,0.4,0.2,0.8,0.5,1.1c0.3,0.3,0.7,0.5,1.1,0.5
		s0.8-0.2,1.1-0.5c0.3-0.3,0.5-0.7,0.5-1.1c0-0.1,0-0.2,0-0.3C22.4,88.6,22.3,88.5,22.3,88.4z"/>
	<path class="st0" d="M36.4,87.9c-0.3,0.3-0.5,0.7-0.5,1.1s0.2,0.8,0.5,1.1c0.3,0.3,0.7,0.5,1.1,0.5c0.4,0,0.8-0.2,1.1-0.5
		s0.5-0.7,0.5-1.1s-0.2-0.8-0.5-1.1C38,87.3,36.9,87.3,36.4,87.9z"/>
	<path class="st0" d="M77,90.5h-3.3c-0.9,0-1.6,0.7-1.6,1.6s0.7,1.6,1.6,1.6H77c0.9,0,1.6-0.7,1.6-1.6S77.9,90.5,77,90.5z"/>
	<path class="st0" d="M66.4,48c0,5.3,4.3,9.6,9.6,9.6c5.3,0,9.6-4.3,9.6-9.6s-4.3-9.6-9.6-9.6C70.7,38.5,66.4,42.8,66.4,48z
		 M82.5,48c0,3.6-2.9,6.5-6.5,6.5s-6.5-2.9-6.5-6.5s2.9-6.5,6.5-6.5C79.6,41.6,82.5,44.5,82.5,48z"/>
	<path class="st0" d="M76,36.1c0.9,0,1.6-0.7,1.6-1.6v-3c0-0.9-0.7-1.6-1.6-1.6s-1.6,0.7-1.6,1.6v3C74.4,35.4,75.1,36.1,76,36.1z"/>
	<path class="st0" d="M74.4,61.5v3c0,0.9,0.7,1.6,1.6,1.6s1.6-0.7,1.6-1.6v-3c0-0.9-0.7-1.6-1.6-1.6C75.1,60,74.4,60.7,74.4,61.5z"
		/>
	<path class="st0" d="M87.9,48c0,0.9,0.7,1.6,1.6,1.6h3c0.9,0,1.6-0.7,1.6-1.6s-0.7-1.6-1.6-1.6h-3C88.6,46.5,87.9,47.2,87.9,48z"/>
	<path class="st0" d="M59.5,46.5c-0.9,0-1.6,0.7-1.6,1.6s0.7,1.6,1.6,1.6h3c0.9,0,1.6-0.7,1.6-1.6s-0.7-1.6-1.6-1.6H59.5z"/>
	<path class="st0" d="M85.5,40c0.4,0,0.8-0.2,1.1-0.5l2.1-2.1c0.6-0.6,0.6-1.6,0-2.2c-0.6-0.6-1.6-0.6-2.2,0l-2.1,2.1
		c-0.6,0.6-0.6,1.6,0,2.2C84.7,39.9,85.1,40,85.5,40z"/>
	<path class="st0" d="M64.3,61.2c0.4,0,0.8-0.2,1.1-0.5l2.1-2.1c0.6-0.6,0.6-1.6,0-2.2c-0.6-0.6-1.6-0.6-2.2,0l-2.1,2.1
		c-0.6,0.6-0.6,1.6,0,2.2C63.6,61.1,64,61.2,64.3,61.2z"/>
	<path class="st0" d="M84.4,56.5c-0.6,0.6-0.6,1.6,0,2.2l2.1,2.1c0.3,0.3,0.7,0.5,1.1,0.5s0.8-0.2,1.1-0.5c0.6-0.6,0.6-1.6,0-2.2
		l-2.1-2.1C86,55.9,85,55.9,84.4,56.5z"/>
	<path class="st0" d="M66.4,40c0.4,0,0.8-0.2,1.1-0.5c0.6-0.6,0.6-1.6,0-2.2l-2.1-2.1c-0.6-0.6-1.6-0.6-2.2,0
		c-0.6,0.6-0.6,1.6,0,2.2l2.1,2.1C65.6,39.9,66,40,66.4,40z"/>
</g>
</svg>
