<?xml version="1.0" encoding="utf-8"?>
<!-- Generator: Adobe Illustrator 23.1.1, SVG Export Plug-In . SVG Version: 6.00 Build 0)  -->
<svg version="1.1" id="Layer_1" xmlns="http://www.w3.org/2000/svg" xmlns:xlink="http://www.w3.org/1999/xlink" x="0px" y="0px"
	 viewBox="0 0 100 100" style="enable-background:new 0 0 100 100;" xml:space="preserve">
<style type="text/css">
	.st0{fill:#C18A24;}
</style>
<g>
	<path class="st0" d="M21.2,54.7c1.9,0,3.4,1.5,3.4,3.4v1.2c0,0.8,0.7,1.5,1.5,1.5s1.5-0.7,1.5-1.5v-1.2c0-3.7-3-6.5-6.5-6.5H10.5
		c-3.7,0-6.5,3-6.5,6.5v1.2c0,0.8,0.7,1.5,1.5,1.5S7,60.1,7,59.3v-1.2c0-1.9,1.5-3.4,3.4-3.4H21.2z"/>
	<path class="st0" d="M15.9,50.2c3.8,0,6.7-3.1,6.7-6.7c0-3.8-3.1-6.7-6.7-6.7s-6.8,3-6.8,6.7C9.1,47.2,12.1,50.2,15.9,50.2z
		 M15.9,39.7c2,0,3.7,1.7,3.7,3.7S17.9,47,15.9,47s-3.7-1.7-3.7-3.7C12.1,41.4,13.8,39.7,15.9,39.7z"/>
	<path class="st0" d="M69.4,33.6c0.8,0,1.5-0.7,1.5-1.5v-1.2c0-1.9,1.5-3.4,3.4-3.4H85c1.9,0,3.4,1.5,3.4,3.4V32
		c0,0.8,0.7,1.5,1.5,1.5s1.5-0.7,1.5-1.5v-1.2c0-3.7-3-6.5-6.5-6.5H74.4c-3.7,0-6.5,3-6.5,6.5V32C67.9,32.9,68.6,33.6,69.4,33.6z"/>
	<path class="st0" d="M79.8,22.8c3.8,0,6.7-3.1,6.7-6.7c0-3.8-3.1-6.7-6.7-6.7c-3.8,0-6.7,3.1-6.7,6.7C73,19.9,76,22.8,79.8,22.8z
		 M79.8,12.4c2,0,3.7,1.7,3.7,3.7s-1.7,3.7-3.7,3.7s-3.7-1.7-3.7-3.7C76.2,14.1,77.8,12.4,79.8,12.4z"/>
	<path class="st0" d="M61.3,61.5c0.8,0,1.5-0.7,1.5-1.5v-1.2c0-3.7-3-6.5-6.5-6.5H45.6c-3.7,0-6.5,3-6.5,6.5V60
		c0,0.8,0.7,1.5,1.5,1.5s1.5-0.7,1.5-1.5v-1.2c0-1.9,1.5-3.4,3.4-3.4h10.7c1.9,0,3.4,1.5,3.4,3.4V60C59.7,60.9,60.4,61.5,61.3,61.5z
		"/>
	<path class="st0" d="M51,50.8c3.8,0,6.7-3.1,6.7-6.7c0-3.8-3.1-6.7-6.7-6.7c-3.7,0-6.7,3.1-6.7,6.7C44.2,47.8,47.2,50.8,51,50.8z
		 M51,40.3c2,0,3.7,1.7,3.7,3.7S53,47.7,51,47.7S47.3,46,47.3,44C47.2,42,48.9,40.3,51,40.3z"/>
	<path class="st0" d="M77.1,82.6H66.4c-3.7,0-6.5,3-6.5,6.5v1.2c0,0.8,0.7,1.5,1.5,1.5s1.5-0.7,1.5-1.5v-1.2c0-1.9,1.5-3.4,3.4-3.4
		H77c1.9,0,3.4,1.5,3.4,3.4v1.2c0,0.8,0.7,1.5,1.5,1.5s1.5-0.7,1.5-1.5v-1.2C83.6,85.5,80.6,82.6,77.1,82.6z"/>
	<path class="st0" d="M64.9,74.3c0,3.8,3.1,6.7,6.7,6.7c3.8,0,6.7-3.1,6.7-6.7c0-3.8-3.1-6.7-6.7-6.7C68,67.6,64.9,70.7,64.9,74.3z
		 M71.7,70.7c2,0,3.7,1.7,3.7,3.7s-1.7,3.7-3.7,3.7S68,76.4,68,74.4C68,72.3,69.7,70.7,71.7,70.7z"/>
	<path class="st0" d="M45,85.7H34.2c-3.7,0-6.5,3-6.5,6.5v1.2c0,0.8,0.7,1.5,1.5,1.5s1.5-0.7,1.5-1.5v-1.2c0-1.9,1.5-3.4,3.4-3.4H45
		c1.9,0,3.4,1.5,3.4,3.4v1.2c0,0.8,0.7,1.5,1.5,1.5s1.5-0.7,1.5-1.5v-1.2C51.5,88.6,48.5,85.7,45,85.7z"/>
	<path class="st0" d="M32.8,77.5c0,3.8,3.1,6.7,6.7,6.7c3.7,0,6.7-3.1,6.7-6.7c0-3.8-3.1-6.7-6.7-6.7C35.9,70.8,32.8,73.7,32.8,77.5
		z M43.3,77.5c0,2-1.7,3.7-3.7,3.7S36,79.5,36,77.5s1.7-3.7,3.7-3.7C41.7,73.9,43.3,75.4,43.3,77.5z"/>
	<path class="st0" d="M47.3,18.6c3.8,0,6.7-3.1,6.7-6.7c0-3.8-3.1-6.7-6.7-6.7c-3.8,0-6.7,3.1-6.7,6.7
		C40.5,15.5,43.6,18.6,47.3,18.6z M47.3,8.1c2,0,3.7,1.7,3.7,3.7s-1.7,3.7-3.7,3.7s-3.7-1.7-3.7-3.7C43.7,9.7,45.3,8.1,47.3,8.1z"/>
	<path class="st0" d="M18.4,29.5c0.8,0,1.5-0.7,1.5-1.5v-1.1c0-1.7,1.3-3,3-3h9.6c1.7,0,3,1.3,3,3v0.9v0.1c0,0.8,0.7,1.5,1.5,1.5
		s1.5-0.7,1.5-1.5v-0.1v-0.9v-0.2c0-1.9,1.5-3.4,3.4-3.4h10.7c1.9,0,3.4,1.5,3.4,3.4v1.2c0,0.8,0.7,1.5,1.5,1.5s1.5-0.7,1.5-1.5
		v-1.2c0-3.7-3-6.5-6.5-6.5H41.9c-2.1,0-4,1.1-5.2,2.6c-1.1-1.1-2.6-1.8-4.3-1.8h-9.6c-3.3,0-6,2.7-6,6v1
		C16.9,28.7,17.6,29.5,18.4,29.5z"/>
	<path class="st0" d="M27.7,19.8c3.4,0,6.3-2.8,6.3-6.3s-2.8-6.3-6.3-6.3s-6.3,2.8-6.3,6.3C21.5,17.1,24.3,19.8,27.7,19.8z
		 M27.7,10.4c1.8,0,3.2,1.4,3.2,3.2s-1.4,3.2-3.2,3.2c-1.8,0-3.2-1.4-3.2-3.2C24.5,11.9,26,10.4,27.7,10.4z"/>
	<path class="st0" d="M29.2,80.7v-0.9c0-3.2-2.6-5.7-5.7-5.7h-8.9c-3.2,0-5.7,2.6-5.7,5.7v0.9c0,0.8,0.7,1.5,1.5,1.5
		s1.5-0.7,1.5-1.5v-0.9c0-1.4,1.2-2.6,2.6-2.6h8.9c1.4,0,2.6,1.2,2.6,2.6v0.9c0,0.8,0.7,1.5,1.5,1.5C28.4,82.2,29.2,81.5,29.2,80.7z
		"/>
	<path class="st0" d="M19,61.6c-3.3,0-5.9,2.6-5.9,5.9s2.6,5.9,5.9,5.9s5.9-2.6,5.9-5.9S22.2,61.6,19,61.6z M19,70.2
		c-1.5,0-2.8-1.3-2.8-2.8s1.3-2.8,2.8-2.8s2.8,1.3,2.8,2.8S20.5,70.2,19,70.2z"/>
	<path class="st0" d="M89.5,52.1H78.8c-3.7,0-6.5,3-6.5,6.5v1.2c0,0.8,0.7,1.5,1.5,1.5s1.5-0.7,1.5-1.5v-1.2c0-1.9,1.5-3.4,3.4-3.4
		h10.7c1.9,0,3.4,1.5,3.4,3.4v1.2c0,0.8,0.7,1.5,1.5,1.5s1.5-0.7,1.5-1.5v-1.2C96.1,55.1,93.2,52.1,89.5,52.1z"/>
	<path class="st0" d="M84.2,37.1c-3.8,0-6.7,3.1-6.7,6.7c0,3.8,3.1,6.7,6.7,6.7c3.8,0,6.7-3.1,6.7-6.7C91,40.1,88,37.1,84.2,37.1z
		 M84.2,47.5c-2,0-3.7-1.7-3.7-3.7s1.7-3.7,3.7-3.7s3.7,1.7,3.7,3.7C87.8,45.9,86.2,47.5,84.2,47.5z"/>
	<path class="st0" d="M36.2,36.8L36.2,36.8c-3.4,3.8-5.4,8.6-5.4,13.7s1.9,9.9,5.4,13.7l0,0c3.8,4,9.1,6.4,14.6,6.4
		s10.9-2.4,14.6-6.4C69,60.4,71,55.6,71,50.5c0-2.7-0.5-5.3-1.5-7.8c-0.4-0.8-1.2-1.2-2-0.8s-1.2,1.3-0.8,2c0.8,2.1,1.3,4.3,1.3,6.6
		c0,4.3-1.7,8.4-4.6,11.6c-3.3,3.4-7.7,5.4-12.4,5.4s-9.2-1.9-12.4-5.4l0,0c-3-3.2-4.6-7.2-4.6-11.6c0-4.3,1.7-8.4,4.6-11.6l0,0
		c3.2-3.4,7.7-5.4,12.4-5.4s9.2,1.9,12.4,5.4c0.4,0.4,0.7,0.5,1.2,0.5c0.4,0,0.7-0.1,1.1-0.5c0.6-0.6,0.7-1.5,0.1-2.2
		c-3.8-4-9.1-6.4-14.6-6.4C45.5,30.4,40,32.8,36.2,36.8z"/>
</g>
</svg>
