<?xml version="1.0" encoding="utf-8"?>
<!-- Generator: Adobe Illustrator 23.1.1, SVG Export Plug-In . SVG Version: 6.00 Build 0)  -->
<svg version="1.1" id="Layer_1" xmlns="http://www.w3.org/2000/svg" xmlns:xlink="http://www.w3.org/1999/xlink" x="0px" y="0px"
	 viewBox="0 0 100 100" style="enable-background:new 0 0 100 100;" xml:space="preserve">
<style type="text/css">
	.st0{fill:#C18A24;}
</style>
<g>
	<path class="st0" d="M50,4C25.2,4,5,24.2,5,49s20.2,45,45,45c0.8,0,1.5-0.7,1.5-1.5S50.8,91,50,91C26.8,91,8,72.1,8,49S26.8,7,50,7
		s42,18.8,42,42c0,0.8,0.7,1.5,1.5,1.5S95,49.8,95,49C95,24.2,74.8,4,50,4z"/>
	<path class="st0" d="M81.3,49.2c0-17.2-14-31.1-31.1-31.1S19,32.1,19,49.2s14,31.1,31.1,31.1S81.3,66.4,81.3,49.2z M40.5,22.8
		c-2.3,2.4-4.2,5.6-5.6,9.5h-7.2C31,28,35.4,24.6,40.5,22.8z M25.8,35.2H34c-1.1,3.8-1.7,8-1.9,12.5h-10
		C22.3,43.2,23.6,38.9,25.8,35.2z M22.1,50.7h10.1c0.1,4.5,0.8,8.8,1.9,12.5h-8.2C23.6,59.5,22.3,55.3,22.1,50.7z M27.7,66.2H35
		c1.4,3.8,3.3,7.1,5.6,9.5C35.4,73.8,31,70.5,27.7,66.2z M48.7,77.3c-4.2-0.8-8-5-10.5-11h10.5V77.3z M48.7,63.2H37.2
		c-1.2-3.8-1.9-8-2.1-12.5h13.6C48.7,50.7,48.7,63.2,48.7,63.2z M48.7,47.7H35.1c0.1-4.5,0.9-8.8,2.1-12.5h11.5
		C48.7,35.2,48.7,47.7,48.7,47.7z M48.7,32.2H38.2c2.5-6,6.3-10.2,10.5-11V32.2z M74.6,63.2h-8.2c1.1-3.8,1.7-8,1.9-12.5h10.1
		C78.1,55.3,76.7,59.5,74.6,63.2z M78.3,47.7H68.2c-0.1-4.5-0.8-8.8-1.9-12.5h8.2C76.7,38.9,78.1,43.2,78.3,47.7z M72.6,32.2h-7.2
		c-1.4-3.8-3.3-7.1-5.6-9.5C65,24.6,69.4,28,72.6,32.2z M51.7,21.2c4.2,0.8,8,5,10.5,11H51.7V21.2z M51.7,35.2h11.5
		c1.2,3.8,1.9,8,2.1,12.5H51.7V35.2z M51.7,50.7h13.6c-0.1,4.5-0.9,8.8-2.1,12.5H51.7V50.7z M51.7,77.3v-11h10.5
		C59.6,72.3,55.9,76.4,51.7,77.3z M59.8,75.7c2.3-2.4,4.2-5.6,5.6-9.5h7.2C69.4,70.5,65,73.8,59.8,75.7z"/>
	<path class="st0" d="M90.4,88H81l-9.5-9.8c-0.3-0.3-0.7-0.5-1.1-0.5h-2.8c-0.5,0-0.9,0.2-1.2,0.6c-0.3,0.4-0.4,0.8-0.2,1.3l2.4,8.4
		h-5.7l-2.1-3.8c-0.3-0.5-0.8-0.8-1.3-0.8h-3.2c-0.8,0-1.5,0.7-1.5,1.5v7c0,2.2,1.8,4,4,4h31.7c2.2,0,4-1.8,4-4
		C94.4,89.8,92.6,88,90.4,88z M90.4,93H58.7c-0.6,0-1-0.5-1-1v-5.6h0.9l2.1,3.8C61,90.7,61.5,91,62,91h8.6c0.5,0,0.9-0.2,1.2-0.6
		c0.3-0.4,0.4-0.8,0.2-1.3l-2.4-8.4h0.2l9.5,9.8c0.3,0.3,0.7,0.5,1.1,0.5h10.1c0.6,0,1,0.5,1,1C91.4,92.6,91,93,90.4,93z"/>
</g>
</svg>
