<?xml version="1.0" encoding="utf-8"?>
<!-- Generator: Adobe Illustrator 23.1.1, SVG Export Plug-In . SVG Version: 6.00 Build 0)  -->
<svg version="1.1" id="Layer_1" xmlns="http://www.w3.org/2000/svg" xmlns:xlink="http://www.w3.org/1999/xlink" x="0px" y="0px"
	 viewBox="0 0 100 100" style="enable-background:new 0 0 100 100;" xml:space="preserve">
<style type="text/css">
	.st0{fill:#C18A24;}
</style>
<g>
	<path class="st0" d="M75,13.3V7.6C75,6.7,74.3,6,73.4,6s-1.6,0.7-1.6,1.6v5.8H51.6V7.6C51.6,6.7,50.9,6,50,6s-1.6,0.7-1.6,1.6v5.8
		H28.1V7.6c0-0.9-0.7-1.6-1.6-1.6C25.7,6,25,6.7,25,7.6v5.8c-10.3,0-18.7,8.4-18.7,18.7v43.1C6.3,85.6,14.8,94,25.1,94h49.7
		c10.4,0,18.8-8.4,18.8-18.8V32.1C93.7,21.8,85.3,13.4,75,13.3z M90.6,75.2c0,8.7-7,15.7-15.7,15.7H25.1c-8.7,0-15.7-7-15.7-15.7
		V37.6H84c0.6,0,1-0.5,1-1c0-0.6-0.5-1-1-1H9.4v-3.4c0-8.6,7-15.6,15.6-15.7v5.9c0,0.9,0.7,1.6,1.6,1.6s1.6-0.7,1.6-1.6v-5.9h20.3
		v5.9c0,0.9,0.7,1.6,1.6,1.6c0.9,0,1.6-0.7,1.6-1.6v-5.9H72v5.9c0,0.9,0.7,1.6,1.6,1.6s1.6-0.7,1.6-1.6v-5.9
		c8.6,0.1,15.6,7.1,15.6,15.7v43H90.6z"/>
	<path class="st0" d="M63.5,46.3c-1.9,0-3.5,1.6-3.5,3.5s1.6,3.5,3.5,3.5s3.5-1.6,3.5-3.5C67,47.9,65.4,46.3,63.5,46.3z"/>
	<path class="st0" d="M50,46.3c-1.9,0-3.5,1.6-3.5,3.5s1.6,3.5,3.5,3.5s3.5-1.6,3.5-3.5C53.5,47.9,51.9,46.3,50,46.3z"/>
	<path class="st0" d="M77,46.3c-1.9,0-3.5,1.6-3.5,3.5s1.6,3.5,3.5,3.5s3.5-1.6,3.5-3.5C80.5,47.9,78.9,46.3,77,46.3z"/>
	<path class="st0" d="M23,60.6c-1.9,0-3.5,1.6-3.5,3.5s1.6,3.5,3.5,3.5s3.5-1.6,3.5-3.5C26.6,62.1,25,60.6,23,60.6z"/>
	<path class="st0" d="M50,60.6c-1.9,0-3.5,1.6-3.5,3.5s1.6,3.5,3.5,3.5s3.5-1.6,3.5-3.5C53.5,62.1,51.9,60.6,50,60.6z"/>
	<path class="st0" d="M36.5,56.5c-4.2,0-7.6,3.4-7.6,7.6s3.4,7.6,7.6,7.6s7.6-3.4,7.6-7.6S40.7,56.5,36.5,56.5z M36.5,67.6
		c-1.9,0-3.5-1.6-3.5-3.5s1.6-3.5,3.5-3.5s3.5,1.6,3.5,3.5S38.4,67.6,36.5,67.6z"/>
	<path class="st0" d="M63.5,60.6c-1.9,0-3.5,1.6-3.5,3.5s1.6,3.5,3.5,3.5S67,66,67,64.1C67,62.1,65.4,60.6,63.5,60.6z"/>
	<path class="st0" d="M77,60.6c-1.9,0-3.5,1.6-3.5,3.5s1.6,3.5,3.5,3.5s3.5-1.6,3.5-3.5C80.5,62.1,78.9,60.6,77,60.6z"/>
	<path class="st0" d="M23,74.8c-1.9,0-3.5,1.6-3.5,3.5s1.6,3.5,3.5,3.5s3.5-1.6,3.5-3.5C26.6,76.4,25,74.8,23,74.8z"/>
	<path class="st0" d="M36.5,74.8c-1.9,0-3.5,1.6-3.5,3.5s1.6,3.5,3.5,3.5s3.5-1.6,3.5-3.5S38.5,74.8,36.5,74.8z"/>
</g>
</svg>
