<?xml version="1.0" encoding="utf-8"?>
<!-- Generator: Adobe Illustrator 23.1.1, SVG Export Plug-In . SVG Version: 6.00 Build 0)  -->
<svg version="1.1" id="Layer_1" xmlns="http://www.w3.org/2000/svg" xmlns:xlink="http://www.w3.org/1999/xlink" x="0px" y="0px"
	 viewBox="0 0 100 100" style="enable-background:new 0 0 100 100;" xml:space="preserve">
<style type="text/css">
	.st0{fill:#240F6E;}
</style>
<g>
	<path class="st0" d="M21,53.2h42.8c0.1,0,0.1,0,0.2,0c7.5-0.2,13.5-6.4,13.5-13.9c0-7.7-6.2-13.9-13.9-13.9c-0.1,0-0.2,0-0.3,0
		c-0.9-4.1-4.6-7.2-8.9-7.2l0,0C51.6,12.1,45.4,8,38.6,8C29,8,21.2,15.8,21.2,25.4c-7.7-0.1-14.1,6.2-14.1,13.9
		C7.1,47,13.4,53.2,21,53.2z M21,28.5c0.5,0,1,0,1.6,0.1c0.5,0.1,0.9-0.1,1.3-0.4c0.3-0.3,0.5-0.8,0.5-1.3c-0.1-0.5-0.1-1-0.1-1.5
		c0-7.9,6.4-14.3,14.3-14.3c5.9,0,11.3,3.7,13.4,9.3c0.3,0.7,0.9,1.1,1.6,1c0.3,0,0.6-0.1,0.8-0.1c3.3,0,6,2.6,6.1,5.8
		c0,0.4,0.2,0.8,0.5,1.1c0.3,0.3,0.7,0.4,1.2,0.3s1-0.1,1.4-0.1c6,0,10.8,4.9,10.8,10.8S69.6,49.9,63.7,50h-0.1H21
		c-6,0-10.8-4.9-10.8-10.8S15.1,28.5,21,28.5z"/>
	<path class="st0" d="M58.1,17.4c0.5-0.2,1.1-0.2,1.6-0.1c0.7,0.1,1.4-0.3,1.6-1c1.3-3.5,4.7-5.8,8.4-5.8c5,0,9,4,9,9
		c0,0.3,0,0.6,0,0.9c0,0.5,0.1,0.9,0.5,1.3c0.3,0.3,0.8,0.5,1.3,0.4c0.4-0.1,0.7-0.1,1-0.1c3.7,0,6.7,3,6.7,6.7s-3,6.7-6.7,6.7
		c-0.8,0-1.5,0.7-1.5,1.5s0.7,1.5,1.5,1.5c5.4,0,9.7-4.4,9.7-9.7c0-5.2-4.2-9.5-9.3-9.7c-0.3-6.4-5.6-11.5-12-11.5
		c-4.6,0-8.8,2.7-10.8,6.8c-0.6,0-1.2,0.1-1.8,0.3c-0.8,0.3-1.2,1.1-1,1.9C56.4,17.2,57.3,17.7,58.1,17.4z"/>
	<path class="st0" d="M57,67.4c-0.4-0.7-1.4-1-2.1-0.6l-3,1.7V65c0-0.8-0.7-1.5-1.5-1.5s-1.5,0.7-1.5,1.5v3.5l-3-1.7
		c-0.7-0.4-1.7-0.2-2.1,0.6c-0.4,0.7-0.2,1.7,0.6,2.1l3,1.7l-3,1.7c-0.7,0.4-1,1.4-0.6,2.1c0.3,0.5,0.8,0.8,1.3,0.8
		c0.3,0,0.5-0.1,0.8-0.2l3-1.7v3.5c0,0.8,0.7,1.5,1.5,1.5s1.5-0.7,1.5-1.5v-3.5l3,1.7c0.2,0.1,0.5,0.2,0.8,0.2c0.5,0,1-0.3,1.3-0.8
		c0.4-0.7,0.2-1.7-0.6-2.1l-3-1.7l3-1.7C57.2,69.1,57.4,68.1,57,67.4z"/>
	<path class="st0" d="M69.8,56.9c-0.4-0.6-1.1-0.8-1.7-0.5l-0.7,0.4V56c0-0.7-0.6-1.3-1.3-1.3s-1.3,0.6-1.3,1.3v0.8l-0.7-0.4
		c-0.6-0.4-1.4-0.1-1.7,0.5c-0.4,0.6-0.1,1.4,0.5,1.7l0.7,0.4l-0.7,0.4c-0.6,0.4-0.8,1.1-0.5,1.7c0.2,0.4,0.7,0.6,1.1,0.6
		c0.2,0,0.4-0.1,0.6-0.2l0.7-0.4v0.8c0,0.7,0.6,1.3,1.3,1.3s1.3-0.6,1.3-1.3v-0.8l0.7,0.4c0.2,0.1,0.4,0.2,0.6,0.2
		c0.4,0,0.9-0.2,1.1-0.6c0.4-0.6,0.1-1.4-0.5-1.7L68.6,59l0.7-0.4C70,58.3,70.2,57.5,69.8,56.9z"/>
	<path class="st0" d="M20.5,80.4c-0.4-0.6-1.1-0.8-1.7-0.5L18,80.3v-0.8c0-0.7-0.6-1.3-1.3-1.3s-1.3,0.6-1.3,1.3v0.8l-0.7-0.4
		c-0.6-0.4-1.4-0.1-1.7,0.5c-0.4,0.6-0.1,1.4,0.5,1.7l0.7,0.4L13.5,83c-0.6,0.4-0.8,1.1-0.5,1.7c0.2,0.4,0.7,0.6,1.1,0.6
		c0.2,0,0.4-0.1,0.6-0.2l0.7-0.4v0.8c0,0.7,0.6,1.3,1.3,1.3s1.3-0.6,1.3-1.3v-0.8l0.7,0.4c0.2,0.1,0.4,0.2,0.6,0.2
		c0.4,0,0.9-0.2,1.1-0.6c0.4-0.6,0.1-1.4-0.5-1.7l-0.7-0.4l0.7-0.4C20.6,81.8,20.8,81,20.5,80.4z"/>
	<path class="st0" d="M45.7,81.7c-0.4-0.7-1.4-1-2.1-0.6l-3,1.7v-3.5c0-0.8-0.7-1.5-1.5-1.5s-1.5,0.7-1.5,1.5v3.5l-3-1.7
		c-0.7-0.4-1.7-0.2-2.1,0.6c-0.4,0.7-0.2,1.7,0.6,2.1l3,1.7l-3,1.7c-0.7,0.4-1,1.4-0.6,2.1c0.3,0.5,0.8,0.8,1.3,0.8
		c0.3,0,0.5-0.1,0.8-0.2l3-1.7v3.5c0,0.8,0.7,1.5,1.5,1.5s1.5-0.7,1.5-1.5v-3.5l3,1.7c0.2,0.1,0.5,0.2,0.8,0.2c0.5,0,1-0.3,1.3-0.8
		c0.4-0.7,0.2-1.7-0.6-2.1l-3-1.7l3-1.7C45.9,83.4,46.1,82.5,45.7,81.7z"/>
	<path class="st0" d="M45,58.4c-0.1,0-0.2-0.1-0.3-0.1c-0.5-0.1-1,0.1-1.4,0.4c-0.3,0.3-0.4,0.7-0.4,1.1c0,0.4,0.2,0.8,0.4,1.1
		c0.3,0.3,0.7,0.4,1.1,0.4c0.1,0,0.2,0,0.3,0s0.2,0,0.3-0.1c0.1,0,0.2-0.1,0.3-0.1c0.1-0.1,0.2-0.1,0.2-0.2c0.3-0.3,0.4-0.7,0.4-1.1
		c0-0.4-0.2-0.8-0.4-1.1c-0.1-0.1-0.2-0.1-0.2-0.2C45.2,58.4,45.1,58.4,45,58.4z"/>
	<path class="st0" d="M25.6,75.5c-0.1-0.1-0.2-0.1-0.3-0.1c-0.1,0-0.2-0.1-0.3-0.1c-0.2,0-0.4,0-0.6,0c-0.1,0-0.2,0.1-0.3,0.1
		c-0.1,0-0.2,0.1-0.3,0.1c-0.1,0.1-0.2,0.1-0.2,0.2c-0.3,0.3-0.4,0.7-0.4,1.1c0,0.1,0,0.2,0,0.3c0,0.1,0.1,0.2,0.1,0.3
		c0,0.1,0.1,0.2,0.1,0.3c0.1,0.1,0.1,0.2,0.2,0.2c0.1,0.1,0.2,0.1,0.2,0.2c0.1,0.1,0.2,0.1,0.3,0.1c0.1,0,0.2,0.1,0.3,0.1
		s0.2,0,0.3,0c0.1,0,0.2,0,0.3,0c0.1,0,0.2,0,0.3-0.1c0.1,0,0.2-0.1,0.3-0.1c0.1-0.1,0.2-0.1,0.2-0.2c0.1-0.1,0.1-0.1,0.2-0.2
		s0.1-0.2,0.1-0.3c0-0.1,0.1-0.2,0.1-0.3c0-0.1,0-0.2,0-0.3c0-0.4-0.2-0.8-0.4-1.1C25.7,75.6,25.6,75.6,25.6,75.5z"/>
	<path class="st0" d="M22.1,66.1c0-0.1-0.1-0.2-0.1-0.3c-0.1-0.1-0.1-0.2-0.2-0.2c-0.1-0.1-0.1-0.1-0.2-0.2s-0.2-0.1-0.3-0.1
		c-0.1,0-0.2-0.1-0.3-0.1c-0.5-0.1-1,0.1-1.4,0.4c-0.1,0.1-0.1,0.2-0.2,0.2c-0.1,0.1-0.1,0.2-0.1,0.3s-0.1,0.2-0.1,0.3
		c0,0.1,0,0.2,0,0.3c0,0.4,0.2,0.8,0.4,1.1c0.3,0.3,0.7,0.4,1.1,0.4c0.1,0,0.2,0,0.3,0c0.1,0,0.2,0,0.3-0.1c0.1,0,0.2-0.1,0.3-0.1
		c0.1-0.1,0.2-0.1,0.2-0.2c0.3-0.3,0.4-0.7,0.4-1.1c0-0.1,0-0.2,0-0.3C22.1,66.2,22.1,66.2,22.1,66.1z"/>
	<path class="st0" d="M7.4,69.6C7.1,69.9,7,70.3,7,70.7c0,0.1,0,0.2,0,0.3c0,0.1,0.1,0.2,0.1,0.3c0,0.1,0.1,0.2,0.1,0.3
		c0.1,0.1,0.1,0.2,0.2,0.2c0.3,0.3,0.7,0.4,1.1,0.4c0.4,0,0.8-0.2,1.1-0.4c0.1-0.1,0.1-0.1,0.2-0.2c0.1-0.1,0.1-0.2,0.1-0.3
		c0-0.1,0.1-0.2,0.1-0.3c0-0.1,0-0.2,0-0.3c0-0.4-0.2-0.8-0.4-1.1C9,69.1,8,69.1,7.4,69.6z"/>
	<path class="st0" d="M37.5,72.6c-0.1-0.1-0.1-0.2-0.2-0.2c-0.1-0.1-0.2-0.1-0.2-0.2c-0.1-0.1-0.2-0.1-0.3-0.1S36.6,72,36.5,72
		c-0.2,0-0.4,0-0.6,0c-0.1,0-0.2,0-0.3,0.1c-0.1,0-0.2,0.1-0.3,0.1c-0.1,0.1-0.2,0.1-0.2,0.2c-0.1,0.1-0.1,0.2-0.2,0.2
		c-0.1,0.1-0.1,0.2-0.1,0.3c0,0.1-0.1,0.2-0.1,0.3c0,0.1,0,0.2,0,0.3c0,0.4,0.2,0.8,0.4,1.1c0.3,0.3,0.7,0.4,1.1,0.4
		c0.4,0,0.8-0.2,1.1-0.4c0.3-0.3,0.4-0.7,0.4-1.1c0-0.1,0-0.2,0-0.3c0-0.1-0.1-0.2-0.1-0.3C37.6,72.8,37.6,72.7,37.5,72.6z"/>
	<path class="st0" d="M63.2,71.9c0-0.1-0.1-0.2-0.1-0.3c-0.1-0.1-0.1-0.2-0.2-0.2c-0.6-0.6-1.6-0.6-2.2,0c-0.3,0.3-0.4,0.7-0.4,1.1
		s0.2,0.8,0.4,1.1c0.3,0.3,0.7,0.4,1.1,0.4c0.4,0,0.8-0.2,1.1-0.4c0.3-0.3,0.4-0.7,0.4-1.1c0-0.1,0-0.2,0-0.3
		C63.2,72.1,63.2,72,63.2,71.9z"/>
	<path class="st0" d="M69.2,77c0-0.1-0.1-0.2-0.1-0.3c-0.1-0.1-0.1-0.2-0.2-0.2c-0.6-0.6-1.6-0.6-2.2,0c-0.1,0.1-0.1,0.2-0.2,0.2
		c-0.1,0.1-0.1,0.2-0.1,0.3c0,0.1-0.1,0.2-0.1,0.3c0,0.1,0,0.2,0,0.3c0,0.1,0,0.2,0,0.3c0,0.1,0.1,0.2,0.1,0.3
		c0,0.1,0.1,0.2,0.1,0.3c0.1,0.1,0.1,0.2,0.2,0.2c0.3,0.3,0.7,0.4,1.1,0.4s0.8-0.2,1.1-0.4c0.1-0.1,0.1-0.1,0.2-0.2s0.1-0.2,0.1-0.3
		c0-0.1,0.1-0.2,0.1-0.3c0-0.1,0-0.2,0-0.3c0-0.1,0-0.2,0-0.3C69.3,77.2,69.3,77.1,69.2,77z"/>
	<path class="st0" d="M60.8,83.3c0-0.1-0.1-0.2-0.1-0.3c-0.1-0.1-0.1-0.2-0.2-0.2c-0.1-0.1-0.2-0.1-0.2-0.2
		c-0.1-0.1-0.2-0.1-0.3-0.1s-0.2-0.1-0.3-0.1c-0.2,0-0.4,0-0.6,0c-0.1,0-0.2,0-0.3,0.1c-0.1,0-0.2,0.1-0.3,0.1
		c-0.1,0.1-0.2,0.1-0.2,0.2c-0.1,0.1-0.1,0.1-0.2,0.2C58,83.1,58,83.2,58,83.3c0,0.1-0.1,0.2-0.1,0.3c0,0.1,0,0.2,0,0.3
		c0,0.1,0,0.2,0,0.3s0.1,0.2,0.1,0.3c0,0.1,0.1,0.2,0.1,0.3c0.1,0.1,0.1,0.2,0.2,0.2c0.3,0.3,0.7,0.4,1.1,0.4c0.1,0,0.2,0,0.3,0
		s0.2-0.1,0.3-0.1s0.2-0.1,0.3-0.1c0.1-0.1,0.2-0.1,0.2-0.2c0.3-0.3,0.4-0.7,0.4-1.1c0-0.1,0-0.2,0-0.3
		C60.9,83.5,60.9,83.4,60.8,83.3z"/>
	<path class="st0" d="M14.1,60.1c0-0.4-0.2-0.8-0.4-1.1c-0.6-0.6-1.6-0.6-2.2,0c-0.3,0.3-0.4,0.7-0.4,1.1c0,0.4,0.2,0.8,0.4,1.1
		c0.3,0.3,0.7,0.4,1.1,0.4c0.4,0,0.8-0.2,1.1-0.4C13.9,60.9,14.1,60.5,14.1,60.1z"/>
	<path class="st0" d="M54.1,58.4c-0.1,0-0.2-0.1-0.3-0.1c-0.5-0.1-1,0.1-1.4,0.4c-0.1,0.1-0.1,0.2-0.2,0.2c-0.1,0.1-0.1,0.2-0.1,0.3
		S52,59.4,52,59.5s0,0.2,0,0.3s0,0.2,0,0.3s0.1,0.2,0.1,0.3s0.1,0.2,0.1,0.3c0.1,0.1,0.1,0.2,0.2,0.2c0.3,0.3,0.7,0.4,1.1,0.4
		c0.1,0,0.2,0,0.3,0s0.2-0.1,0.3-0.1s0.2-0.1,0.3-0.1c0.1-0.1,0.2-0.1,0.2-0.2c0.1-0.1,0.1-0.2,0.2-0.2c0.1-0.1,0.1-0.2,0.1-0.3
		s0.1-0.2,0.1-0.3s0-0.2,0-0.3c0-0.4-0.2-0.8-0.4-1.1c-0.1-0.1-0.2-0.1-0.2-0.2C54.2,58.4,54.2,58.4,54.1,58.4z"/>
	<path class="st0" d="M87.7,74.6V53.1c0-2.8-2.3-5.1-5.1-5.1c-2.8,0-5.1,2.3-5.1,5.1v21.5c-3.1,1.8-5,5.1-5,8.7
		c0,5.6,4.5,10.1,10.1,10.1s10.1-4.5,10.1-10.1C92.7,79.7,90.8,76.4,87.7,74.6z M82.6,90.4c-3.9,0-7.1-3.2-7.1-7.1
		c0-2.7,1.6-5.3,4.1-6.4c0.5-0.2,0.9-0.8,0.9-1.4v-8.8h0.6c0.8,0,1.5-0.7,1.5-1.5s-0.7-1.5-1.5-1.5h-0.6v-1.4h0.6
		c0.8,0,1.5-0.7,1.5-1.5s-0.7-1.5-1.5-1.5h-0.6v-1.4h0.6c0.8,0,1.5-0.7,1.5-1.5s-0.7-1.5-1.5-1.5h-0.6v-1.7c0-1.1,0.9-2.1,2.1-2.1
		c1.1,0,2.1,0.9,2.1,2.1v22.4c0,0.6,0.3,1.1,0.9,1.4c2.5,1.2,4.1,3.7,4.1,6.4C89.7,87.2,86.5,90.4,82.6,90.4z"/>
	<path class="st0" d="M26.1,26.4c0.1,0.8,0.7,1.4,1.5,1.4c0.1,0,0.1,0,0.2,0c0.8-0.1,1.4-0.8,1.4-1.7v-0.3c0-0.1,0-0.1,0-0.3
		c0-0.8-0.7-1.5-1.5-1.5s-1.5,0.7-1.5,1.5c0,0.4,0,0.5,0,0.7L26.1,26.4z"/>
	<path class="st0" d="M27.9,22.1c0.2,0.1,0.4,0.1,0.6,0.1c0.6,0,1.1-0.3,1.4-0.9c1.5-3.3,4.8-5.5,8.4-5.5c0.8,0,1.5-0.7,1.5-1.5
		s-0.7-1.5-1.5-1.5c-4.8,0-9.2,2.8-11.2,7.2C26.7,20.9,27.1,21.8,27.9,22.1z"/>
	<path class="st0" d="M15.7,38.6c0-2.4,2-4.4,4.4-4.4c0.8,0,1.5-0.7,1.5-1.5s-0.7-1.5-1.5-1.5c-4.1,0-7.4,3.3-7.4,7.4
		c0,0.8,0.7,1.5,1.5,1.5S15.7,39.5,15.7,38.6z"/>
	<path class="st0" d="M82.5,86.5C80.6,86.5,79,85,79,83c0-0.7-0.6-1.3-1.3-1.3c-0.7,0-1.3,0.6-1.3,1.3c0,3.3,2.7,6.1,6.1,6.1
		c0.7,0,1.3-0.6,1.3-1.3S83.2,86.5,82.5,86.5z"/>
</g>
</svg>
