<?xml version="1.0" encoding="utf-8"?>
<!-- Generator: Adobe Illustrator 23.1.1, SVG Export Plug-In . SVG Version: 6.00 Build 0)  -->
<svg version="1.1" id="Layer_1" xmlns="http://www.w3.org/2000/svg" xmlns:xlink="http://www.w3.org/1999/xlink" x="0px" y="0px"
	 viewBox="0 0 194 82" style="enable-background:new 0 0 194 82;" xml:space="preserve">
<style type="text/css">
	.st0{fill:#FFFFFF;}
</style>
<g>
	<path class="st0" d="M89.2,66.6c0.1,0,0.2,0,0.4,0.1l0.2-0.5C89.6,66.1,89.3,66,89,66c-0.6,0-1,0.3-1,1c0,0.3,0,0.5,0,0.5h-0.3V68
		H88v2.9h0.7V68h0.7l0.2-0.5h-0.9V67C88.8,66.7,88.9,66.6,89.2,66.6z"/>
	<path class="st0" d="M90.8,68c0-0.2,0-0.4-0.1-0.5L90,67.6c0.1,0.2,0.1,0.5,0.1,0.9v2.4h0.7v-2.3c0.1-0.3,0.3-0.5,0.6-0.5
		c0.1,0,0.1,0,0.2,0l0.2-0.7c-0.1,0-0.2-0.1-0.3-0.1C91.4,67.5,91.1,67.6,90.8,68z"/>
	<path class="st0" d="M93.6,67.5c-0.9,0-1.5,0.7-1.5,1.8s0.6,1.8,1.5,1.8s1.5-0.7,1.5-1.8S94.6,67.5,93.6,67.5z M93.6,70.5
		c-0.4,0-0.7-0.3-0.7-1.3c0-0.8,0.2-1.2,0.7-1.2c0.4,0,0.7,0.3,0.7,1.2C94.3,70.1,94.1,70.5,93.6,70.5z"/>
	<path class="st0" d="M99.4,67.5c-0.4,0-0.7,0.2-1,0.5c-0.2-0.4-0.5-0.5-0.8-0.5s-0.6,0.2-0.9,0.4c0-0.2-0.1-0.3-0.1-0.4l-0.7,0.2
		c0.1,0.2,0.1,0.4,0.1,0.9V71h0.7v-2.5c0.2-0.2,0.5-0.3,0.7-0.3c0.3,0,0.4,0.1,0.4,0.5V71h0.7v-2.5c0.2-0.2,0.5-0.4,0.7-0.4
		c0.3,0,0.3,0.1,0.3,0.5v2.3h0.7v-2.5C100.3,67.8,99.9,67.5,99.4,67.5z"/>
	<polygon class="st0" points="106.1,66.3 105.2,66.3 103.7,68.5 105.2,70.9 106.2,70.9 104.5,68.5 	"/>
	<rect x="102.9" y="66.3" class="st0" width="0.8" height="4.6"/>
	<path class="st0" d="M109,69.8v-1c0-0.5,0-0.7-0.1-0.8c-0.1-0.4-0.5-0.6-1-0.6s-0.9,0.1-1.4,0.5l0.3,0.5c0.1-0.1,0.6-0.4,1-0.4
		s0.5,0.2,0.5,0.6v0.2h-0.2c-1.1,0-1.7,0.4-1.7,1.2c0,0.6,0.3,1,1.1,1c0.4,0,0.7-0.1,0.9-0.4c0.1,0.2,0.3,0.4,0.5,0.5l0.4-0.5
		C109.1,70.4,109,70.3,109,69.8z M108.3,70.1c-0.1,0.2-0.4,0.4-0.6,0.4c-0.3,0-0.5-0.2-0.5-0.5c0-0.4,0.2-0.6,1-0.6h0.1V70.1z"/>
	<path class="st0" d="M111.7,67.5c-0.4,0-0.7,0.1-0.9,0.4c0-0.2,0-0.3-0.1-0.4l-0.7,0.1c0,0.2,0.1,0.4,0.1,0.8v3.9l0.7-0.2V71
		c0-0.2,0-0.3,0-0.3c0.2,0.2,0.5,0.3,0.8,0.3c0.9,0,1.3-0.7,1.3-1.8C113,68,112.4,67.5,111.7,67.5z M111.5,70.4
		c-0.2,0-0.5-0.1-0.6-0.3v-1.7c0.2-0.2,0.4-0.3,0.7-0.3c0.5,0,0.6,0.4,0.6,1.2C112.2,70.1,112,70.4,111.5,70.4z"/>
	<path class="st0" d="M114.7,70.4c-0.1-0.1-0.1-0.2-0.1-0.6V67c0-0.4,0-0.7-0.1-0.9l-0.8,0.2c0,0.3,0.1,0.5,0.1,1v2.9
		c0,0.3,0,1,0.7,1c0.2,0,0.3,0,0.4-0.1l-0.1-0.5C114.9,70.5,114.8,70.5,114.7,70.4z"/>
	<path class="st0" d="M118.1,69.8v-1c0-0.5,0-0.7-0.1-0.8c-0.1-0.4-0.5-0.6-1-0.6s-0.9,0.1-1.4,0.5l0.3,0.5c0.1-0.1,0.6-0.4,1-0.4
		s0.5,0.2,0.5,0.6v0.2h-0.2c-1.1,0-1.7,0.4-1.7,1.2c0,0.6,0.3,1,1.1,1c0.4,0,0.7-0.1,0.9-0.4c0.1,0.2,0.3,0.4,0.5,0.5l0.4-0.5
		C118.2,70.4,118.1,70.3,118.1,69.8z M117.4,70.1c-0.1,0.2-0.4,0.4-0.6,0.4c-0.3,0-0.5-0.2-0.5-0.5c0-0.4,0.2-0.6,1-0.6h0.1V70.1z"
		/>
	<path class="st0" d="M121,67.5c-0.4,0-0.7,0.2-1,0.5c0-0.2,0-0.3-0.1-0.5l-0.7,0.2c0.1,0.2,0.1,0.4,0.1,0.8V71h0.7v-2.4
		c0.2-0.2,0.5-0.4,0.7-0.4c0.3,0,0.4,0.1,0.4,0.6V71h0.7v-2.5C121.8,67.8,121.5,67.5,121,67.5z"/>
	<rect x="124.5" y="66.3" class="st0" width="0.8" height="4.6"/>
	<path class="st0" d="M128.1,67.5c-0.4,0-0.7,0.2-1,0.5c0-0.2,0-0.3-0.1-0.5l-0.7,0.2c0.1,0.2,0.1,0.4,0.1,0.8V71h0.7v-2.4
		c0.2-0.2,0.5-0.4,0.7-0.4c0.3,0,0.4,0.1,0.4,0.6V71h0.7v-2.5C129,67.8,128.6,67.5,128.1,67.5z"/>
	<path class="st0" d="M131.2,70.5c-0.3,0-0.4-0.1-0.4-0.5v-1.9h0.6l0.2-0.5h-0.8c0-0.3,0-0.7,0.1-1l-0.8,0.2c0,0.3,0,0.5,0,0.8h-0.4
		v0.5h0.4v2.1c0,0.5,0.2,0.9,0.9,0.9c0.2,0,0.4,0,0.7-0.1l-0.1-0.4C131.4,70.5,131.3,70.5,131.2,70.5z"/>
	<path class="st0" d="M133.5,67.5c-0.4,0-0.8,0.1-1,0.5c-0.3,0.3-0.4,0.7-0.4,1.3c0,1.1,0.6,1.8,1.6,1.8c0.5,0,0.9-0.1,1.2-0.4
		l-0.3-0.4c-0.3,0.2-0.5,0.3-0.8,0.3c-0.7,0-0.8-0.5-0.8-1v-0.1h2v-0.2c0-0.8-0.1-1.2-0.4-1.5C134.2,67.6,133.9,67.5,133.5,67.5z
		 M132.9,68.9c0-0.5,0.2-0.9,0.6-0.9c0.4,0,0.6,0.3,0.6,0.9H132.9z"/>
	<path class="st0" d="M136.5,68c0-0.2,0-0.4-0.1-0.5l-0.7,0.2c0.1,0.2,0.1,0.5,0.1,0.9V71h0.7v-2.3c0.1-0.3,0.3-0.5,0.6-0.5
		c0.1,0,0.1,0,0.2,0l0.2-0.7c-0.1,0-0.2-0.1-0.3-0.1C137,67.5,136.7,67.6,136.5,68z"/>
	<path class="st0" d="M139.8,67.5c-0.4,0-0.7,0.2-1,0.5c0-0.2,0-0.3-0.1-0.5l-0.7,0.2c0.1,0.2,0.1,0.4,0.1,0.8V71h0.7v-2.4
		c0.2-0.2,0.5-0.4,0.7-0.4c0.3,0,0.4,0.1,0.4,0.6V71h0.7v-2.5C140.7,67.8,140.3,67.5,139.8,67.5z"/>
	<path class="st0" d="M144.1,69.8v-1c0-0.5,0-0.7-0.1-0.8c-0.1-0.4-0.5-0.6-1-0.6s-0.9,0.1-1.4,0.5l0.3,0.5c0.1-0.1,0.6-0.4,1-0.4
		s0.5,0.2,0.5,0.6v0.2h-0.2c-1.1,0-1.7,0.4-1.7,1.2c0,0.6,0.3,1,1.1,1c0.4,0,0.7-0.1,0.9-0.4c0.1,0.2,0.3,0.4,0.5,0.5l0.4-0.5
		C144.1,70.4,144.1,70.3,144.1,69.8z M143.4,70.1c-0.1,0.2-0.4,0.4-0.6,0.4c-0.3,0-0.5-0.2-0.5-0.5c0-0.4,0.2-0.6,1-0.6h0.1V70.1z"
		/>
	<path class="st0" d="M146.4,70.5c-0.3,0-0.4-0.1-0.4-0.5v-1.9h0.6l0.2-0.5H146c0-0.3,0-0.7,0.1-1l-0.8,0.2c0,0.3,0,0.5,0,0.8h-0.4
		v0.5h0.4v2.1c0,0.5,0.2,0.9,0.9,0.9c0.2,0,0.4,0,0.7-0.1l-0.1-0.4C146.6,70.5,146.5,70.5,146.4,70.5z"/>
	<polygon class="st0" points="147.5,70.9 148.3,70.9 148.3,67.5 147.5,67.6 	"/>
	<path class="st0" d="M147.9,66.1c-0.3,0-0.5,0.2-0.5,0.5s0.2,0.5,0.5,0.5s0.5-0.2,0.5-0.5C148.4,66.3,148.2,66.1,147.9,66.1z"/>
	<path class="st0" d="M150.6,67.5c-0.9,0-1.5,0.7-1.5,1.8s0.6,1.8,1.5,1.8s1.5-0.7,1.5-1.8S151.6,67.5,150.6,67.5z M150.7,70.5
		c-0.4,0-0.7-0.3-0.7-1.3c0-0.8,0.2-1.2,0.7-1.2c0.4,0,0.7,0.3,0.7,1.2C151.3,70.1,151.1,70.5,150.7,70.5z"/>
	<path class="st0" d="M154.7,67.5c-0.4,0-0.7,0.2-1,0.5c0-0.2,0-0.3-0.1-0.5l-0.7,0.2c0.1,0.2,0.1,0.4,0.1,0.8V71h0.7v-2.4
		c0.2-0.2,0.5-0.4,0.7-0.4c0.3,0,0.4,0.1,0.4,0.6V71h0.7v-2.5C155.6,67.8,155.2,67.5,154.7,67.5z"/>
	<path class="st0" d="M159,69.8v-1c0-0.5,0-0.7-0.1-0.8c-0.1-0.4-0.5-0.6-1-0.6s-0.9,0.1-1.4,0.5l0.3,0.5c0.1-0.1,0.6-0.4,1-0.4
		s0.5,0.2,0.5,0.6v0.2h-0.2c-1.1,0-1.7,0.4-1.7,1.2c0,0.6,0.3,1,1.1,1c0.4,0,0.7-0.1,0.9-0.4c0.1,0.2,0.3,0.4,0.5,0.5l0.4-0.5
		C159.1,70.4,159,70.3,159,69.8z M158.3,70.1c-0.1,0.2-0.4,0.4-0.6,0.4c-0.3,0-0.5-0.2-0.5-0.5c0-0.4,0.2-0.6,1-0.6h0.1V70.1z"/>
	<path class="st0" d="M161,70.4c-0.1-0.1-0.1-0.2-0.1-0.6V67c0-0.4,0-0.7-0.1-0.9l-0.8,0.2c0,0.3,0.1,0.5,0.1,1v2.9c0,0.3,0,1,0.7,1
		c0.2,0,0.3,0,0.4-0.1l-0.1-0.5C161.1,70.5,161,70.5,161,70.4z"/>
	<polygon class="st0" points="164.2,66.3 163.4,66.3 163.4,70.9 165.8,70.9 165.9,70.3 164.2,70.3 	"/>
	<path class="st0" d="M169,69.8v-1c0-0.5,0-0.7-0.1-0.8c-0.1-0.4-0.5-0.6-1-0.6s-0.9,0.1-1.4,0.5l0.3,0.5c0.1-0.1,0.6-0.4,1-0.4
		s0.5,0.2,0.5,0.6v0.2H168c-1.1,0-1.7,0.4-1.7,1.2c0,0.6,0.3,1,1.1,1c0.4,0,0.7-0.1,0.9-0.4c0.1,0.2,0.3,0.4,0.5,0.5l0.4-0.5
		C169,70.4,168.9,70.3,169,69.8z M168.2,70.1c-0.1,0.2-0.4,0.4-0.6,0.4c-0.3,0-0.5-0.2-0.5-0.5c0-0.4,0.2-0.6,1-0.6h0.1V70.1z"/>
	<path class="st0" d="M171.8,67.5c-0.4,0-0.7,0.2-1,0.5c0-0.2,0-0.3-0.1-0.5l-0.7,0.2c0.1,0.2,0.1,0.4,0.1,0.8V71h0.7v-2.4
		c0.2-0.2,0.5-0.4,0.7-0.4c0.3,0,0.4,0.1,0.4,0.6V71h0.7v-2.5C172.7,67.8,172.3,67.5,171.8,67.5z"/>
	<path class="st0" d="M176.9,67.9l-0.3-0.5c-0.2,0.2-0.4,0.2-0.6,0.2c-0.3,0-0.5-0.2-1-0.2c-0.8,0-1.3,0.5-1.3,1.1
		c0,0.5,0.3,0.8,0.8,1c-0.4,0.1-0.6,0.2-0.6,0.6c0,0.3,0.2,0.5,1.1,0.5c0.6,0,0.9,0.1,0.9,0.5c0,0.3-0.3,0.5-0.8,0.5
		s-0.7-0.2-0.7-0.5c0-0.1,0-0.2,0.1-0.2h-0.7c0,0-0.1,0.2-0.1,0.4c0,0.6,0.6,0.9,1.5,0.9s1.5-0.4,1.5-1.1s-0.6-1-1.1-1
		c-0.8,0-0.8,0-0.8-0.1s0.2-0.2,0.5-0.3c0.8,0,1.3-0.4,1.3-1c0-0.3-0.2-0.6-0.2-0.6s0.1,0,0.3,0C176.6,68.1,176.8,68,176.9,67.9z
		 M175,69.2c-0.4,0-0.6-0.2-0.6-0.6s0.2-0.6,0.6-0.6c0.4,0,0.6,0.2,0.6,0.6C175.5,69,175.3,69.2,175,69.2z"/>
	<path class="st0" d="M180,67.5l-0.7,0.1V70c-0.1,0.2-0.4,0.4-0.7,0.4c-0.4,0-0.5-0.3-0.5-0.7v-2.3l-0.7,0.1v2.3
		c0,0.4,0.1,0.6,0.2,0.8c0.2,0.2,0.5,0.3,0.8,0.3c0.4,0,0.7-0.1,1-0.4c0.1,0.2,0.1,0.3,0.3,0.4l0.5-0.3c0,0-0.2-0.2-0.2-0.7
		L180,67.5L180,67.5z"/>
	<path class="st0" d="M183.5,69.8v-1c0-0.5,0-0.7-0.1-0.8c-0.1-0.4-0.5-0.6-1-0.6s-0.9,0.1-1.4,0.5l0.3,0.5c0.1-0.1,0.6-0.4,1-0.4
		s0.5,0.2,0.5,0.6v0.2h-0.2c-1.1,0-1.7,0.4-1.7,1.2c0,0.6,0.3,1,1.1,1c0.4,0,0.7-0.1,0.9-0.4c0.1,0.2,0.3,0.4,0.5,0.5l0.4-0.5
		C183.5,70.4,183.5,70.3,183.5,69.8z M182.8,70.1c-0.1,0.2-0.4,0.4-0.6,0.4c-0.3,0-0.5-0.2-0.5-0.5c0-0.4,0.2-0.6,1-0.6h0.1V70.1z"
		/>
	<path class="st0" d="M187.8,67.9l-0.3-0.5c-0.2,0.2-0.4,0.2-0.6,0.2c-0.3,0-0.5-0.2-1-0.2c-0.8,0-1.3,0.5-1.3,1.1
		c0,0.5,0.3,0.8,0.8,1c-0.4,0.1-0.6,0.2-0.6,0.6c0,0.3,0.2,0.5,1.1,0.5c0.6,0,0.9,0.1,0.9,0.5c0,0.3-0.3,0.5-0.8,0.5
		s-0.7-0.2-0.7-0.5c0-0.1,0-0.2,0.1-0.2h-0.7c0,0-0.1,0.2-0.1,0.4c0,0.6,0.6,0.9,1.5,0.9s1.5-0.4,1.5-1.1s-0.6-1-1.1-1
		c-0.8,0-0.8,0-0.8-0.1s0.2-0.2,0.5-0.3c0.8,0,1.3-0.4,1.3-1c0-0.3-0.2-0.6-0.2-0.6s0.1,0,0.3,0C187.4,68.1,187.6,68,187.8,67.9z
		 M185.8,69.2c-0.4,0-0.6-0.2-0.6-0.6s0.2-0.6,0.6-0.6c0.4,0,0.6,0.2,0.6,0.6C186.3,69,186.1,69.2,185.8,69.2z"/>
	<path class="st0" d="M189.4,67.5c-0.4,0-0.8,0.1-1,0.5c-0.3,0.3-0.4,0.7-0.4,1.3c0,1.1,0.6,1.8,1.6,1.8c0.5,0,0.9-0.1,1.2-0.4
		l-0.3-0.4c-0.3,0.2-0.5,0.3-0.8,0.3c-0.7,0-0.8-0.5-0.8-1v-0.1h2v-0.2c0-0.8-0.1-1.2-0.4-1.5C190.1,67.6,189.8,67.5,189.4,67.5z
		 M188.8,68.9c0-0.5,0.2-0.9,0.6-0.9c0.4,0,0.6,0.3,0.6,0.9H188.8z"/>
	<path class="st0" d="M193.1,68.9l-0.4-0.1c-0.3-0.1-0.5-0.2-0.5-0.4c0-0.3,0.2-0.4,0.5-0.4s0.5,0.1,0.8,0.2l0.2-0.5
		c-0.3-0.2-0.7-0.3-1.1-0.3c-0.7,0-1.3,0.4-1.3,1.1c0,0.5,0.3,0.8,0.8,0.9l0.4,0.1c0.4,0.1,0.5,0.2,0.5,0.5s-0.2,0.5-0.5,0.5
		c-0.4,0-0.8-0.2-1.1-0.4l-0.3,0.5c0.4,0.2,0.9,0.4,1.3,0.4c0.8,0,1.4-0.5,1.4-1.1C194,69.5,193.8,69.1,193.1,68.9z"/>
	<path class="st0" d="M93,13.4h5.9l1.2,3.1h4.3L98.1,0.4h-4.3l-6.2,16.1h4.2L93,13.4z M95.9,5.4l1.7,4.5h-3.3L95.9,5.4z"/>
	<polygon class="st0" points="116.9,12.9 109.7,12.9 109.7,0.4 105.4,0.4 105.4,16.6 116.9,16.6 	"/>
	<path class="st0" d="M134.5,16.6l1.1-3.1h5.9l1.2,3.1h4.3l-6.2-16.1h-4.3l-6.2,16.1H134.5z M138.6,5.4l1.7,4.5H137L138.6,5.4z"/>
	<rect x="164.1" y="0.4" class="st0" width="4.2" height="16.1"/>
	<path class="st0" d="M174.7,13.4h5.9l1.2,3.1h4.3l-6.2-16.1h-4.3l-6.2,16.1h4.2L174.7,13.4z M177.7,5.4l1.7,4.5H176L177.7,5.4z"/>
	<polygon class="st0" points="88.7,23.3 88.7,38.4 98.1,38.4 98.1,37.2 89.9,37.2 89.9,23.3 	"/>
	<path class="st0" d="M99.7,38.4h1.2l1.9-4.9h6.7l2,4.9h1.2l-5.9-15h-1.2L99.7,38.4z M109.1,32.3h-5.8l2.9-7.3L109.1,32.3z"/>
	<polygon class="st0" points="124.7,35.9 115.9,23.3 114.7,23.3 114.7,38.4 115.9,38.4 115.9,25.3 125.1,38.4 125.9,38.4 
		125.9,23.3 124.7,23.3 	"/>
	<path class="st0" d="M155.7,38.4h1.2l1.9-4.9h6.7l2,4.9h1.2l-5.9-15h-1.2L155.7,38.4z M165.1,32.3h-5.8l2.9-7.3L165.1,32.3z"/>
	<polygon class="st0" points="193.9,24.5 193.9,23.3 184.5,23.3 184.5,38.4 193.9,38.4 193.9,37.2 185.8,37.2 185.8,31.2 
		193.1,31.2 193.1,30 185.8,30 185.8,24.5 	"/>
	<polygon class="st0" points="124.9,51.3 115.4,51.3 115.4,44.6 114.2,44.6 114.2,59.6 115.4,59.6 115.4,52.4 124.9,52.4 
		124.9,59.6 126.2,59.6 126.2,44.6 124.9,44.6 	"/>
	<polygon class="st0" points="169.1,58.5 161,58.5 161,44.6 159.7,44.6 159.7,59.6 169.1,59.6 	"/>
	<path class="st0" d="M0,46.5C0,66,15.9,81.8,35.4,81.8s35.4-15.9,35.4-35.4V0H0V46.5z M3.9,47.6l10.4-12.9l20.1,24.4l0,0L21.7,74.8
		C11.5,69.9,4.4,59.6,3.9,47.6z M23.7,39.8l13.4-16.1l13.2,16.2L37.1,56L23.7,39.8z M66.8,46.5c0,17.3-14.1,31.4-31.4,31.4
		c-3.4,0-6.7-0.6-9.8-1.6l34.3-42l6.9,6.9V46.5z M3.9,3.9h62.9v31.9l-7.2-7.2l-6.8,8.3L37.1,17.5l-16,19.2l-6.8-8.2L3.9,41.4V3.9z"
		/>
	<path class="st0" d="M122.5,11.5h2.9c3.5,0,5.9-2,5.9-5.5c0-3.6-2.4-5.6-5.9-5.6h-7.1v16.1h4.2V11.5z M122.5,4h2.4
		c1.5,0,2.2,0.8,2.2,2s-0.7,2-2.2,2h-2.4V4z"/>
	<path class="st0" d="M162.3,8.5c0-4.9-3.1-8.1-8.1-8.1h-6.1v16.1h6.1C159.2,16.6,162.3,13.4,162.3,8.5z M152.2,12.9V4h1.7
		c2.7,0,4.2,1.7,4.2,4.4s-1.5,4.4-4.2,4.4h-1.7V12.9z"/>
	<path class="st0" d="M135.3,24.3c2.3,0,3.7,1.2,4.4,3.1h1.2c-0.6-2.6-2.7-4.3-5.7-4.3c-3.7,0-6.7,3-6.7,7.7s3,7.7,6.7,7.7
		c3.6,0,6-2.5,6-6.4v-0.9h-5.1v1.1h3.9c-0.1,3.2-1.8,5-4.8,5c-3.2,0-5.5-2.5-5.5-6.6C129.8,26.8,132.1,24.3,135.3,24.3z"/>
	<path class="st0" d="M143.7,23.3v9.1c0,4.1,2.5,6.1,5.7,6.1s5.8-2,5.8-6.1v-9.1H154v8.9c0,3.5-1.9,5.2-4.5,5.2s-4.5-1.6-4.5-5.2
		v-8.9C145,23.3,143.7,23.3,143.7,23.3z"/>
	<path class="st0" d="M175.9,38.6c3.6,0,6-2.5,6-6.4v-0.9h-5.1v1.1h3.9c-0.1,3.2-1.8,5-4.8,5c-3.2,0-5.5-2.5-5.5-6.6
		s2.3-6.6,5.4-6.6c2.3,0,3.7,1.2,4.4,3.1h1.2c-0.6-2.6-2.7-4.3-5.7-4.3c-3.7,0-6.7,3-6.7,7.7S172.2,38.6,175.9,38.6z"/>
	<path class="st0" d="M93,59.8c2.8,0,5-1.5,5-4.2c0-2-1.1-3.2-3.5-3.9L91.9,51C90,50.5,89,50,89,48.4c0-1.8,1.6-2.9,3.5-2.9
		c2.2,0,3.5,1.1,4,2.6h1.2c-0.6-2.2-2.3-3.8-5.3-3.8c-2.6,0-4.7,1.5-4.7,4.1c0,2.1,1.3,3.1,3.5,3.7l2.9,0.8c1.9,0.5,2.6,1.5,2.6,2.8
		c0,1.9-1.6,3-3.7,3s-3.6-1-4.3-2.8h-1.3C88,58.4,90.2,59.8,93,59.8z"/>
	<path class="st0" d="M111.7,55.5h-1.2c-0.6,1.9-2.1,3.1-4.3,3.1c-3.1,0-5.3-2.5-5.3-6.6c0-4,2.2-6.6,5.3-6.6c2.2,0,3.7,1.2,4.3,3.1
		h1.2c-0.6-2.6-2.6-4.3-5.6-4.3c-3.7,0-6.6,3-6.6,7.7s2.9,7.7,6.6,7.7C109,59.8,111.1,58.1,111.7,55.5z"/>
	<path class="st0" d="M142.1,52.1c0-4.6-2.8-7.7-6.7-7.7c-3.8,0-6.6,3.1-6.6,7.7s2.8,7.7,6.6,7.7C139.3,59.8,142.1,56.7,142.1,52.1z
		 M135.5,58.7c-3.2,0-5.4-2.7-5.4-6.6s2.2-6.6,5.4-6.6s5.4,2.7,5.4,6.6C140.8,56,138.7,58.7,135.5,58.7z"/>
	<path class="st0" d="M150.5,59.8c3.8,0,6.7-3.1,6.7-7.7s-2.8-7.7-6.7-7.7c-3.8,0-6.6,3.1-6.6,7.7C143.8,56.7,146.7,59.8,150.5,59.8
		z M150.5,45.5c3.2,0,5.4,2.7,5.4,6.6s-2.2,6.6-5.4,6.6s-5.4-2.7-5.4-6.6S147.3,45.5,150.5,45.5z"/>
	<path class="st0" d="M177.1,51.8l-2.5-0.7c-1.8-0.5-2.9-1.1-2.9-2.7c0-1.8,1.6-2.9,3.5-2.9c2.2,0,3.5,1.1,4,2.6h1.2
		c-0.6-2.2-2.3-3.8-5.3-3.8c-2.6,0-4.7,1.5-4.7,4.1c0,2.1,1.3,3.1,3.4,3.7l2.9,0.8c1.9,0.5,2.6,1.5,2.6,2.8c0,1.9-1.6,3-3.7,3
		c-2.1,0-3.6-1-4.3-2.8H170c0.6,2.5,2.8,3.9,5.6,3.9s5-1.5,5-4.2C180.6,53.7,179.6,52.4,177.1,51.8z"/>
	<rect x="7.6" y="7.7" class="st0" width="3.9" height="13.9"/>
	<polygon class="st0" points="21.8,21.6 17.3,14.7 16.1,14.7 20.1,7.7 17.2,7.7 13.1,14.7 17.5,21.6 	"/>
</g>
</svg>
