<?xml version="1.0" encoding="UTF-8" standalone="no"?><!DOCTYPE svg PUBLIC "-//W3C//DTD SVG 1.1//EN" "http://www.w3.org/Graphics/SVG/1.1/DTD/svg11.dtd"><svg width="184" height="81" viewBox="0 0 184 81" xmlns="http://www.w3.org/2000/svg" xmlns:xlink="http://www.w3.org/1999/xlink"><svg viewBox="-1 -1 17 17" fill-rule="evenodd" clip-rule="evenodd" stroke-linejoin="round" stroke-miterlimit="1.414" width="17" height="17" id="booking" x="130" y="32" xmlns="http://www.w3.org/2000/svg"><path d="M7.5 6.971A9.596 9.596 0 00.932 4.38v8.03c2.54 0 4.845.984 6.568 2.591a9.63 9.63 0 016.568-2.591v-8.03c-2.54 0-4.845.985-6.568 2.592zm0-2.592a2.186 2.186 0 002.189-2.19C9.689.979 8.712 0 7.5 0a2.186 2.186 0 00-2.189 2.189c0 1.212.977 2.19 2.189 2.19z" fill="#767676" fill-rule="nonzero"/></svg><svg viewBox="-1 -1 16 14" fill-rule="evenodd" clip-rule="evenodd" stroke-linejoin="round" stroke-miterlimit="1.414" width="16" height="14" id="check" x="164" y="32" xmlns="http://www.w3.org/2000/svg"><path d="M5.037 12.074c-.284 0-.569-.109-.785-.326L.325 7.822a1.11 1.11 0 111.57-1.57l3.142 3.14 7.067-7.067a1.11 1.11 0 111.57 1.57l-7.852 7.853a1.108 1.108 0 01-.785.326z" fill="#ed174f" fill-rule="nonzero"/></svg><svg viewBox="-1 -1 17 16" fill-rule="evenodd" clip-rule="evenodd" stroke-linejoin="round" stroke-miterlimit="1.414" width="17" height="16" id="date" x="147" y="32" xmlns="http://www.w3.org/2000/svg"><path d="M1.875 2.344V.469a.468.468 0 11.938 0v1.875a.468.468 0 11-.938 0zm7.969.469c.259 0 .469-.21.469-.47V.47a.469.469 0 10-.938 0v1.875c0 .259.21.469.469.469zM15 11.25a3.75 3.75 0 11-7.5 0 3.75 3.75 0 017.5 0zm-.937 0a2.816 2.816 0 00-2.813-2.813 2.816 2.816 0 00-2.812 2.813 2.816 2.816 0 002.812 2.812 2.816 2.816 0 002.813-2.812zM3.75 5.625H1.875V7.5H3.75V5.625zm-1.875 4.688H3.75V8.437H1.875v1.876zM4.688 7.5h1.875V5.625H4.688V7.5zm0 2.813h1.875V8.437H4.688v1.876zm-3.75.844v-6.47H11.25v1.876h.938V2.906c0-.57-.455-1.031-1.016-1.031h-.39v.469a.939.939 0 01-1.875 0v-.469H3.28v.469a.939.939 0 01-1.875 0v-.469h-.39C.455 1.875 0 2.336 0 2.905v8.252c0 .567.455 1.03 1.016 1.03h5.547v-.937H1.016c-.043 0-.078-.044-.078-.093zM9.375 7.5V5.625H7.5V7.5h1.875zm3.281 3.75H11.25V9.844a.468.468 0 10-.937 0v1.875c0 .259.21.469.468.469h1.875a.469.469 0 100-.938z" fill="#767676" fill-rule="nonzero"/></svg><svg viewBox="-1 -1 184 32" fill-rule="evenodd" clip-rule="evenodd" stroke-linejoin="round" stroke-miterlimit="1.414" width="184" height="32" id="kaplan-logo" xmlns="http://www.w3.org/2000/svg"><g fill="#fff" fill-rule="nonzero"><path d="M84.335 0h-2.053c4.805 2.854 7.766 6.206 7.766 9.812 0 10.722-22.752 18.627-50.511 18.627-16.042 0-30.321-2.782-39.537-7.114v2.257c9.534 4.392 23.705 7.177 39.536 7.177 29.978 0 51.979-9.147 51.979-20.42 0-3.778-2.62-7.302-7.18-10.34"/><path d="M12.013 17.69L8.22 11.85H7.204l3.394-5.937h-2.52L4.64 11.849l3.728 5.84h3.644zM33.43 7.803h.82c1.465 0 2.116.563 2.116 1.825 0 .704-.202 1.263-.596 1.617-.298.265-.69.345-1.69.345 0 0-.417 0-.65.003v-3.79zm0 5.723h1.393a5.906 5.906 0 002.002-.27c.96-.315 2.478-1.564 2.478-3.558 0-1.01-.254-1.834-.753-2.448-.767-.946-2.042-1.39-4.011-1.39h-4.005v11.83h2.896v-4.164zM19.97 9.85l1.268 3.133h-2.629l1.361-3.133zm-2.077 4.836l4.056-.002 1.205 3.007h3.37L21.361 5.919H19.53l-5.26 11.77h2.336l1.286-3.004zM3.296 5.913H0V17.69h3.296V5.913zm47.034 9.795h-4.12V5.91h-2.898v11.78h7.018v-1.982zm8.412-5.859l1.267 3.133h-2.624l1.357-3.133zm-2.08 4.835h4.057l1.206 3.006h3.37l-5.16-11.771h-1.833l-5.259 11.77h2.336l1.284-3.005zm15.14 3.006v-7.572c.935 1.402 5.064 7.572 5.064 7.572h2.636V5.91h-2.948v7.536a62390.3 62390.3 0 01-4.963-7.52l-2.738-.007v11.77h2.949zM101.13 12.303h-1.203c.044-1.194.053-1.893.053-3.105 0-1.312-.01-2.046-.053-3.327h1.203a77.089 77.089 0 00-.053 3.327c0 1.212.006 1.91.053 3.105M107.805 5.87h1.058a80.992 80.992 0 00-.052 3.328c0 1.212.006 1.91.052 3.104h-1.076c-1.184-1.803-2.533-3.803-3.456-5.085 0 2.196 0 3.39.065 5.085h-1.059a73.94 73.94 0 00.053-3.104c0-1.312-.01-2.046-.053-3.328h1.255a102.59 102.59 0 013.265 4.73c0-1.966 0-3.161-.052-4.73M113.817 12.303h-1.231c.063-1.283.073-2.021.073-3.33 0-.86-.01-1.488-.035-2.287-.924 0-1.598.01-2.27.061l.33-.876h5.286v.843c-.548-.028-1.38-.028-2.181-.028-.034.81-.034 1.408-.034 2.287 0 1.309.007 2.047.062 3.33M118.797 6.676a69.15 69.15 0 00-.027 1.93c.896 0 1.887-.01 2.505-.044v.887a50.71 50.71 0 00-2.505-.046c0 .765.009 1.4.027 2.093.951 0 2.171-.009 2.862-.047l-.34.854h-3.697c.045-1.194.052-1.893.052-3.105 0-1.312-.007-2.046-.052-3.328h3.743v.843c-.557-.037-1.625-.037-2.568-.037M124.656 6.686c-.017.554-.024 1.6-.024 2.179.115.01.323.01.555.01 1.03 0 1.58-.393 1.58-1.127 0-.694-.568-1.072-1.58-1.072-.208 0-.412 0-.531.01m.028 5.616h-1.203a68.38 68.38 0 00.052-3.104 78.15 78.15 0 00-.052-3.328h1.83c1.599 0 2.601.592 2.601 1.783 0 .818-.51 1.402-1.246 1.68a48.369 48.369 0 001.667 2.748l-1.21.44a55.48 55.48 0 01-1.498-2.848c-.324.011-.664.011-.993 0 .007.942.017 1.859.052 2.63M134.61 5.87h1.059a78.549 78.549 0 00-.053 3.328c0 1.212.006 1.91.053 3.104h-1.077c-1.185-1.803-2.533-3.803-3.457-5.085 0 2.196 0 3.39.063 5.085h-1.058c.045-1.194.053-1.892.053-3.104 0-1.312-.008-2.046-.053-3.328h1.256a103.014 103.014 0 013.268 4.73c0-1.966 0-3.161-.053-4.73M139.293 9.685h2.136c-.369-.97-.728-1.968-1.016-2.774-.285.778-.718 1.793-1.12 2.774m-2.188 2.618c.78-1.58 2.08-4.531 2.885-6.478h1.098c.671 1.84 1.73 4.469 2.62 6.478h-1.318c-.215-.564-.469-1.194-.694-1.811h-2.717c-.251.645-.521 1.28-.77 1.811h-1.104zM147.031 12.303h-1.233c.064-1.283.075-2.021.075-3.33 0-.86-.011-1.488-.035-2.287-.925 0-1.6.01-2.272.061l.33-.876h5.286v.843c-.545-.028-1.38-.028-2.182-.028-.033.81-.033 1.408-.033 2.287 0 1.309.008 2.047.064 3.33M152.064 12.303h-1.204c.043-1.194.052-1.893.052-3.105 0-1.312-.009-2.046-.052-3.327h1.204a79.435 79.435 0 00-.053 3.327c0 1.212.007 1.91.053 3.105M157.418 6.568c-1.32 0-2.142 1.017-2.142 2.511 0 1.52.86 2.514 2.142 2.514 1.32 0 2.161-1.004 2.161-2.514 0-1.513-.877-2.51-2.161-2.51m0-.807c2.039 0 3.412 1.3 3.412 3.239 0 2.063-1.48 3.402-3.412 3.402-2.035 0-3.4-1.283-3.4-3.222 0-2.055 1.473-3.419 3.4-3.419M167.111 5.87h1.06a79.714 79.714 0 00-.056 3.328c0 1.212.01 1.91.056 3.104h-1.078c-1.184-1.803-2.531-3.803-3.456-5.085 0 2.196 0 3.39.066 5.085h-1.062c.048-1.194.055-1.892.055-3.104 0-1.312-.007-2.046-.055-3.328h1.259a103.728 103.728 0 013.264 4.73c0-1.966 0-3.161-.053-4.73M171.877 9.685h2.134c-.366-.97-.724-1.968-1.012-2.774-.286.778-.72 1.793-1.122 2.774m-2.188 2.618c.777-1.58 2.081-4.531 2.887-6.478h1.096c.673 1.84 1.73 4.469 2.617 6.478h-1.318c-.214-.564-.466-1.194-.69-1.811h-2.717c-.251.645-.52 1.28-.776 1.811h-1.1zM179.109 11.487c.961 0 2.208-.017 2.891-.056l-.333.872h-3.735c.046-1.194.054-1.893.054-3.105 0-1.312-.008-2.046-.054-3.327h1.203a81.95 81.95 0 00-.052 3.327c0 .863.007 1.5.026 2.29M101.188 17.42a66.774 66.774 0 00-.028 1.934c.9 0 1.888-.01 2.509-.045v.89a52.95 52.95 0 00-2.509-.043c0 .763.01 1.402.028 2.095.952 0 2.176-.009 2.868-.044l-.342.852h-3.704a71.95 71.95 0 00.053-3.11c0-1.315-.009-2.052-.053-3.34h3.749v.847c-.558-.035-1.628-.035-2.571-.035M110.37 16.61h1.061a79.11 79.11 0 00-.055 3.338c0 1.214.008 1.915.055 3.111h-1.081c-1.187-1.808-2.537-3.812-3.462-5.1 0 2.205 0 3.402.063 5.1h-1.06a74.3 74.3 0 00.052-3.11c0-1.315-.01-2.052-.052-3.34h1.259a105.331 105.331 0 013.273 4.742c0-1.97 0-3.166-.053-4.741M119.056 22.798c-.682.25-1.394.361-2.392.361-1.77 0-3.417-1.243-3.417-3.132 0-2.085 1.493-3.524 3.741-3.524.837 0 1.493.15 2.034.375l-.299.803c-.467-.19-1.104-.361-1.662-.361-1.692 0-2.6.982-2.6 2.51 0 1.583 1.115 2.518 2.374 2.518.44 0 .746-.027 1.017-.106.018-.353.018-.63.018-1.01 0-.402 0-.728-.018-1.05h1.204a19.67 19.67 0 00-.034 1.249c0 .485 0 .873.034 1.367M122.243 22.242c.962 0 2.213-.018 2.896-.056l-.334.873h-3.74a71.97 71.97 0 00.053-3.11c0-1.315-.008-2.052-.053-3.34h1.205a82.548 82.548 0 00-.054 3.34c0 .86.01 1.5.027 2.293M128.052 23.06h-1.205a74.32 74.32 0 00.053-3.112c0-1.314-.01-2.051-.053-3.338h1.205a82.579 82.579 0 00-.053 3.338c0 1.213.008 1.915.053 3.111M134.01 17.628a3.276 3.276 0 00-1.42-.316c-.81 0-1.216.334-1.216.792 0 .415.2.685 1.043 1.051l.65.29c.989.438 1.41.97 1.41 1.853 0 1.103-1.042 1.861-2.365 1.861-.8 0-1.509-.145-2.104-.423l.323-.802a3.825 3.825 0 001.728.414c.79 0 1.241-.387 1.241-.864 0-.503-.225-.78-1.016-1.133l-.765-.323c-.873-.387-1.304-.961-1.304-1.773 0-.943.936-1.751 2.311-1.751.747 0 1.286.089 1.8.33l-.315.794zM137.635 19.335h3.21c-.008-.98-.02-1.671-.064-2.726h1.216a80.06 80.06 0 00-.056 3.34c0 1.212.01 1.914.056 3.11h-1.216c.045-1.116.056-1.8.065-2.896h-3.211c.009 1.096.017 1.78.052 2.896h-1.204c.045-1.196.053-1.898.053-3.11 0-1.315-.008-2.052-.053-3.34h1.204a100.105 100.105 0 00-.052 2.726"/></g></svg><svg viewBox="-1 -1 32 32" fill-rule="evenodd" clip-rule="evenodd" stroke-linejoin="round" stroke-miterlimit="1.414" width="32" height="32" id="left-arrow" y="32" xmlns="http://www.w3.org/2000/svg"><path d="M20.605 28.21c.186.185.418.278.674.278a.954.954 0 00.674-1.628L10.093 15l11.86-11.86a.954.954 0 00-1.348-1.35L8.047 14.327a.954.954 0 000 1.348L20.605 28.21z" fill="#fff" fill-rule="nonzero"/></svg><svg viewBox="-1 -1 17 17" fill-rule="evenodd" clip-rule="evenodd" stroke-linejoin="round" stroke-miterlimit="1.414" width="17" height="17" id="location" y="64" xmlns="http://www.w3.org/2000/svg"><path d="M7.5 0a5.749 5.749 0 00-5.742 5.742 5.74 5.74 0 001.167 3.47L7.25 15h.498l4.326-5.788a5.74 5.74 0 001.167-3.47A5.749 5.749 0 007.5 0zm0 7.646a1.906 1.906 0 01-1.904-1.904c0-1.05.854-1.904 1.904-1.904 1.05 0 1.904.854 1.904 1.904 0 1.05-.854 1.904-1.904 1.904z" fill="#767676" fill-rule="nonzero"/></svg><svg viewBox="-1 -1 22 22" fill-rule="evenodd" clip-rule="evenodd" stroke-linejoin="round" stroke-miterlimit="1.414" width="22" height="22" id="mail" x="64" y="32" xmlns="http://www.w3.org/2000/svg"><g fill="#fff" fill-rule="nonzero"><path d="M3.25 8.322V7.138c0-.673.545-1.217 1.217-1.217h11.066c.672 0 1.217.544 1.217 1.217v1.184l1.56-1.56a.322.322 0 00-.031-.482L10.747.419a1.217 1.217 0 00-1.494 0L1.72 6.279a.321.321 0 00-.03.484l1.56 1.56z"/><path d="M19.8 7.714a.324.324 0 00-.351.07l-8.26 8.26a1.683 1.683 0 01-2.378 0L.55 7.785A.323.323 0 000 8.013v10.491c0 .737.597 1.334 1.333 1.334h17.334c.736 0 1.333-.597 1.333-1.334V8.013a.324.324 0 00-.2-.299z"/><path d="M13.695 7.782h-7.39a.667.667 0 000 1.333h7.39a.667.667 0 000-1.333zM13.695 10.449h-7.39a.667.667 0 000 1.333h7.39a.667.667 0 000-1.333z"/></g></svg><svg viewBox="-1 -1 22 22" fill-rule="evenodd" clip-rule="evenodd" stroke-linejoin="round" stroke-miterlimit="1.414" width="22" height="22" id="mail2" x="86" y="32" xmlns="http://www.w3.org/2000/svg"><g fill="#fff" fill-rule="nonzero"><path d="M3.25 8.322V7.138c0-.673.545-1.217 1.217-1.217h11.066c.672 0 1.217.544 1.217 1.217v1.184l1.56-1.56a.322.322 0 00-.031-.482L10.747.419a1.217 1.217 0 00-1.494 0L1.72 6.279a.321.321 0 00-.03.484l1.56 1.56z"/><path d="M19.8 7.714a.324.324 0 00-.351.07l-8.26 8.26a1.683 1.683 0 01-2.378 0L.55 7.785A.323.323 0 000 8.013v10.491c0 .737.597 1.334 1.333 1.334h17.334c.736 0 1.333-.597 1.333-1.334V8.013a.324.324 0 00-.2-.299z"/><path d="M13.695 7.782h-7.39a.667.667 0 000 1.333h7.39a.667.667 0 000-1.333zM13.695 10.449h-7.39a.667.667 0 000 1.333h7.39a.667.667 0 000-1.333z"/></g></svg><svg viewBox="-1 -1 22 22" fill-rule="evenodd" clip-rule="evenodd" stroke-linejoin="round" stroke-miterlimit="1.414" width="22" height="22" id="phone" x="108" y="32" xmlns="http://www.w3.org/2000/svg"><g fill="#fff" fill-rule="nonzero"><path d="M19.68 14.522l-2.008-4.666h-3.225a2.147 2.147 0 01-2.144-2.144v-.16H7.696v.16a2.13 2.13 0 01-.628 1.516c-.399.4-.951.628-1.516.628H2.317l-2 4.674A3.926 3.926 0 003.926 20h12.149a3.925 3.925 0 003.605-5.478zM7.96 17.714a.303.303 0 01-.302.303H6.656a.303.303 0 01-.302-.303v-1.001c0-.167.135-.303.302-.303h1.002c.167 0 .302.136.302.303v1.001zm0-2.842a.302.302 0 01-.302.302H6.656a.303.303 0 01-.302-.302V13.87c0-.167.135-.303.302-.303h1.002c.167 0 .302.136.302.303v1.002zm0-2.843a.302.302 0 01-.302.302H6.656a.303.303 0 01-.302-.302v-1.002c0-.167.135-.303.302-.303h1.002c.167 0 .302.136.302.303v1.002zm2.843 5.685a.303.303 0 01-.302.303H9.499a.303.303 0 01-.302-.303v-1.002c0-.167.135-.302.302-.302h1.002c.167 0 .302.135.302.302v1.002zm0-2.842a.302.302 0 01-.302.302H9.499a.303.303 0 01-.302-.302V13.87c0-.167.135-.303.302-.303h1.002c.167 0 .302.136.302.303v1.002zm0-2.843a.302.302 0 01-.302.302H9.499a.303.303 0 01-.302-.302v-1.002c0-.167.135-.303.302-.303h1.002c.167 0 .302.136.302.303v1.002zm2.843 5.685a.303.303 0 01-.302.303h-1.002a.303.303 0 01-.303-.303v-1.001c0-.167.136-.303.303-.303h1.002c.167 0 .302.136.302.303v1.001zm0-2.842a.303.303 0 01-.302.302h-1.002a.303.303 0 01-.303-.302V13.87c0-.167.136-.303.303-.303h1.002c.167 0 .302.136.302.303v1.002zm0-2.843a.303.303 0 01-.302.302h-1.002a.303.303 0 01-.303-.302v-1.002c0-.167.136-.303.303-.303h1.002c.167 0 .302.136.302.303v1.002z"/><path d="M1.158 8.515h4.394a.804.804 0 00.804-.803v-1.5h7.287v1.5c0 .444.36.804.804.804h4.394c.444 0 .804-.36.804-.804v-1.5c0-1.896-4.317-3.434-9.644-3.434h-.002C4.672 2.778.354 4.315.354 6.21h.003l-.003 1.5c0 .445.36.804.804.804z"/></g></svg><svg viewBox="-1 -1 32 32" fill-rule="evenodd" clip-rule="evenodd" stroke-linejoin="round" stroke-miterlimit="1.414" width="32" height="32" id="right-arrow" x="32" y="32" xmlns="http://www.w3.org/2000/svg"><path d="M9.395 28.21a.931.931 0 01-.674.278.954.954 0 01-.674-1.628L19.907 15 8.047 3.14a.954.954 0 011.348-1.35L21.93 14.327a.954.954 0 010 1.348L9.395 28.21z" fill="#fff" fill-rule="nonzero"/></svg></svg>