<svg xmlns="http://www.w3.org/2000/svg" xmlns:xlink="http://www.w3.org/1999/xlink" width="91" height="91" viewBox="0 0 91 91">
  <defs>
    <clipPath id="clip-path">
      <rect width="91" height="91" fill="none"/>
    </clipPath>
  </defs>
  <g id="_0730" data-name="0730" clip-path="url(#clip-path)">
    <g id="Group_10" data-name="Group 10" transform="translate(-67.5 -707.984)">
      <path id="Path_11" data-name="Path 11" d="M113,707.984a45.5,45.5,0,1,0,45.5,45.5A45.551,45.551,0,0,0,113,707.984Zm0,88a42.5,42.5,0,1,1,42.5-42.5A42.548,42.548,0,0,1,113,795.984Z" fill="#d6083b"/>
      <path id="Path_12" data-name="Path 12" d="M81.83,769.814a1.5,1.5,0,0,0,.76,2.8,1.591,1.591,0,0,0,.75-.2,1.5,1.5,0,0,0-1.51-2.6Z" fill="#d6083b"/>
      <path id="Path_13" data-name="Path 13" d="M95.34,724.583a1.447,1.447,0,0,0,.75-.2,1.5,1.5,0,1,0-2.05-.54A1.511,1.511,0,0,0,95.34,724.583Z" fill="#d6083b"/>
      <path id="Path_14" data-name="Path 14" d="M77.85,752.053a1.5,1.5,0,1,0,1.5,1.5A1.507,1.507,0,0,0,77.85,752.053Z" fill="#d6083b"/>
      <path id="Path_15" data-name="Path 15" d="M112.89,719.833a1.5,1.5,0,1,0-1.5-1.5A1.506,1.506,0,0,0,112.89,719.833Z" fill="#d6083b"/>
      <path id="Path_16" data-name="Path 16" d="M96.21,782.654a1.5,1.5,0,0,0-1.5,2.6,1.472,1.472,0,0,0,.75.2,1.5,1.5,0,0,0,.75-2.8Z" fill="#d6083b"/>
      <path id="Path_17" data-name="Path 17" d="M81.76,737.283a1.561,1.561,0,0,0,.75.2,1.5,1.5,0,1,0-.75-.2Z" fill="#d6083b"/>
      <path id="Path_18" data-name="Path 18" d="M143.38,737.293a1.5,1.5,0,1,0-.76-2.8,1.5,1.5,0,0,0,.76,2.8Z" fill="#d6083b"/>
      <circle id="Ellipse_1" data-name="Ellipse 1" cx="1.5" cy="1.5" r="1.5" transform="translate(111.54 787.133)" fill="#d6083b"/>
      <path id="Path_19" data-name="Path 19" d="M129.85,782.623a1.493,1.493,0,0,0,.75,2.79,1.447,1.447,0,0,0,.75-.2,1.5,1.5,0,1,0-1.5-2.59Z" fill="#d6083b"/>
      <path id="Path_20" data-name="Path 20" d="M148.15,751.833a1.507,1.507,0,0,0-1.5,1.51v.141a1.5,1.5,0,0,0,3,0v-.151A1.5,1.5,0,0,0,148.15,751.833Z" fill="#d6083b"/>
      <path id="Path_21" data-name="Path 21" d="M144.2,769.753a1.5,1.5,0,0,0-1.5,2.6,1.588,1.588,0,0,0,.75.2,1.5,1.5,0,0,0,.75-2.8Z" fill="#d6083b"/>
      <path id="Path_22" data-name="Path 22" d="M129.73,724.274a1.43,1.43,0,0,0,.74.2,1.506,1.506,0,1,0-.74-.2Z" fill="#d6083b"/>
      <path id="Path_23" data-name="Path 23" d="M109.514,750.013a4.856,4.856,0,0,0-.867,5.717l-5.269,5.292a4.909,4.909,0,0,0-5.71.89h0a4.919,4.919,0,1,0,7.837,1.226l5.271-5.295a4.741,4.741,0,0,0,.724.3v24.178a1.5,1.5,0,0,0,3,0V758.144A4.9,4.9,0,0,0,116.47,750,4.925,4.925,0,0,0,109.514,750.013Zm-7,16.724a1.907,1.907,0,0,1-1.356.565h0a1.919,1.919,0,0,1,0-3.838h0a1.905,1.905,0,0,1,1.352.558l0,0h0A1.922,1.922,0,0,1,102.514,766.737Z" fill="#d6083b"/>
    </g>
  </g>
</svg>
