<svg xmlns="http://www.w3.org/2000/svg" xmlns:xlink="http://www.w3.org/1999/xlink" width="91" height="91" viewBox="0 0 91 91">
  <defs>
    <clipPath id="clip-path">
      <rect width="91" height="91" fill="none"/>
    </clipPath>
  </defs>
  <g id="_0830" data-name="0830" clip-path="url(#clip-path)">
    <g id="Group_11" data-name="Group 11" transform="translate(-187.5 -707.984)">
      <path id="Path_24" data-name="Path 24" d="M233,707.984a45.5,45.5,0,1,0,45.5,45.5A45.551,45.551,0,0,0,233,707.984Zm0,88a42.5,42.5,0,1,1,42.5-42.5A42.548,42.548,0,0,1,233,795.984Z" fill="#d6083b"/>
      <path id="Path_25" data-name="Path 25" d="M233.03,787.133a1.5,1.5,0,1,0,1.51,1.5A1.5,1.5,0,0,0,233.03,787.133Z" fill="#d6083b"/>
      <path id="Path_26" data-name="Path 26" d="M216.21,782.654a1.5,1.5,0,1,0-1.5,2.6,1.472,1.472,0,0,0,.75.2,1.5,1.5,0,0,0,.75-2.8Z" fill="#d6083b"/>
      <path id="Path_27" data-name="Path 27" d="M197.85,752.053a1.5,1.5,0,1,0,1.5,1.5A1.507,1.507,0,0,0,197.85,752.053Z" fill="#d6083b"/>
      <path id="Path_28" data-name="Path 28" d="M201.76,737.283a1.591,1.591,0,0,0,.75.2,1.5,1.5,0,1,0-.75-.2Z" fill="#d6083b"/>
      <path id="Path_29" data-name="Path 29" d="M215.34,724.583a1.422,1.422,0,0,0,.75-.2,1.5,1.5,0,1,0-2.05-.54A1.511,1.511,0,0,0,215.34,724.583Z" fill="#d6083b"/>
      <path id="Path_30" data-name="Path 30" d="M232.89,719.833a1.5,1.5,0,1,0-.01-3,1.5,1.5,0,0,0,.01,3Z" fill="#d6083b"/>
      <path id="Path_31" data-name="Path 31" d="M201.83,769.814a1.5,1.5,0,0,0,.76,2.8,1.591,1.591,0,0,0,.75-.2,1.5,1.5,0,0,0-1.51-2.6Z" fill="#d6083b"/>
      <path id="Path_32" data-name="Path 32" d="M264.2,769.753a1.5,1.5,0,0,0-1.5,2.6,1.588,1.588,0,0,0,.75.2,1.5,1.5,0,0,0,.75-2.8Z" fill="#d6083b"/>
      <path id="Path_33" data-name="Path 33" d="M268.14,751.833a1.505,1.505,0,0,0-1.49,1.51v.141a1.5,1.5,0,0,0,3,0v-.16A1.5,1.5,0,0,0,268.14,751.833Z" fill="#d6083b"/>
      <path id="Path_34" data-name="Path 34" d="M263.38,737.283a1.482,1.482,0,0,0,.76-.2,1.522,1.522,0,1,0-.76.2Z" fill="#d6083b"/>
      <path id="Path_35" data-name="Path 35" d="M249.85,782.623a1.493,1.493,0,0,0,.75,2.79,1.447,1.447,0,0,0,.75-.2,1.5,1.5,0,1,0-1.5-2.59Z" fill="#d6083b"/>
      <path id="Path_36" data-name="Path 36" d="M249.72,724.274a1.5,1.5,0,1,0-.55-2.05A1.51,1.51,0,0,0,249.72,724.274Z" fill="#d6083b"/>
      <path id="Path_37" data-name="Path 37" d="M229.514,750.013a4.883,4.883,0,0,0-1.432,3.481c0,.009,0,.017,0,.025l-7.074,2.322a4.924,4.924,0,1,0,.932,2.85l7.088-2.326a5.028,5.028,0,0,0,.5.6,4.856,4.856,0,0,0,1.97,1.174v24.178a1.5,1.5,0,0,0,3,0V758.144A4.9,4.9,0,0,0,236.47,750,4.925,4.925,0,0,0,229.514,750.013Zm-11.869,10.53a1.918,1.918,0,1,1,1.225-2.422A1.923,1.923,0,0,1,217.645,760.543Z" fill="#d6083b"/>
    </g>
  </g>
</svg>
