<svg xmlns="http://www.w3.org/2000/svg" xmlns:xlink="http://www.w3.org/1999/xlink" width="91" height="91" viewBox="0 0 91 91">
  <defs>
    <clipPath id="clip-path">
      <rect width="91" height="91" fill="none"/>
    </clipPath>
  </defs>
  <g id="_1100" data-name="1100" clip-path="url(#clip-path)">
    <g id="Group_14" data-name="Group 14" transform="translate(-307.37 -707.984)">
      <path id="Path_66" data-name="Path 66" d="M352.87,707.984a45.5,45.5,0,1,0,45.5,45.5A45.551,45.551,0,0,0,352.87,707.984Zm0,88a42.5,42.5,0,1,1,42.5-42.5A42.549,42.549,0,0,1,352.87,795.984Z" fill="#d6083b"/>
      <path id="Path_67" data-name="Path 67" d="M335.27,724.543a1.422,1.422,0,0,0,.75-.2,1.51,1.51,0,1,0-.75.2Z" fill="#d6083b"/>
      <path id="Path_68" data-name="Path 68" d="M336.14,782.694a1.484,1.484,0,0,0-2.04.549,1.5,1.5,0,0,0,.55,2.05,1.561,1.561,0,0,0,.75.2,1.5,1.5,0,0,0,.74-2.8Z" fill="#d6083b"/>
      <path id="Path_69" data-name="Path 69" d="M321.67,737.213a1.422,1.422,0,0,0,.75.2,1.484,1.484,0,0,0,1.29-.75h.01a1.5,1.5,0,0,0-2.6-1.5A1.5,1.5,0,0,0,321.67,737.213Z" fill="#d6083b"/>
      <path id="Path_70" data-name="Path 70" d="M321.74,769.883a1.5,1.5,0,0,0,1.51,2.591,1.513,1.513,0,0,0,.54-2.051A1.494,1.494,0,0,0,321.74,769.883Z" fill="#d6083b"/>
      <path id="Path_71" data-name="Path 71" d="M352.98,787.133a1.5,1.5,0,1,0,1.5,1.5A1.505,1.505,0,0,0,352.98,787.133Z" fill="#d6083b"/>
      <path id="Path_72" data-name="Path 72" d="M317.72,751.984a1.5,1.5,0,0,0-1.5,1.5v.16a1.5,1.5,0,0,0,1.5,1.489,1.513,1.513,0,0,0,1.5-1.51v-.139A1.5,1.5,0,0,0,317.72,751.984Z" fill="#d6083b"/>
      <circle id="Ellipse_2" data-name="Ellipse 2" cx="1.5" cy="1.5" r="1.5" transform="translate(351.33 716.833)" fill="#d6083b"/>
      <path id="Path_73" data-name="Path 73" d="M384.11,769.684a1.5,1.5,0,0,0-1.5,2.6,1.458,1.458,0,0,0,.75.2,1.5,1.5,0,0,0,.75-2.8Z" fill="#d6083b"/>
      <path id="Path_74" data-name="Path 74" d="M383.29,737.354a1.6,1.6,0,0,0,.75-.2,1.5,1.5,0,0,0,.54-2.05v-.011a1.5,1.5,0,1,0-1.29,2.261Z" fill="#d6083b"/>
      <path id="Path_75" data-name="Path 75" d="M388.02,751.913a1.5,1.5,0,1,0,1.5,1.491A1.5,1.5,0,0,0,388.02,751.913Z" fill="#d6083b"/>
      <path id="Path_76" data-name="Path 76" d="M369.78,782.583a1.5,1.5,0,1,0,2.05.54A1.512,1.512,0,0,0,369.78,782.583Z" fill="#d6083b"/>
      <path id="Path_77" data-name="Path 77" d="M369.66,724.314a1.523,1.523,0,0,0,.74.2,1.5,1.5,0,0,0,.76-2.8h-.01a1.5,1.5,0,0,0-1.49,2.6Z" fill="#d6083b"/>
      <path id="Path_78" data-name="Path 78" d="M354.37,748.823V724.646a1.5,1.5,0,0,0-3,0v23.887l-3.984-5.97a4.869,4.869,0,1,0-2.486,1.68l4.136,6.2a4.9,4.9,0,1,0,7.3-.444A4.849,4.849,0,0,0,354.37,748.823Zm-12.416-8.242a1.919,1.919,0,1,1,2.661.532A1.922,1.922,0,0,1,341.954,740.581Z" fill="#d6083b"/>
    </g>
  </g>
</svg>
