<svg xmlns="http://www.w3.org/2000/svg" xmlns:xlink="http://www.w3.org/1999/xlink" width="91" height="91" viewBox="0 0 91 91">
  <defs>
    <clipPath id="clip-path">
      <rect width="91" height="91" fill="none"/>
    </clipPath>
  </defs>
  <g id="_1145" data-name="1145" clip-path="url(#clip-path)">
    <g id="Group_17" data-name="Group 17" transform="translate(-427.5 -707.984)">
      <path id="Path_104" data-name="Path 104" d="M473,707.984a45.5,45.5,0,1,0,45.5,45.5A45.551,45.551,0,0,0,473,707.984Zm0,88a42.5,42.5,0,1,1,42.5-42.5A42.548,42.548,0,0,1,473,795.984Z" fill="#d6083b"/>
      <path id="Path_105" data-name="Path 105" d="M473.14,787.133H473a1.5,1.5,0,0,0,0,3h.149a1.5,1.5,0,1,0-.009-3Z" fill="#d6083b"/>
      <path id="Path_106" data-name="Path 106" d="M441.81,769.783a1.5,1.5,0,0,0-.54,2.05,1.487,1.487,0,0,0,1.3.75,1.576,1.576,0,0,0,.75-.2,1.5,1.5,0,0,0-1.509-2.6Z" fill="#d6083b"/>
      <path id="Path_107" data-name="Path 107" d="M456.18,782.633a1.5,1.5,0,0,0-1.5,2.6,1.466,1.466,0,0,0,.75.2,1.5,1.5,0,0,0,.75-2.8Z" fill="#d6083b"/>
      <path id="Path_108" data-name="Path 108" d="M441.78,737.243a1.442,1.442,0,0,0,.75.21,1.5,1.5,0,1,0-1.3-2.25v-.009A1.493,1.493,0,0,0,441.78,737.243Z" fill="#d6083b"/>
      <path id="Path_109" data-name="Path 109" d="M472.93,719.833a1.5,1.5,0,1,0-.01-3,1.5,1.5,0,0,0,.01,3Z" fill="#d6083b"/>
      <path id="Path_110" data-name="Path 110" d="M437.85,752.024a1.5,1.5,0,0,0,0,3,1.514,1.514,0,0,0,1.5-1.51A1.483,1.483,0,0,0,437.85,752.024Z" fill="#d6083b"/>
      <path id="Path_111" data-name="Path 111" d="M455.37,724.564a1.441,1.441,0,0,0,.75-.2,1.5,1.5,0,1,0-1.5-2.59h-.011a1.5,1.5,0,0,0,.761,2.79Z" fill="#d6083b"/>
      <path id="Path_112" data-name="Path 112" d="M504.25,769.654a1.5,1.5,0,0,0-1.49,2.6,1.412,1.412,0,0,0,.74.2,1.5,1.5,0,0,0,.75-2.8Z" fill="#d6083b"/>
      <path id="Path_113" data-name="Path 113" d="M503.4,737.324a1.446,1.446,0,0,0,.75-.21,1.5,1.5,0,0,0-1.509-2.59,1.5,1.5,0,0,0,.759,2.8Z" fill="#d6083b"/>
      <path id="Path_114" data-name="Path 114" d="M508.149,751.873a1.5,1.5,0,1,0,1.5,1.491A1.5,1.5,0,0,0,508.149,751.873Z" fill="#d6083b"/>
      <path id="Path_115" data-name="Path 115" d="M489.75,724.293a1.591,1.591,0,0,0,.75.2,1.5,1.5,0,1,0-.75-.2Z" fill="#d6083b"/>
      <path id="Path_116" data-name="Path 116" d="M489.939,782.564a1.5,1.5,0,0,0,.761,2.8,1.591,1.591,0,0,0,.75-.2v-.009a1.5,1.5,0,1,0-1.511-2.59Z" fill="#d6083b"/>
      <path id="Path_117" data-name="Path 117" d="M473.5,748.614l-1.552-7.3a4.848,4.848,0,0,0,2.376-5.272,4.918,4.918,0,1,0-5.309,5.9l1.55,7.3a4.61,4.61,0,0,0-2.226,2.751H444.162a1.5,1.5,0,0,0,0,3h24.177a4.9,4.9,0,0,0,8.147,1.97,4.926,4.926,0,0,0-.015-6.957A4.876,4.876,0,0,0,473.5,748.614Zm-5.864-11.156a1.92,1.92,0,0,1,1.478-2.275,1.95,1.95,0,0,1,.4-.042,1.921,1.921,0,0,1,1.876,1.519h0a1.919,1.919,0,0,1-3.754.8Z" fill="#d6083b"/>
    </g>
  </g>
</svg>
