<svg xmlns="http://www.w3.org/2000/svg" xmlns:xlink="http://www.w3.org/1999/xlink" width="91" height="91" viewBox="0 0 91 91">
  <defs>
    <clipPath id="clip-path">
      <rect width="91" height="91" fill="none"/>
    </clipPath>
  </defs>
  <g id="_1230" data-name="1230" clip-path="url(#clip-path)">
    <g id="Group_12" data-name="Group 12" transform="translate(-547.5 -707.984)">
      <path id="Path_38" data-name="Path 38" d="M593,707.984a45.5,45.5,0,1,0,45.5,45.5A45.551,45.551,0,0,0,593,707.984Zm0,88a42.5,42.5,0,1,1,42.5-42.5A42.548,42.548,0,0,1,593,795.984Z" fill="#d6083b"/>
      <path id="Path_39" data-name="Path 39" d="M575.34,724.583a1.447,1.447,0,0,0,.75-.2,1.51,1.51,0,1,0-.75.2Z" fill="#d6083b"/>
      <path id="Path_40" data-name="Path 40" d="M561.83,769.814a1.5,1.5,0,0,0,.76,2.8,1.591,1.591,0,0,0,.75-.2,1.5,1.5,0,0,0-1.51-2.6Z" fill="#d6083b"/>
      <path id="Path_41" data-name="Path 41" d="M561.76,737.283a1.561,1.561,0,0,0,.75.2,1.5,1.5,0,1,0-.75-.2Z" fill="#d6083b"/>
      <path id="Path_42" data-name="Path 42" d="M576.21,782.654a1.5,1.5,0,1,0-1.5,2.6,1.472,1.472,0,0,0,.75.2,1.5,1.5,0,0,0,.75-2.8Z" fill="#d6083b"/>
      <path id="Path_43" data-name="Path 43" d="M592.89,719.833a1.5,1.5,0,1,0-.01-3,1.5,1.5,0,0,0,.01,3Z" fill="#d6083b"/>
      <path id="Path_44" data-name="Path 44" d="M557.84,752.053a1.505,1.505,0,0,0-1.49,1.511,1.5,1.5,0,1,0,1.49-1.511Z" fill="#d6083b"/>
      <path id="Path_45" data-name="Path 45" d="M609.72,724.274a1.5,1.5,0,1,0-.55-2.05A1.492,1.492,0,0,0,609.72,724.274Z" fill="#d6083b"/>
      <path id="Path_46" data-name="Path 46" d="M624.2,769.753a1.5,1.5,0,1,0-1.5,2.6,1.553,1.553,0,0,0,.75.2,1.5,1.5,0,0,0,.75-2.8Z" fill="#d6083b"/>
      <path id="Path_47" data-name="Path 47" d="M623.38,737.283a1.392,1.392,0,0,0,.76-.2,1.522,1.522,0,1,0-.76.2Z" fill="#d6083b"/>
      <path id="Path_48" data-name="Path 48" d="M593.03,787.133a1.5,1.5,0,1,0,1.51,1.5A1.514,1.514,0,0,0,593.03,787.133Z" fill="#d6083b"/>
      <path id="Path_49" data-name="Path 49" d="M628.14,751.833a1.505,1.505,0,0,0-1.491,1.51v.141a1.5,1.5,0,0,0,3,0v-.151A1.506,1.506,0,0,0,628.14,751.833Z" fill="#d6083b"/>
      <path id="Path_50" data-name="Path 50" d="M609.85,782.623a1.5,1.5,0,1,0,2.049.54A1.5,1.5,0,0,0,609.85,782.623Z" fill="#d6083b"/>
      <path id="Path_51" data-name="Path 51" d="M599.307,732.71a4.9,4.9,0,0,0-4.218,8.73l-2.166,7.133a4.9,4.9,0,0,0-1.423,9.572v24.177a1.5,1.5,0,0,0,3,0V758.145a4.859,4.859,0,0,0,1.986-1.191,4.862,4.862,0,0,0-.693-7.507l2.161-7.117a4.916,4.916,0,0,0,1.353-9.62Zm.407,5.265a1.919,1.919,0,1,1-1.278-2.394A1.918,1.918,0,0,1,599.714,737.975Z" fill="#d6083b"/>
    </g>
  </g>
</svg>
