<svg xmlns="http://www.w3.org/2000/svg" xmlns:xlink="http://www.w3.org/1999/xlink" width="91" height="91" viewBox="0 0 91 91">
  <defs>
    <clipPath id="clip-path">
      <rect width="91" height="91" fill="none"/>
    </clipPath>
  </defs>
  <g id="_1400" data-name="1400" clip-path="url(#clip-path)">
    <g id="Group_15" data-name="Group 15" transform="translate(-667.5 -707.984)">
      <path id="Path_79" data-name="Path 79" d="M713,707.984a45.5,45.5,0,1,0,45.5,45.5A45.551,45.551,0,0,0,713,707.984Zm0,88a42.5,42.5,0,1,1,42.5-42.5A42.548,42.548,0,0,1,713,795.984Z" fill="#d6083b"/>
      <path id="Path_80" data-name="Path 80" d="M695.4,724.543a1.442,1.442,0,0,0,.75-.2,1.509,1.509,0,1,0-.75.2Z" fill="#d6083b"/>
      <path id="Path_81" data-name="Path 81" d="M681.859,769.883a1.509,1.509,0,0,0-.54,2.051h.011a1.513,1.513,0,0,0,2.05.54,1.5,1.5,0,0,0-1.521-2.591Z" fill="#d6083b"/>
      <path id="Path_82" data-name="Path 82" d="M681.8,737.213a1.412,1.412,0,0,0,.74.2,1.517,1.517,0,0,0,1.31-.75h-.01a1.5,1.5,0,1,0-2.04.55Z" fill="#d6083b"/>
      <path id="Path_83" data-name="Path 83" d="M696.28,782.694a1.5,1.5,0,1,0-1.5,2.6,1.561,1.561,0,0,0,.75.2,1.5,1.5,0,0,0,.75-2.8Z" fill="#d6083b"/>
      <circle id="Ellipse_3" data-name="Ellipse 3" cx="1.5" cy="1.5" r="1.5" transform="translate(711.46 716.833)" fill="#d6083b"/>
      <path id="Path_84" data-name="Path 84" d="M677.85,751.984a1.5,1.5,0,0,0-1.5,1.5v.149a1.5,1.5,0,1,0,3-.01v-.139A1.5,1.5,0,0,0,677.85,751.984Z" fill="#d6083b"/>
      <path id="Path_85" data-name="Path 85" d="M729.78,724.314h.01a1.523,1.523,0,0,0,.74.2,1.5,1.5,0,0,0,.75-2.8h.01a1.5,1.5,0,1,0-1.51,2.6Z" fill="#d6083b"/>
      <path id="Path_86" data-name="Path 86" d="M744.24,769.684a1.5,1.5,0,1,0-1.5,2.6,1.453,1.453,0,0,0,.75.2,1.5,1.5,0,0,0,.75-2.8Z" fill="#d6083b"/>
      <path id="Path_87" data-name="Path 87" d="M743.42,737.354a1.6,1.6,0,0,0,.75-.2,1.5,1.5,0,1,0-.75.2Z" fill="#d6083b"/>
      <path id="Path_88" data-name="Path 88" d="M748.149,751.913a1.5,1.5,0,1,0,1.5,1.491A1.5,1.5,0,0,0,748.149,751.913Z" fill="#d6083b"/>
      <path id="Path_89" data-name="Path 89" d="M729.91,782.583a1.5,1.5,0,1,0,2.05.54A1.512,1.512,0,0,0,729.91,782.583Z" fill="#d6083b"/>
      <path id="Path_90" data-name="Path 90" d="M713.109,787.133a1.5,1.5,0,1,0,1.5,1.5A1.508,1.508,0,0,0,713.109,787.133Z" fill="#d6083b"/>
      <path id="Path_91" data-name="Path 91" d="M732.022,745.669a4.918,4.918,0,1,0-9.541.1l-6.329,3.965a4.852,4.852,0,0,0-1.652-.917V724.646a1.5,1.5,0,0,0-3,0v24.176a4.859,4.859,0,0,0-1.986,1.191,4.919,4.919,0,1,0,8.235,2.266l6.325-3.963a4.9,4.9,0,0,0,7.948-2.647ZM729.1,745a1.911,1.911,0,0,1-.851,1.2h0a1.918,1.918,0,1,1-1.021-3.544,1.871,1.871,0,0,1,.432.049A1.92,1.92,0,0,1,729.1,745Z" fill="#d6083b"/>
    </g>
  </g>
</svg>
