<svg xmlns="http://www.w3.org/2000/svg" xmlns:xlink="http://www.w3.org/1999/xlink" width="91" height="91" viewBox="0 0 91 91">
  <defs>
    <clipPath id="clip-path">
      <rect width="91" height="91" fill="none"/>
    </clipPath>
  </defs>
  <g id="_1730" data-name="1730" clip-path="url(#clip-path)">
    <g id="Group_13" data-name="Group 13" transform="translate(-787.5 -707.984)">
      <path id="Path_52" data-name="Path 52" d="M833,707.984a45.5,45.5,0,1,0,45.5,45.5A45.551,45.551,0,0,0,833,707.984Zm0,88a42.5,42.5,0,1,1,42.5-42.5A42.548,42.548,0,0,1,833,795.984Z" fill="#d6083b"/>
      <path id="Path_53" data-name="Path 53" d="M816.21,782.654a1.5,1.5,0,1,0-1.49,2.6h-.01a1.472,1.472,0,0,0,.75.2,1.5,1.5,0,0,0,.75-2.8Z" fill="#d6083b"/>
      <path id="Path_54" data-name="Path 54" d="M832.89,719.833a1.5,1.5,0,1,0-.01-3,1.5,1.5,0,0,0,.01,3Z" fill="#d6083b"/>
      <path id="Path_55" data-name="Path 55" d="M801.76,737.283a1.561,1.561,0,0,0,.75.2,1.5,1.5,0,1,0-.75-.2Z" fill="#d6083b"/>
      <path id="Path_56" data-name="Path 56" d="M797.85,752.053a1.5,1.5,0,1,0,1.5,1.5A1.507,1.507,0,0,0,797.85,752.053Z" fill="#d6083b"/>
      <path id="Path_57" data-name="Path 57" d="M801.83,769.814a1.5,1.5,0,0,0,.76,2.8,1.591,1.591,0,0,0,.75-.2,1.5,1.5,0,0,0-1.51-2.6Z" fill="#d6083b"/>
      <path id="Path_58" data-name="Path 58" d="M833.03,787.133a1.5,1.5,0,0,0,.01,3,1.5,1.5,0,1,0-.01-3Z" fill="#d6083b"/>
      <path id="Path_59" data-name="Path 59" d="M815.34,724.583a1.447,1.447,0,0,0,.75-.2,1.51,1.51,0,1,0-.75.2Z" fill="#d6083b"/>
      <path id="Path_60" data-name="Path 60" d="M864.2,769.753a1.5,1.5,0,1,0-1.5,2.59,1.453,1.453,0,0,0,.75.21,1.5,1.5,0,0,0,.75-2.8Z" fill="#d6083b"/>
      <path id="Path_61" data-name="Path 61" d="M868.149,751.833a1.5,1.5,0,0,0-1.5,1.51v.141a1.5,1.5,0,0,0,3,0v-.151A1.5,1.5,0,0,0,868.149,751.833Z" fill="#d6083b"/>
      <path id="Path_62" data-name="Path 62" d="M849.72,724.274a1.5,1.5,0,0,0,1.5-2.6,1.5,1.5,0,0,0-1.5,2.6Z" fill="#d6083b"/>
      <path id="Path_63" data-name="Path 63" d="M849.85,782.623a1.5,1.5,0,0,0,.75,2.8,1.435,1.435,0,0,0,.75-.21,1.5,1.5,0,1,0-1.5-2.59Z" fill="#d6083b"/>
      <path id="Path_64" data-name="Path 64" d="M863.38,737.293a1.435,1.435,0,0,0,.75-.21,1.483,1.483,0,1,0-.75.21Z" fill="#d6083b"/>
      <path id="Path_65" data-name="Path 65" d="M837.4,764.886l-1.812-7.234a4.828,4.828,0,0,0,.9-.7,4.919,4.919,0,1,0-6.957.016,4.85,4.85,0,0,0,1.971,1.175v24.177a1.5,1.5,0,0,0,3,0v-8.384a4.9,4.9,0,1,0,2.9-9.052Zm.145,6.746a1.918,1.918,0,0,1-2.112-2.848,1.9,1.9,0,0,1,1.178-.874,1.919,1.919,0,0,1,.934,3.722Z" fill="#d6083b"/>
    </g>
  </g>
</svg>
