<svg xmlns="http://www.w3.org/2000/svg" xmlns:xlink="http://www.w3.org/1999/xlink" width="91" height="91" viewBox="0 0 91 91">
  <defs>
    <clipPath id="clip-path">
      <rect width="91" height="91" fill="none"/>
    </clipPath>
  </defs>
  <g id="_2000" data-name="2000" clip-path="url(#clip-path)">
    <g id="Group_16" data-name="Group 16" transform="translate(-907.5 -707.984)">
      <path id="Path_92" data-name="Path 92" d="M953,707.984a45.5,45.5,0,1,0,45.5,45.5A45.551,45.551,0,0,0,953,707.984Zm0,88a42.5,42.5,0,1,1,42.5-42.5A42.548,42.548,0,0,1,953,795.984Z" fill="#d6083b"/>
      <path id="Path_93" data-name="Path 93" d="M923.92,770.423a1.1,1.1,0,1,1-.01,0Z" fill="#d6083b"/>
      <path id="Path_94" data-name="Path 94" d="M936.28,782.694a1.5,1.5,0,1,0-1.5,2.6,1.561,1.561,0,0,0,.75.2,1.5,1.5,0,0,0,.75-2.8Z" fill="#d6083b"/>
      <path id="Path_95" data-name="Path 95" d="M935.4,724.543a1.417,1.417,0,0,0,.75-.2,1.509,1.509,0,1,0-.75.2Z" fill="#d6083b"/>
      <path id="Path_96" data-name="Path 96" d="M921.8,737.213a1.422,1.422,0,0,0,.75.2,1.513,1.513,0,0,0,1.3-.75h-.01a1.5,1.5,0,1,0-2.04.55Z" fill="#d6083b"/>
      <circle id="Ellipse_4" data-name="Ellipse 4" cx="1.5" cy="1.5" r="1.5" transform="translate(951.46 716.833)" fill="#d6083b"/>
      <path id="Path_97" data-name="Path 97" d="M917.85,751.984a1.5,1.5,0,0,0-1.5,1.5v.149a1.5,1.5,0,1,0,3-.01v-.139A1.5,1.5,0,0,0,917.85,751.984Z" fill="#d6083b"/>
      <path id="Path_98" data-name="Path 98" d="M983.42,737.354a1.6,1.6,0,0,0,.75-.2,1.5,1.5,0,1,0-.75.2Z" fill="#d6083b"/>
      <path id="Path_99" data-name="Path 99" d="M984.24,769.684a1.5,1.5,0,1,0-1.5,2.6,1.453,1.453,0,0,0,.75.2,1.5,1.5,0,0,0,.75-2.8Z" fill="#d6083b"/>
      <path id="Path_100" data-name="Path 100" d="M969.91,782.583a1.5,1.5,0,1,0,2.05.54A1.512,1.512,0,0,0,969.91,782.583Z" fill="#d6083b"/>
      <path id="Path_101" data-name="Path 101" d="M988.149,751.913a1.5,1.5,0,1,0,1.5,1.491A1.5,1.5,0,0,0,988.149,751.913Z" fill="#d6083b"/>
      <path id="Path_102" data-name="Path 102" d="M969.79,724.314a1.523,1.523,0,0,0,.74.2,1.5,1.5,0,1,0-.74-.2Z" fill="#d6083b"/>
      <circle id="Ellipse_5" data-name="Ellipse 5" cx="1.5" cy="1.5" r="1.5" transform="translate(951.609 787.133)" fill="#d6083b"/>
      <path id="Path_103" data-name="Path 103" d="M954.5,748.822V724.646a1.5,1.5,0,0,0-3,0v24.176a4.852,4.852,0,0,0-1.986,1.191,4.905,4.905,0,0,0-1.17,4.986l-6.051,4.376a4.848,4.848,0,0,0-5.781-.038h0a4.918,4.918,0,1,0,7.739,4.765,4.871,4.871,0,0,0-.2-2.3l6.048-4.373a4.907,4.907,0,1,0,4.4-8.611Zm-13.212,14.8a1.9,1.9,0,0,1-.769,1.25,1.918,1.918,0,1,1,.429-2.678A1.9,1.9,0,0,1,941.288,763.627Z" fill="#d6083b"/>
    </g>
  </g>
</svg>
