<svg xmlns="http://www.w3.org/2000/svg" xmlns:xlink="http://www.w3.org/1999/xlink" width="98.521" height="87" viewBox="0 0 98.521 87">
  <defs>
    <clipPath id="clip-path">
      <rect width="98.521" height="87" fill="none"/>
    </clipPath>
  </defs>
  <g id="accom" clip-path="url(#clip-path)">
    <g id="Group_7" data-name="Group 7">
      <path id="Path_497" data-name="Path 497" d="M1596.232-138.82a9.829,9.829,0,0,0-9.818-9.818,9.828,9.828,0,0,0-9.818,9.818,9.828,9.828,0,0,0,9.818,9.817A9.828,9.828,0,0,0,1596.232-138.82Zm-16.314,0a6.5,6.5,0,0,1,6.5-6.5,6.5,6.5,0,0,1,6.5,6.5,6.5,6.5,0,0,1-6.5,6.5A6.5,6.5,0,0,1,1579.918-138.82Z" transform="translate(-1537.154 161.961)" fill="#fff"/>
      <path id="Path_498" data-name="Path 498" d="M1586.949-145.355h-2.214v5.106h-2.787v2.214h5Z" transform="translate(-1536.582 162.313)" fill="#fff"/>
      <path id="Path_499" data-name="Path 499" d="M1555.74-125.79a1.66,1.66,0,0,0,1.66-1.66v-1.064a1.66,1.66,0,0,0-1.66-1.66,1.66,1.66,0,0,0-1.661,1.66v1.064A1.66,1.66,0,0,0,1555.74-125.79Z" transform="translate(-1539.563 163.936)" fill="#fff"/>
      <path id="Path_500" data-name="Path 500" d="M1611.368-108v-7.546h8.043l-2.656-16.712h-14.1L1600-115.542h8.044v7.528h-29.026c-.614-3.791-3.331-6.657-6.583-6.657h-9.383a6.536,6.536,0,0,0-5.656,3.837v-11.115a1.661,1.661,0,0,0-1.66-1.66,1.661,1.661,0,0,0-1.661,1.66v43.575a1.66,1.66,0,0,0,1.661,1.66,1.66,1.66,0,0,0,1.66-1.66v-9.646h62.848v9.639a1.66,1.66,0,0,0,1.66,1.66,1.66,1.66,0,0,0,1.66-1.66V-96.655C1623.569-102.8,1618.129-107.8,1611.368-108Zm-5.875-20.937h8.428l1.6,10.07h-11.629Zm-42.438,17.583h9.383c1.451,0,2.711,1.42,3.184,3.336h-15.75C1560.346-109.93,1561.605-111.35,1563.055-111.35ZM1557.4-91.342v-3.653h10.347a1.661,1.661,0,0,0,1.66-1.66,1.66,1.66,0,0,0-1.66-1.66H1557.4v-6.377h53.571c4.374,0,8.154,2.785,9.065,6.377h-45.647a1.66,1.66,0,0,0-1.661,1.66,1.661,1.661,0,0,0,1.661,1.66h45.859v3.653Z" transform="translate(-1539.563 163.714)" fill="#fff"/>
      <path id="Path_501" data-name="Path 501" d="M1639.141-116.675l-14.155-18.386v-19.907a1.661,1.661,0,0,0-1.661-1.66h-8.913a1.661,1.661,0,0,0-1.661,1.66v4.017l-6.987-9.076a1.664,1.664,0,0,0-1.316-.648H1576a1.661,1.661,0,0,0-1.315.648l-33.377,43.351a1.66,1.66,0,0,0,.3,2.328,1.659,1.659,0,0,0,2.328-.3l32.878-42.7h26.812l32.878,42.7a1.659,1.659,0,0,0,1.317.648,1.655,1.655,0,0,0,1.012-.345A1.659,1.659,0,0,0,1639.141-116.675Zm-23.068-36.632h5.592v13.933l-5.592-7.263Z" transform="translate(-1540.966 160.674)" fill="#fff"/>
    </g>
  </g>
</svg>
