<svg xmlns="http://www.w3.org/2000/svg" xmlns:xlink="http://www.w3.org/1999/xlink" width="187.139" height="69.729" viewBox="0 0 187.139 69.729">
  <defs>
    <clipPath id="clip-path">
      <rect width="187.139" height="69.729" fill="none"/>
    </clipPath>
    <clipPath id="clip-path-2">
      <rect width="81" height="69.729" fill="none"/>
    </clipPath>
  </defs>
  <g id="bus" clip-path="url(#clip-path)">
    <g id="bus-old" transform="translate(106.139)" clip-path="url(#clip-path-2)">
      <g id="Group_46" data-name="Group 46" transform="translate(-335.89 -909.349)">
        <path id="Path_251" data-name="Path 251" d="M415.885,950.111l-3.234-1.132V923.563a14.229,14.229,0,0,0-14.213-14.214H357.864a1.5,1.5,0,0,0,0,3h40.574a11.226,11.226,0,0,1,11.213,11.214v13.089H397.816a1.5,1.5,0,0,0-1.5,1.5v11.63a1.5,1.5,0,0,0,1.5,1.5h12.509a1.526,1.526,0,0,0,.331.178l3.234,1.131v14.365a2.879,2.879,0,0,1-2.875,2.875h-6.39a7.849,7.849,0,0,0-15.447,0H362.247a7.868,7.868,0,0,0-6.226-6.3V945.05a1.5,1.5,0,0,0-1.5-1.5H338.89v-3.9h47.3a1.5,1.5,0,0,0,0-3h-47.3v-7.268a1.5,1.5,0,0,0-3,0v29.233a14.317,14.317,0,0,0,10.883,13.8,7.838,7.838,0,0,0,15.425.418h27.028a7.838,7.838,0,0,0,15.35,0h6.439a5.882,5.882,0,0,0,5.875-5.875V951.527A1.5,1.5,0,0,0,415.885,950.111Zm-6.234-1.829H399.316v-8.63h10.335Zm-62.2,19.563V949.782a1.5,1.5,0,0,0-3,0v18.489a11.28,11.28,0,0,1-5.565-9.654V946.55h14.131v16.98A7.894,7.894,0,0,0,347.455,967.845Zm11.913,3.45,0,.012a4.848,4.848,0,0,1-9.7,0c0-.03,0-.079.005-.117v-.008a4.849,4.849,0,0,1,9.7-.016c0,.026-.007.1-.007.122Zm42.378,0v.008a4.844,4.844,0,0,1-9.687,0c0-.019-.006-.038-.007-.058s0-.014,0-.021a4.849,4.849,0,0,1,9.7-.055C401.749,971.2,401.747,971.257,401.746,971.3Z" fill="#fff"/>
        <path id="Path_252" data-name="Path 252" d="M337.39,925.063a1.5,1.5,0,0,0,1.5-1.5A11.227,11.227,0,0,1,350.1,912.349a1.5,1.5,0,0,0,0-3,14.23,14.23,0,0,0-14.214,14.214A1.5,1.5,0,0,0,337.39,925.063Z" fill="#fff"/>
        <path id="Path_253" data-name="Path 253" d="M349.5,918.811a1.5,1.5,0,0,0,1.5,1.5h2.452a.639.639,0,0,1,.631.63v6.314a.638.638,0,0,1-.631.629H348a.638.638,0,0,1-.631-.629V923.94a1.5,1.5,0,0,0-3,0v3.315A3.634,3.634,0,0,0,348,930.884h5.45a3.634,3.634,0,0,0,3.631-3.629v-6.314a3.634,3.634,0,0,0-3.631-3.63H351A1.5,1.5,0,0,0,349.5,918.811Z" fill="#fff"/>
        <path id="Path_254" data-name="Path 254" d="M361.323,922.441a1.5,1.5,0,0,0-1.5,1.5v3.314a3.633,3.633,0,0,0,3.63,3.629H368.9a3.633,3.633,0,0,0,3.63-3.629v-6.314a3.634,3.634,0,0,0-3.63-3.63h-5.451a1.5,1.5,0,0,0,0,3H368.9a.638.638,0,0,1,.63.63v6.314a.638.638,0,0,1-.63.629h-5.451a.638.638,0,0,1-.63-.629v-3.314A1.5,1.5,0,0,0,361.323,922.441Z" fill="#fff"/>
        <path id="Path_255" data-name="Path 255" d="M376.777,922.441a1.5,1.5,0,0,0-1.5,1.5v3.314a3.634,3.634,0,0,0,3.631,3.629h5.45a3.634,3.634,0,0,0,3.631-3.629v-6.314a3.634,3.634,0,0,0-3.631-3.63h-5.45a1.5,1.5,0,0,0,0,3h5.45a.639.639,0,0,1,.631.63v6.314a.638.638,0,0,1-.631.629h-5.45a.638.638,0,0,1-.631-.629v-3.314A1.5,1.5,0,0,0,376.777,922.441Z" fill="#fff"/>
        <path id="Path_256" data-name="Path 256" d="M363.453,943.55a3.634,3.634,0,0,0-3.63,3.631v6.313a3.634,3.634,0,0,0,3.63,3.631H368.9a3.634,3.634,0,0,0,3.63-3.631v-6.313a3.634,3.634,0,0,0-3.63-3.631Zm6.081,3.631v6.313a.639.639,0,0,1-.63.631h-5.451a.639.639,0,0,1-.63-.631v-6.313a.639.639,0,0,1,.63-.631H368.9A.639.639,0,0,1,369.534,947.181Z" fill="#fff"/>
        <path id="Path_257" data-name="Path 257" d="M384.358,943.55h-5.45a3.635,3.635,0,0,0-3.631,3.631v6.313a3.635,3.635,0,0,0,3.631,3.631h5.45a3.635,3.635,0,0,0,3.631-3.631v-6.313A3.635,3.635,0,0,0,384.358,943.55Zm.631,9.944a.64.64,0,0,1-.631.631h-5.45a.639.639,0,0,1-.631-.631v-6.313a.64.64,0,0,1,.631-.631h5.45a.64.64,0,0,1,.631.631Z" fill="#fff"/>
        <path id="Path_258" data-name="Path 258" d="M392.232,922.441a1.5,1.5,0,0,0-1.5,1.5v3.314a3.633,3.633,0,0,0,3.63,3.629h5.451a3.633,3.633,0,0,0,3.63-3.629v-3.3a6.653,6.653,0,0,0-6.645-6.646h-2.436a1.5,1.5,0,1,0,0,3H396.8a3.65,3.65,0,0,1,3.645,3.646v3.3a.638.638,0,0,1-.63.629h-5.451a.638.638,0,0,1-.63-.629v-3.314A1.5,1.5,0,0,0,392.232,922.441Z" fill="#fff"/>
      </g>
    </g>
    <g id="Union_1" data-name="Union 1" transform="translate(69 47.583)" fill="none" stroke-linecap="round">
      <path d="M5.424,9.8A5.182,5.182,0,0,1,0,4.9,5.182,5.182,0,0,1,5.424,0a5.455,5.455,0,0,1,5.018,3.037A4.215,4.215,0,0,1,11.69,2.85a3.675,3.675,0,0,1,3.847,3.475A3.675,3.675,0,0,1,11.69,9.8Z" stroke="none"/>
      <path d="M 11.69037437438965 9.800437927246094 C 13.81475448608398 9.800437927246094 15.53698444366455 8.244458198547363 15.53698444366455 6.324917793273926 C 15.53698444366455 4.405608177185059 13.81475448608398 2.84962797164917 11.69037437438965 2.84962797164917 C 11.2532844543457 2.84962797164917 10.83320426940918 2.915518045425415 10.44165420532227 3.036868095397949 C 9.629974365234375 1.254778027534485 7.689023971557617 -1.990051259781467e-06 5.423794269561768 -1.990051259781467e-06 C 2.428354024887085 -1.990051259781467e-06 4.12918097936199e-06 2.193938016891479 4.12918097936199e-06 4.90021800994873 C 4.12918097936199e-06 7.606507778167725 2.428354024887085 9.800437927246094 5.423794269561768 9.800437927246094 L 11.69037437438965 9.800437927246094 M 11.69037437438965 12.80043792724609 L 5.423794269561768 12.80043792724609 C 3.230574131011963 12.80043792724609 1.154304146766663 12.0158576965332 -0.4225458800792694 10.59122848510742 C -2.084635972976685 9.089577674865723 -2.999995946884155 7.068478107452393 -2.999995946884155 4.90021800994873 C -2.999995946884155 2.731967926025391 -2.084635972976685 0.7108579874038696 -0.4225458800792694 -0.7907819747924805 C 1.154304146766663 -2.215421915054321 3.230574131011963 -3.000001907348633 5.423794269561768 -3.000001907348633 C 7.976898193359375 -3.000001907348633 10.33644866943359 -1.92686915397644 11.90989303588867 -0.1471095383167267 C 13.6007194519043 -0.09681395441293716 15.1954402923584 0.533804714679718 16.42147445678711 1.641487956047058 C 17.76591491699219 2.85614800453186 18.53698348999023 4.563188076019287 18.53698348999023 6.324917793273926 C 18.53698348999023 8.08671760559082 17.76593399047852 9.793818473815918 16.42152404785156 11.0084981918335 C 15.14257431030273 12.16404819488525 13.4623441696167 12.80043792724609 11.69037437438965 12.80043792724609 Z" stroke="none" fill="#fff"/>
    </g>
    <g id="Union_2" data-name="Union 2" transform="translate(36 47.583)" fill="none" stroke-linecap="round">
      <path d="M5.424,9.8A5.182,5.182,0,0,1,0,4.9,5.182,5.182,0,0,1,5.424,0a5.455,5.455,0,0,1,5.018,3.037A4.215,4.215,0,0,1,11.69,2.85a3.675,3.675,0,0,1,3.847,3.475A3.675,3.675,0,0,1,11.69,9.8Z" stroke="none"/>
      <path d="M 11.69037437438965 9.800437927246094 C 13.81475448608398 9.800437927246094 15.53698444366455 8.244458198547363 15.53698444366455 6.324917793273926 C 15.53698444366455 4.405608177185059 13.81475448608398 2.84962797164917 11.69037437438965 2.84962797164917 C 11.2532844543457 2.84962797164917 10.83320426940918 2.915518045425415 10.44165420532227 3.036868095397949 C 9.629974365234375 1.254778027534485 7.689023971557617 -1.990051259781467e-06 5.423794269561768 -1.990051259781467e-06 C 2.428354024887085 -1.990051259781467e-06 4.12918097936199e-06 2.193938016891479 4.12918097936199e-06 4.90021800994873 C 4.12918097936199e-06 7.606507778167725 2.428354024887085 9.800437927246094 5.423794269561768 9.800437927246094 L 11.69037437438965 9.800437927246094 M 11.69037437438965 12.80043792724609 L 5.423794269561768 12.80043792724609 C 3.230574131011963 12.80043792724609 1.154304146766663 12.0158576965332 -0.4225458800792694 10.59122848510742 C -2.084635972976685 9.089577674865723 -2.999995946884155 7.068478107452393 -2.999995946884155 4.90021800994873 C -2.999995946884155 2.731967926025391 -2.084635972976685 0.7108579874038696 -0.4225458800792694 -0.7907819747924805 C 1.154304146766663 -2.215421915054321 3.230574131011963 -3.000001907348633 5.423794269561768 -3.000001907348633 C 7.976898193359375 -3.000001907348633 10.33644866943359 -1.92686915397644 11.90989303588867 -0.1471095383167267 C 13.6007194519043 -0.09681395441293716 15.1954402923584 0.533804714679718 16.42147445678711 1.641487956047058 C 17.76591491699219 2.85614800453186 18.53698348999023 4.563188076019287 18.53698348999023 6.324917793273926 C 18.53698348999023 8.08671760559082 17.76593399047852 9.793818473815918 16.42152404785156 11.0084981918335 C 15.14257431030273 12.16404819488525 13.4623441696167 12.80043792724609 11.69037437438965 12.80043792724609 Z" stroke="none" fill="#fff"/>
    </g>
    <g id="Union_3" data-name="Union 3" transform="translate(36 47.583)" fill="none" stroke-linecap="round">
      <path d="M5.424,9.8A5.182,5.182,0,0,1,0,4.9,5.182,5.182,0,0,1,5.424,0a5.455,5.455,0,0,1,5.018,3.037A4.215,4.215,0,0,1,11.69,2.85a3.675,3.675,0,0,1,3.847,3.475A3.675,3.675,0,0,1,11.69,9.8Z" stroke="none"/>
      <path d="M 11.69037437438965 9.800437927246094 C 13.81475448608398 9.800437927246094 15.53698444366455 8.244458198547363 15.53698444366455 6.324917793273926 C 15.53698444366455 4.405608177185059 13.81475448608398 2.84962797164917 11.69037437438965 2.84962797164917 C 11.2532844543457 2.84962797164917 10.83320426940918 2.915518045425415 10.44165420532227 3.036868095397949 C 9.629974365234375 1.254778027534485 7.689023971557617 -1.990051259781467e-06 5.423794269561768 -1.990051259781467e-06 C 2.428354024887085 -1.990051259781467e-06 4.12918097936199e-06 2.193938016891479 4.12918097936199e-06 4.90021800994873 C 4.12918097936199e-06 7.606507778167725 2.428354024887085 9.800437927246094 5.423794269561768 9.800437927246094 L 11.69037437438965 9.800437927246094 M 11.69037437438965 12.80043792724609 L 5.423794269561768 12.80043792724609 C 3.230574131011963 12.80043792724609 1.154304146766663 12.0158576965332 -0.4225458800792694 10.59122848510742 C -2.084635972976685 9.089577674865723 -2.999995946884155 7.068478107452393 -2.999995946884155 4.90021800994873 C -2.999995946884155 2.731967926025391 -2.084635972976685 0.7108579874038696 -0.4225458800792694 -0.7907819747924805 C 1.154304146766663 -2.215421915054321 3.230574131011963 -3.000001907348633 5.423794269561768 -3.000001907348633 C 7.976898193359375 -3.000001907348633 10.33644866943359 -1.92686915397644 11.90989303588867 -0.1471095383167267 C 13.6007194519043 -0.09681395441293716 15.1954402923584 0.533804714679718 16.42147445678711 1.641487956047058 C 17.76591491699219 2.85614800453186 18.53698348999023 4.563188076019287 18.53698348999023 6.324917793273926 C 18.53698348999023 8.08671760559082 17.76593399047852 9.793818473815918 16.42152404785156 11.0084981918335 C 15.14257431030273 12.16404819488525 13.4623441696167 12.80043792724609 11.69037437438965 12.80043792724609 Z" stroke="none" fill="#fff"/>
    </g>
    <g id="Union_4" data-name="Union 4" transform="translate(3 47.583)" fill="none" stroke-linecap="round">
      <path d="M5.424,9.8A5.182,5.182,0,0,1,0,4.9,5.182,5.182,0,0,1,5.424,0a5.455,5.455,0,0,1,5.018,3.037A4.215,4.215,0,0,1,11.69,2.85a3.675,3.675,0,0,1,3.847,3.475A3.675,3.675,0,0,1,11.69,9.8Z" stroke="none"/>
      <path d="M 11.69037437438965 9.800437927246094 C 13.81475448608398 9.800437927246094 15.53698444366455 8.244458198547363 15.53698444366455 6.324917793273926 C 15.53698444366455 4.405608177185059 13.81475448608398 2.84962797164917 11.69037437438965 2.84962797164917 C 11.2532844543457 2.84962797164917 10.83320426940918 2.915518045425415 10.44165420532227 3.036868095397949 C 9.629974365234375 1.254778027534485 7.689023971557617 -1.990051259781467e-06 5.423794269561768 -1.990051259781467e-06 C 2.428354024887085 -1.990051259781467e-06 4.12918097936199e-06 2.193938016891479 4.12918097936199e-06 4.90021800994873 C 4.12918097936199e-06 7.606507778167725 2.428354024887085 9.800437927246094 5.423794269561768 9.800437927246094 L 11.69037437438965 9.800437927246094 M 11.69037437438965 12.80043792724609 L 5.423794269561768 12.80043792724609 C 3.230574131011963 12.80043792724609 1.154304146766663 12.0158576965332 -0.4225458800792694 10.59122848510742 C -2.084635972976685 9.089577674865723 -2.999995946884155 7.068478107452393 -2.999995946884155 4.90021800994873 C -2.999995946884155 2.731967926025391 -2.084635972976685 0.7108579874038696 -0.4225458800792694 -0.7907819747924805 C 1.154304146766663 -2.215421915054321 3.230574131011963 -3.000001907348633 5.423794269561768 -3.000001907348633 C 7.976898193359375 -3.000001907348633 10.33644866943359 -1.92686915397644 11.90989303588867 -0.1471095383167267 C 13.6007194519043 -0.09681395441293716 15.1954402923584 0.533804714679718 16.42147445678711 1.641487956047058 C 17.76591491699219 2.85614800453186 18.53698348999023 4.563188076019287 18.53698348999023 6.324917793273926 C 18.53698348999023 8.08671760559082 17.76593399047852 9.793818473815918 16.42152404785156 11.0084981918335 C 15.14257431030273 12.16404819488525 13.4623441696167 12.80043792724609 11.69037437438965 12.80043792724609 Z" stroke="none" fill="#fff"/>
    </g>
  </g>
</svg>
