<svg xmlns="http://www.w3.org/2000/svg" xmlns:xlink="http://www.w3.org/1999/xlink" width="85.702" height="87" viewBox="0 0 85.702 87">
  <defs>
    <clipPath id="clip-path">
      <rect width="85.702" height="87" fill="none"/>
    </clipPath>
  </defs>
  <g id="dedic" clip-path="url(#clip-path)">
    <path id="Path_481" data-name="Path 481" d="M1130.751-131.662V-160.44a4.442,4.442,0,0,0-4.438-4.437h-10.72a4.441,4.441,0,0,0-4.437,4.437v8.36a40.408,40.408,0,0,0-5.484-2.183c-.239-4.587-5.573-8.137-12.359-8.137h-4.082c-6.786,0-12.12,3.55-12.359,8.137a40.414,40.414,0,0,0-5.484,2.183v-8.36a4.442,4.442,0,0,0-4.438-4.437h-10.72a4.441,4.441,0,0,0-4.437,4.437v28.778a40.436,40.436,0,0,0-3.372,16.194v19.157a18.454,18.454,0,0,0,18.433,18.434h48.835a18.454,18.454,0,0,0,18.434-18.434v-19.157A40.434,40.434,0,0,0,1130.751-131.662Zm-16.595-28.778a1.438,1.438,0,0,1,1.437-1.437h10.72a1.439,1.439,0,0,1,1.438,1.437v23.156a40.984,40.984,0,0,0-13.595-13.173Zm-24.925,1.04h4.082c4.391,0,8.187,1.863,9.143,4.275a40.649,40.649,0,0,0-9.008-1.018H1089.1a40.648,40.648,0,0,0-9.008,1.018C1081.044-157.537,1084.84-159.4,1089.231-159.4Zm-34.438-1.04a1.438,1.438,0,0,1,1.437-1.437h10.72a1.439,1.439,0,0,1,1.438,1.437v9.983a40.985,40.985,0,0,0-13.595,13.173Zm76.33,64.129a15.451,15.451,0,0,1-15.434,15.434h-48.835a15.451,15.451,0,0,1-15.433-15.434v-19.157a37.717,37.717,0,0,1,37.675-37.675h4.352A37.719,37.719,0,0,1,1127.76-131a1.492,1.492,0,0,0,.438.981,37.471,37.471,0,0,1,2.925,14.549Z" transform="translate(-1048.421 164.877)" fill="#fff"/>
    <path id="Path_482" data-name="Path 482" d="M1120.85-122.953H1112.8l2.871-5.54c.014-.026.02-.054.032-.081a1.35,1.35,0,0,0,.061-.154,1.345,1.345,0,0,0,.035-.139,1.353,1.353,0,0,0,.026-.144c.006-.054.007-.108.008-.162,0-.03.006-.059,0-.089l-.633-11.905a1.5,1.5,0,0,0-.808-1.253,1.5,1.5,0,0,0-1.489.063l-10.091,6.348c-.022.013-.039.032-.06.046-.041.03-.081.06-.12.094a1.454,1.454,0,0,0-.106.1,1.127,1.127,0,0,0-.09.105c-.033.042-.064.085-.092.129-.011.018-.026.033-.037.052l-7.128,12.529h-1.457l-.8-8.443a5.787,5.787,0,0,0-6.3-5.214l-17.67,1.664a5.738,5.738,0,0,0-3.907,2.073,5.732,5.732,0,0,0-1.307,4.225l.536,5.695h-2.593a4.506,4.506,0,0,0-4.5,4.5v21A11.519,11.519,0,0,0,1068.7-85.947h45.144a11.52,11.52,0,0,0,11.506-11.506v-21A4.505,4.505,0,0,0,1120.85-122.953Zm-8.146-8.768-6.069-3.145,5.711-3.593Zm-8.5-1.023,8.111,4.2-2.9,5.588h-10.787Zm-37.471,3.815a2.765,2.765,0,0,1,.631-2.031,2.76,2.76,0,0,1,1.878-1l17.67-1.664a2.787,2.787,0,0,1,3.03,2.509l.769,8.161H1067.3Zm55.613,31.476a8.516,8.516,0,0,1-8.506,8.506H1068.7a8.516,8.516,0,0,1-8.506-8.506v-21a1.5,1.5,0,0,1,1.5-1.5h59.156a1.5,1.5,0,0,1,1.5,1.5Z" transform="translate(-1048.421 164.877)" fill="#fff"/>
    <path id="Path_483" data-name="Path 483" d="M1098.363-101.726l-.009-.019-5.535-12.995a1.688,1.688,0,0,0-1.548-1.072h0a1.687,1.687,0,0,0-1.546,1.076l-5.534,12.991-.007.018-3.254,7.639a1.5,1.5,0,0,0,.792,1.968,1.5,1.5,0,0,0,1.968-.792l2.87-6.74h9.428l2.87,6.74a1.5,1.5,0,0,0,1.381.912,1.486,1.486,0,0,0,.587-.12,1.5,1.5,0,0,0,.792-1.968Zm-10.527-.926,3.436-8.066,3.436,8.066Z" transform="translate(-1048.421 164.877)" fill="#fff"/>
    <path id="Path_484" data-name="Path 484" d="M1080.839-132l-5.32.5a1.5,1.5,0,0,0-1.353,1.634,1.5,1.5,0,0,0,1.491,1.359,1.38,1.38,0,0,0,.143-.006l5.32-.5a1.5,1.5,0,0,0,1.353-1.634A1.488,1.488,0,0,0,1080.839-132Z" transform="translate(-1048.421 164.877)" fill="#fff"/>
  </g>
</svg>
