<svg xmlns="http://www.w3.org/2000/svg" xmlns:xlink="http://www.w3.org/1999/xlink" width="90.014" height="100" viewBox="0 0 90.014 100">
  <defs>
    <clipPath id="clip-path">
      <rect width="90.014" height="100" fill="none"/>
    </clipPath>
    <linearGradient id="linear-gradient" x1="-7.098" y1="-2.565" x2="13.476" y2="5.915" gradientUnits="objectBoundingBox">
      <stop offset="0" stop-color="#240f6e"/>
      <stop offset="1" stop-color="#d6083b"/>
    </linearGradient>
    <linearGradient id="linear-gradient-2" x1="-13.568" y1="-5.232" x2="7.007" y2="3.248" xlink:href="#linear-gradient"/>
    <linearGradient id="linear-gradient-3" x1="0.109" y1="0.208" x2="0.84" y2="0.866" xlink:href="#linear-gradient"/>
    <linearGradient id="linear-gradient-4" x1="-0.409" y1="-6.196" x2="3.015" y2="19.014" xlink:href="#linear-gradient"/>
    <linearGradient id="linear-gradient-5" x1="-2.407" y1="-3.473" x2="16.039" y2="21.736" xlink:href="#linear-gradient"/>
    <linearGradient id="linear-gradient-6" x1="-0.381" y1="-0.813" x2="16.546" y2="24.397" xlink:href="#linear-gradient"/>
    <linearGradient id="linear-gradient-7" x1="-0.034" y1="-3.565" x2="3.28" y2="21.645" xlink:href="#linear-gradient"/>
    <linearGradient id="linear-gradient-8" x1="0.126" y1="-0.077" x2="2.437" y2="3.907" xlink:href="#linear-gradient"/>
    <linearGradient id="linear-gradient-9" x1="2.112" y1="2.706" x2="20.548" y2="27.925" xlink:href="#linear-gradient"/>
    <linearGradient id="linear-gradient-10" x1="0.524" y1="0.625" x2="5.296" y2="25.845" xlink:href="#linear-gradient"/>
  </defs>
  <g id="eng" clip-path="url(#clip-path)">
    <g id="Group_60" data-name="Group 60">
      <path id="Path_1" data-name="Path 1" d="M101.921,261.478s-.09-1.95-1.61-1.974-1.588,1.906-1.588,1.906v5.853H101.9Z" transform="translate(-88.172 -196.777)" fill="url(#linear-gradient)"/>
      <path id="Path_2" data-name="Path 2" d="M141.689,259.5c-1.52-.022-1.588,1.906-1.588,1.906v5.853h3.176l.022-5.785S143.21,259.528,141.689,259.5Z" transform="translate(-88.172 -196.777)" fill="url(#linear-gradient-2)"/>
      <path id="Path_3" data-name="Path 3" d="M176.58,293.565H174V258.43h1.116a1.607,1.607,0,0,0,1.606-1.606V236.407a1.607,1.607,0,0,0-1.606-1.607,1.585,1.585,0,0,0-.747.192c0-.28.005-.559.007-.831a1.6,1.6,0,0,0,1.257-1.565v-3.811a1.606,1.606,0,1,0-3.213,0v1.373a13.34,13.34,0,0,1-1.9-5.118,1.587,1.587,0,0,0-.282-.707v-4a1.6,1.6,0,0,0,.079-1.318,70.552,70.552,0,0,1-4.126-20.676,1.607,1.607,0,0,0-1.6-1.566h-.021a1.606,1.606,0,0,0-1.586,1.606,50.159,50.159,0,0,1-4.433,20.671,1.6,1.6,0,0,0,.012,1.482v4.54a1.6,1.6,0,0,0,.116.593,10.809,10.809,0,0,1-1.553,3.756v-.641a1.606,1.606,0,1,0-3.213,0V232.6a1.606,1.606,0,0,0,.987,1.481l-.008,1.086a1.587,1.587,0,0,0-1.005-.363,1.607,1.607,0,0,0-1.606,1.607v20.417a1.606,1.606,0,0,0,1.606,1.606H155V260.1h-4.334l.008-6.532h-.138l-1.746-12.01a1.605,1.605,0,0,0-1.589-1.375h-.014a1.606,1.606,0,0,0-1.58,1.4l-.249,1.953h-7.516l-.277-1.973a1.606,1.606,0,0,0-1.59-1.383h-.01a1.607,1.607,0,0,0-1.584,1.4l-1.654,12.976a1.582,1.582,0,0,0,.01.43,1.531,1.531,0,0,0-.023.227V260.1H109.244v-4.854h-.184c0-.01,0-.018,0-.027a1.569,1.569,0,0,0-.033-.324,1.6,1.6,0,0,0,0-.352l-1.615-12.953a1.606,1.606,0,0,0-1.592-1.407h0a1.606,1.606,0,0,0-1.594,1.4l-.249,1.953H96.46l-.277-1.973a1.606,1.606,0,0,0-1.591-1.383h-.01a1.606,1.606,0,0,0-1.583,1.4l-1.654,12.976a2.72,2.72,0,0,1-.014.657v38.347H89.779a1.606,1.606,0,1,0,0,3.212h86.8a1.606,1.606,0,1,0,0-3.212Zm-56.665-20.95v7.669H109.244v-7.672l.027,0Zm12.8,0v7.669h-9.582v-7.669Zm3.213-15.792h11.531l-.015,12.578H135.923Zm0,26.674h11.5l0,4.2H135.923Zm-3.213,4.2h-9.582v-4.2h9.582Zm17.925-4.2H155v4.2H150.63Zm7.574,0h12.577v4.2H158.209Zm12.577-3.213H158.209v-7.669h12.577Zm-15.79,0h-4.358l.009-7.669H155Zm-7.57,0h-11.5v-7.669h11.512ZM94.559,272.8h11.472v7.489H94.867a1.631,1.631,0,0,0-.323.033v-7.524Zm11.472-15.972v12.759H94.559l-.015,0V256.823ZM94.544,283.464a1.631,1.631,0,0,0,.323.033h11.164v4.2H94.544Zm14.7.033h10.671v4.2H109.244Zm10.671,7.411v2.657H109.244v-2.657Zm3.213,0h9.582v2.657h-9.582Zm12.8,0h11.49l0,2.657H135.923Zm14.7,0H155v2.657h-4.373Zm7.583,0h12.577v2.657H158.209Zm3.56-67.438v-2.076h5.255v2.076Zm-.035,3.214h5.833a17.191,17.191,0,0,0,1.45,4.033H160.1A13.985,13.985,0,0,0,161.734,226.684Zm9.43,7.246c-.008,1.178-.025,2.6-.034,3.321H158.085l.022-3.321Zm-7.836,15.125a1.607,1.607,0,0,0,1.132.467h.015l3.4-.032a1.574,1.574,0,0,0,.5-.091,4.282,4.282,0,1,1-5.051-5.9,1.6,1.6,0,0,0-.454,1.111l-.009,3.3A1.606,1.606,0,0,0,163.328,249.055Zm4.512-2.778-1.77.017,0-1.672a1.6,1.6,0,0,0-.459-1.126,4.276,4.276,0,0,1,2.976,2.968A1.561,1.561,0,0,0,167.84,246.277Zm-12.353,8.941V240.463h6.722a7.5,7.5,0,1,0,4.539,0h6.76v14.755Zm9.175-44.088c.68,2.992,1.425,5.452,1.955,7.051h-4.18A51.778,51.778,0,0,0,164.662,211.13Zm6.124,47.3V269.4H158.209V258.43ZM155,263.312V269.4h-4.345l.007-6.089Zm-10.052-16.561-.874,6.86h-4.818l-.963-6.86ZM132.71,263.312V269.4h-2.5V267.83a1.607,1.607,0,0,0-3.214,0V269.4h-2.776V267.83a1.606,1.606,0,0,0-3.212,0V269.4h-1.96V267.83a1.606,1.606,0,0,0-3.213,0V269.4H113.6V267.83a1.606,1.606,0,0,0-3.213,0V269.4h-1.116l-.027,0v-6.092Zm-29.144-16.561-.875,6.86H97.873l-.962-6.86Zm-9.022,44.157h11.487v2.657H94.544Z" transform="translate(-88.172 -196.777)" fill="url(#linear-gradient-3)"/>
      <path id="Path_4" data-name="Path 4" d="M120.655,220.308a1.305,1.305,0,1,0,0,2.61h16.6a1.305,1.305,0,1,0,0-2.61Z" transform="translate(-88.172 -196.777)" fill="url(#linear-gradient-4)"/>
      <path id="Path_5" data-name="Path 5" d="M114.27,220.308a1.305,1.305,0,1,0,0,2.61h.957a1.305,1.305,0,1,0,0-2.61Z" transform="translate(-88.172 -196.777)" fill="url(#linear-gradient-5)"/>
      <path id="Path_6" data-name="Path 6" d="M105.329,215.2a1.305,1.305,0,1,0,0,2.61h1.277a1.305,1.305,0,1,0,0-2.61Z" transform="translate(-88.172 -196.777)" fill="url(#linear-gradient-6)"/>
      <path id="Path_7" data-name="Path 7" d="M111.715,217.809h17.244a1.305,1.305,0,0,0,0-2.61H111.715a1.305,1.305,0,0,0,0,2.61Z" transform="translate(-88.172 -196.777)" fill="url(#linear-gradient-7)"/>
      <path id="Path_8" data-name="Path 8" d="M115.235,213.147a1.3,1.3,0,0,0,.12-1.841,1.863,1.863,0,0,1,.025-2.494,3.286,3.286,0,0,1,4.148-.846,1.305,1.305,0,0,0,1.893-1.293,4.27,4.27,0,0,1,3.454-2.951,3.953,3.953,0,0,1,3.226.791,2.727,2.727,0,0,1,.962,2.254,1.3,1.3,0,0,0,2.191.992,4.15,4.15,0,0,1,3-.521,5.139,5.139,0,0,1,3.636,3.085,2.913,2.913,0,0,1,.107,2.033,1.216,1.216,0,0,0-.014.225,1.23,1.23,0,0,0-.123.192,3.374,3.374,0,0,1-3.058,2.181,1.3,1.3,0,0,0,.07,2.608c.024,0,.048,0,.072,0a6,6,0,0,0,5.352-3.85,1.275,1.275,0,0,0,.053-.311,1.311,1.311,0,0,0,.167-.366,5.491,5.491,0,0,0-.29-3.872,7.63,7.63,0,0,0-5.5-4.491,7.3,7.3,0,0,0-3.34.179,5.291,5.291,0,0,0-1.581-2.32,6.622,6.622,0,0,0-5.4-1.373,6.953,6.953,0,0,0-5.167,3.949,5.952,5.952,0,0,0-5.911,2.1,4.412,4.412,0,0,0,.071,5.819A1.3,1.3,0,0,0,115.235,213.147Zm5.611-7.428a1.175,1.175,0,0,0-.129-.075h0C120.762,205.667,120.805,205.692,120.846,205.719Z" transform="translate(-88.172 -196.777)" fill="url(#linear-gradient-8)"/>
      <path id="Path_9" data-name="Path 9" d="M92.237,212.7h.957a1.3,1.3,0,1,0,0-2.609h-.957a1.3,1.3,0,1,0,0,2.609Z" transform="translate(-88.172 -196.777)" fill="url(#linear-gradient-9)"/>
      <path id="Path_10" data-name="Path 10" d="M97.984,212.7h11.177a1.3,1.3,0,0,0,0-2.609H97.984a1.3,1.3,0,1,0,0,2.609Z" transform="translate(-88.172 -196.777)" fill="url(#linear-gradient-10)"/>
    </g>
  </g>
</svg>
