<svg xmlns="http://www.w3.org/2000/svg" xmlns:xlink="http://www.w3.org/1999/xlink" width="61.21" height="68" viewBox="0 0 61.21 68">
  <defs>
    <clipPath id="clip-path">
      <rect width="61.21" height="68" fill="none"/>
    </clipPath>
  </defs>
  <g id="engmin" clip-path="url(#clip-path)">
    <g id="Group_36" data-name="Group 36" transform="translate(-102.574 -364.664)">
      <path id="Path_349" data-name="Path 349" d="M111.924,408.661s-.062-1.326-1.1-1.342-1.08,1.3-1.08,1.3v3.98h2.159Z" fill="#240f6e"/>
      <path id="Path_350" data-name="Path 350" d="M138.966,407.319c-1.034-.016-1.08,1.3-1.08,1.3v3.98h2.16l.015-3.934S140,407.335,138.966,407.319Z" fill="#240f6e"/>
      <path id="Path_351" data-name="Path 351" d="M162.692,430.48h-1.756V406.588h.759a1.092,1.092,0,0,0,1.093-1.092V391.613a1.093,1.093,0,0,0-1.093-1.093,1.074,1.074,0,0,0-.507.131c0-.191,0-.381,0-.566a1.09,1.09,0,0,0,.854-1.064V386.43a1.092,1.092,0,1,0-2.185,0v.933a9.057,9.057,0,0,1-1.291-3.48,1.087,1.087,0,0,0-.193-.481v-2.717a1.082,1.082,0,0,0,.054-.9,48.014,48.014,0,0,1-2.805-14.06,1.093,1.093,0,0,0-1.092-1.065h-.014a1.092,1.092,0,0,0-1.078,1.092,34.1,34.1,0,0,1-3.015,14.056,1.087,1.087,0,0,0,.008,1.008v3.087a1.085,1.085,0,0,0,.079.4,7.352,7.352,0,0,1-1.056,2.554v-.436a1.092,1.092,0,1,0-2.185,0v2.591a1.091,1.091,0,0,0,.671,1.007l-.005.739a1.086,1.086,0,0,0-1.776.846V405.5a1.091,1.091,0,0,0,1.092,1.092h.759v1.136h-2.947l.005-4.442h-.094l-1.187-8.167a1.093,1.093,0,0,0-1.081-.935H142.7a1.093,1.093,0,0,0-1.075.954l-.169,1.328h-5.111l-.188-1.342a1.092,1.092,0,0,0-1.081-.94h-.007a1.091,1.091,0,0,0-1.077.954l-1.125,8.823a1.062,1.062,0,0,0,.007.293.967.967,0,0,0-.016.154v3.32H116.9v-3.3h-.126l0-.018a1.059,1.059,0,0,0-.022-.22,1.125,1.125,0,0,0,0-.239l-1.1-8.809a1.092,1.092,0,0,0-1.083-.956h0a1.091,1.091,0,0,0-1.083.954l-.169,1.328H108.21l-.188-1.342a1.092,1.092,0,0,0-1.082-.94h-.007a1.091,1.091,0,0,0-1.076.954l-1.125,8.823a1.094,1.094,0,0,0,.006.292,1.131,1.131,0,0,0-.015.155V430.48h-1.056a1.092,1.092,0,1,0,0,2.184h59.025a1.092,1.092,0,1,0,0-2.184ZM124.16,416.234v5.215H116.9v-5.217l.018,0Zm8.7,0v5.215h-6.516v-5.215Zm2.185-10.738h7.841l-.01,8.553h-7.831Zm0,18.138h7.819l0,2.855h-7.816Zm-2.185,2.855h-6.516v-2.855h6.516Zm12.189-2.855h2.966v2.855h-2.97Zm5.151,0h8.552v2.855H150.2Zm8.552-2.185H150.2v-5.215h8.552Zm-10.737,0h-2.964l.007-5.215h2.957Zm-5.148,0h-7.822v-5.215h7.828Zm-35.949-5.093h7.8v5.093h-7.592a1.139,1.139,0,0,0-.22.022v-5.116Zm7.8-10.86v8.676h-7.812V405.5Zm-7.812,18.116a1.139,1.139,0,0,0,.22.022h7.592v2.855h-7.812Zm10,.022h7.256v2.855H116.9Zm7.256,5.04v1.806H116.9v-1.806Zm2.184,0h6.516v1.806h-6.516Zm8.7,0h7.813l0,1.806h-7.811Zm10,0h2.972v1.806h-2.974Zm5.157,0h8.552v1.806H150.2Zm2.42-45.858V381.4h3.574v1.412ZM152.6,385h3.967a11.7,11.7,0,0,0,.986,2.742h-6.066A9.483,9.483,0,0,0,152.6,385Zm6.413,4.927c-.006.8-.017,1.766-.023,2.258h-8.871l.015-2.258Zm-5.329,10.286a1.1,1.1,0,0,0,.77.317h.01l2.309-.022a1.082,1.082,0,0,0,.338-.062,2.912,2.912,0,1,1-3.435-4.009,1.08,1.08,0,0,0-.308.755l-.006,2.242A1.093,1.093,0,0,0,153.68,400.214Zm3.069-1.89-1.2.012,0-1.137a1.089,1.089,0,0,0-.312-.766,2.911,2.911,0,0,1,2.024,2.018A1.081,1.081,0,0,0,156.749,398.324Zm-8.4,6.08V394.371h4.57a5.1,5.1,0,1,0,3.087,0h4.6V404.4Zm6.238-29.98c.463,2.035.97,3.707,1.33,4.795h-2.843A34.99,34.99,0,0,0,154.587,374.424Zm4.165,32.164v7.461H150.2v-7.461Zm-10.737,3.32v4.141H145.06l.005-4.141Zm-6.835-11.261-.595,4.664h-3.277l-.654-4.664Zm-8.32,11.261v4.141h-1.7v-1.068a1.092,1.092,0,1,0-2.185,0v1.068h-1.888v-1.068a1.092,1.092,0,1,0-2.184,0v1.068h-1.333v-1.068a1.092,1.092,0,1,0-2.185,0v1.068h-1.517v-1.068a1.092,1.092,0,1,0-2.185,0v1.068h-.758l-.018,0v-4.143Zm-19.818-11.261-.6,4.664h-3.276l-.654-4.664Zm-6.135,30.027h7.812v1.806h-7.812Z" fill="#240f6e"/>
      <path id="Path_352" data-name="Path 352" d="M124.663,380.665a.887.887,0,0,0,0,1.775h11.291a.887.887,0,1,0,0-1.775Z" fill="#240f6e"/>
      <path id="Path_353" data-name="Path 353" d="M120.321,380.665a.887.887,0,1,0,0,1.775h.651a.887.887,0,0,0,0-1.775Z" fill="#240f6e"/>
      <path id="Path_354" data-name="Path 354" d="M114.241,377.191a.887.887,0,0,0,0,1.775h.869a.887.887,0,0,0,0-1.775Z" fill="#240f6e"/>
      <path id="Path_355" data-name="Path 355" d="M118.584,378.966h11.725a.887.887,0,0,0,0-1.775H118.584a.887.887,0,1,0,0,1.775Z" fill="#240f6e"/>
      <path id="Path_356" data-name="Path 356" d="M120.977,375.8a.888.888,0,0,0,.082-1.252,1.268,1.268,0,0,1,.016-1.7,2.235,2.235,0,0,1,2.821-.575.887.887,0,0,0,1.194-.386.869.869,0,0,0,.093-.493,2.9,2.9,0,0,1,2.349-2.007,2.688,2.688,0,0,1,2.194.538,1.853,1.853,0,0,1,.654,1.533.887.887,0,0,0,1.49.674,2.819,2.819,0,0,1,2.037-.354,3.5,3.5,0,0,1,2.473,2.1,1.99,1.99,0,0,1,.073,1.383.788.788,0,0,0-.01.153.764.764,0,0,0-.083.131,2.3,2.3,0,0,1-2.08,1.482.888.888,0,0,0,.048,1.774h.049a4.077,4.077,0,0,0,3.639-2.618.864.864,0,0,0,.036-.211.917.917,0,0,0,.114-.25,3.74,3.74,0,0,0-.2-2.633,5.19,5.19,0,0,0-3.742-3.053,4.964,4.964,0,0,0-2.272.121,3.594,3.594,0,0,0-1.075-1.577,4.5,4.5,0,0,0-3.671-.934,4.728,4.728,0,0,0-3.513,2.685,4.049,4.049,0,0,0-4.02,1.429,3,3,0,0,0,.049,3.958A.887.887,0,0,0,120.977,375.8Zm3.816-5.051a.7.7,0,0,0-.088-.051h0C124.736,370.709,124.765,370.727,124.793,370.745Z" fill="#240f6e"/>
      <path id="Path_357" data-name="Path 357" d="M105.339,375.492h.65a.887.887,0,1,0,0-1.774h-.65a.887.887,0,1,0,0,1.774Z" fill="#240f6e"/>
      <path id="Path_358" data-name="Path 358" d="M109.247,375.492h7.6a.887.887,0,0,0,0-1.774h-7.6a.887.887,0,1,0,0,1.774Z" fill="#240f6e"/>
    </g>
  </g>
</svg>
