<?xml version="1.0" encoding="utf-8"?>
<!-- Generator: Adobe Illustrator 23.1.1, SVG Export Plug-In . SVG Version: 6.00 Build 0)  -->
<svg version="1.1" id="Layer_1" xmlns="http://www.w3.org/2000/svg" xmlns:xlink="http://www.w3.org/1999/xlink" x="0px" y="0px"
	 viewBox="0 0 96 88.3" style="enable-background:new 0 0 96 88.3;" xml:space="preserve">
<style type="text/css">
	.st0{fill:#FFFFFF;}
</style>
<g>
	<path class="st0" d="M93.1,65c-0.9,0-1.7,0.7-1.7,1.7v6.5c0,1.3-1.1,2.4-2.4,2.4h-4.2c-0.8-5.3-5.4-9.4-10.9-9.4
		c-5.5,0-10.1,4.1-10.9,9.4H36.9c-0.9,0-1.7,0.7-1.7,1.7c0,0.9,0.7,1.7,1.7,1.7h26.2c0.8,5.3,5.4,9.4,10.9,9.4
		c5.5,0,10.1-4.1,10.9-9.4H89c3.1,0,5.7-2.6,5.7-5.7v-6.5C94.8,65.7,94,65,93.1,65z M74,84.9c-4.3,0-7.7-3.5-7.7-7.7
		c0-4.3,3.5-7.7,7.7-7.7c4.3,0,7.7,3.5,7.7,7.7C81.7,81.5,78.2,84.9,74,84.9z"/>
	<path class="st0" d="M20.9,66.2c-5.5,0-10.1,4.1-10.9,9.4H5.7c-1.3,0-2.4-1.1-2.4-2.4V40.4c0-7,5.2-12.8,12.1-13.6h26.9
		c0,0,0,0,0,0h25.4c1.5,0,2.9,0.2,4.1,0.6c0.2,0.1,0.3,0.1,0.5,0.1c0.7,0,1.4-0.5,1.6-1.2c0.3-0.9-0.2-1.8-1.1-2.1
		c-1.6-0.5-3.3-0.7-5.1-0.7h-0.5v-2.3h13.6c0.9,0,1.7-0.7,1.7-1.7s-0.7-1.7-1.7-1.7h-4.1c1.3-1.5,2.1-3.4,2.1-5.6
		c0-4.7-3.9-8.6-8.6-8.6s-8.6,3.9-8.6,8.6c0,2.1,0.8,4.1,2.1,5.6h-2.9c0.2-0.5,0.3-1,0.3-1.6V6.1c0-2.4-2.1-4.4-4.7-4.4h-2.3V1.1
		C54.1,0.5,53.6,0,53,0s-1.1,0.5-1.1,1.1v0.6h-9.5V1.1C42.5,0.5,42,0,41.3,0s-1.1,0.5-1.1,1.1v0.6h-1.8c-2.6,0-4.7,2-4.7,4.4v10.1
		c0,0.6,0.1,1.1,0.3,1.6h-1.5c0.3-0.6,0.4-1.2,0.4-1.9v-6c0-2.5-2.1-4.6-4.6-4.6H11.8c-2.5,0-4.6,2.1-4.6,4.6v6
		c0,0.7,0.2,1.3,0.4,1.9H6.8c-0.9,0-1.7,0.7-1.7,1.7s0.7,1.7,1.7,1.7h9.3v2.3h-0.8c-0.1,0-0.1,0-0.2,0C6.5,24.4,0,31.7,0,40.4v32.8
		c0,3.1,2.6,5.7,5.7,5.7h4.4c0.8,5.3,5.4,9.4,10.9,9.4c6.1,0,11-4.9,11-11C32,71.2,27,66.2,20.9,66.2z M56.2,21.2v2.3h-8.4
		c0,0,0,0,0,0H27v-2.3H56.2z M63.8,23.5h-4.3v-2.3h4.3V23.5z M70.2,7c2.9,0,5.3,2.4,5.3,5.3s-2.4,5.3-5.3,5.3s-5.3-2.4-5.3-5.3
		S67.2,7,70.2,7z M56.4,5c0.7,0,1.4,0.5,1.4,1.1v10.1c0,0.6-0.6,1.1-1.4,1.1h-2.3V5H56.4z M51.9,5v12.3h-9.5V5H51.9z M37.1,6.1
		c0-0.6,0.6-1.1,1.4-1.1h1.8v12.3h-1.8c-0.7,0-1.4-0.5-1.4-1.1V6.1z M10.5,13.2h3.5v0.6c0,0.6,0.5,1.1,1.1,1.1s1.1-0.5,1.1-1.1v-0.6
		h8.3v0.6c0,0.6,0.5,1.1,1.1,1.1s1.1-0.5,1.1-1.1v-0.6h3.2v2.8c0,0.7-0.6,1.3-1.3,1.3H11.8c-0.7,0-1.3-0.6-1.3-1.3V13.2z M11.8,8.7
		h16.7c0.7,0,1.3,0.6,1.3,1.3v1h-3.2v-0.6c0-0.6-0.5-1.1-1.1-1.1s-1.1,0.5-1.1,1.1V11h-8.3v-0.6c0-0.6-0.5-1.1-1.1-1.1
		s-1.1,0.5-1.1,1.1V11h-3.5v-1C10.5,9.2,11.1,8.7,11.8,8.7z M19.4,21.2h4.3v2.3h-4.3V21.2z M20.9,84.9c-4.3,0-7.7-3.5-7.7-7.7
		c0-4.3,3.5-7.7,7.7-7.7s7.7,3.5,7.7,7.7C28.7,81.5,25.2,84.9,20.9,84.9z"/>
	<path class="st0" d="M20.9,73c-2.3,0-4.2,1.9-4.2,4.2c0,2.3,1.9,4.2,4.2,4.2s4.2-1.9,4.2-4.2C25.2,74.9,23.3,73,20.9,73z
		 M20.9,78.2c-0.5,0-0.9-0.4-0.9-0.9c0-0.5,0.4-0.9,0.9-0.9s0.9,0.4,0.9,0.9C21.9,77.7,21.5,78.2,20.9,78.2z"/>
	<path class="st0" d="M74,73c-2.3,0-4.2,1.9-4.2,4.2c0,2.3,1.9,4.2,4.2,4.2s4.2-1.9,4.2-4.2C78.2,74.9,76.3,73,74,73z M74,78.2
		c-0.5,0-0.9-0.4-0.9-0.9c0-0.5,0.4-0.9,0.9-0.9s0.9,0.4,0.9,0.9C74.9,77.7,74.5,78.2,74,78.2z"/>
	<path class="st0" d="M9.5,47.2H33c3.1,0,5.7-2.6,5.7-5.7v-3.4c0-3.1-2.6-5.7-5.7-5.7H15.7c-4.3,0-7.8,3.5-7.8,7.8v5.4
		C7.9,46.5,8.6,47.2,9.5,47.2z M11.2,40.2c0-2.5,2-4.5,4.5-4.5H33c1.3,0,2.4,1.1,2.4,2.4v3.4c0,1.3-1.1,2.4-2.4,2.4H11.2V40.2z"/>
	<path class="st0" d="M65.3,44.8v-6.7c0-3.1-2.6-5.7-5.7-5.7H48.1c-3.1,0-5.7,2.6-5.7,5.7v6.7c0,3.1,2.6,5.7,5.7,5.7h11.6
		C62.8,50.5,65.3,48,65.3,44.8z M45.7,44.8v-6.7c0-1.3,1.1-2.4,2.4-2.4h11.6c1.3,0,2.4,1.1,2.4,2.4v6.7c0,1.3-1.1,2.4-2.4,2.4H48.1
		C46.7,47.2,45.7,46.1,45.7,44.8z"/>
	<path class="st0" d="M57.1,55.3c0-0.9-0.7-1.7-1.7-1.7H9.5c-0.9,0-1.7,0.7-1.7,1.7S8.6,57,9.5,57h45.9C56.3,57,57.1,56.2,57.1,55.3
		z"/>
	<path class="st0" d="M9.5,59.2c-0.9,0-1.7,0.7-1.7,1.7c0,0.9,0.7,1.7,1.7,1.7h37.7c0.9,0,1.7-0.7,1.7-1.7c0-0.9-0.7-1.7-1.7-1.7
		H9.5z"/>
	<path class="st0" d="M95.3,53.4c0-2.9-2.8-7.2-6.2-7.2h-2c-1.3,0-2.4-1.1-2.4-2.4v-1.4v-2c0-2.4-0.5-4.8-1.5-6.9
		c0-0.1-0.1-0.2-0.1-0.3c-1-2.1-2.3-4-4.1-5.5c-0.7-0.6-1.7-0.5-2.3,0.1c-0.6,0.7-0.5,1.7,0.1,2.3c0.8,0.7,1.4,1.4,2,2.2h-4.6
		c-3.1,0-5.7,2.6-5.7,5.7v6.7c0,3.1,2.6,5.7,5.7,5.7h4.3c0.9,0,1.7-0.7,1.7-1.7s-0.7-1.7-1.7-1.7h-4.3c-1.3,0-2.4-1.1-2.4-2.4v-6.7
		c0-1.3,1.1-2.4,2.4-2.4h6.3c0.5,1.5,0.8,3.1,0.8,4.7v2v1.4c0,2.7,1.9,5,4.4,5.6c0.2,0.1,0.4,0.2,0.7,0.2H87h2
		c0.8,0,1.8,1.1,2.4,2.3h-2.2c-2.1,0-3.9,1.7-3.9,3.9v3.9c0,2.1,1.7,3.9,3.9,3.9h2.9c2.1,0,3.9-1.7,3.9-3.9v-3.9
		C96,54.8,95.7,54.1,95.3,53.4z M92.7,59.6c0,0.3-0.3,0.6-0.6,0.6h-2.9c-0.3,0-0.6-0.3-0.6-0.6v-3.9c0-0.3,0.3-0.6,0.6-0.6h2.9
		c0.3,0,0.6,0.3,0.6,0.6V59.6z"/>
	<path class="st0" d="M70.2,15.5c1.8,0,3.2-1.4,3.2-3.2s-1.4-3.2-3.2-3.2S67,10.5,67,12.3S68.4,15.5,70.2,15.5z M70.2,11.3
		c0.5,0,1,0.4,1,1s-0.4,1-1,1s-1-0.4-1-1S69.6,11.3,70.2,11.3z"/>
</g>
</svg>
