<svg xmlns="http://www.w3.org/2000/svg" xmlns:xlink="http://www.w3.org/1999/xlink" width="82.539" height="87" viewBox="0 0 82.539 87">
  <defs>
    <clipPath id="clip-path">
      <rect width="82.539" height="87" fill="none"/>
    </clipPath>
  </defs>
  <g id="excur" clip-path="url(#clip-path)">
    <g id="Group_8" data-name="Group 8">
      <path id="Path_502" data-name="Path 502" d="M1402.29-126.64a21.909,21.909,0,0,0-21.883,21.884,21.908,21.908,0,0,0,21.883,21.882,21.908,21.908,0,0,0,21.884-21.882A21.909,21.909,0,0,0,1402.29-126.64Zm0,40.7a18.834,18.834,0,0,1-18.813-18.812,18.835,18.835,0,0,1,18.813-18.814,18.835,18.835,0,0,1,18.814,18.814A18.835,18.835,0,0,1,1402.29-85.943Z" transform="translate(-1380.407 164.754)" fill="#fff"/>
      <path id="Path_503" data-name="Path 503" d="M1387.038-108.858a1.525,1.525,0,0,0-1.73,1.309,17.229,17.229,0,0,0-.164,2.378q0,.573.037,1.136a1.535,1.535,0,0,0,1.531,1.438l.1,0a1.535,1.535,0,0,0,1.434-1.63q-.031-.467-.031-.94a14.315,14.315,0,0,1,.134-1.957A1.534,1.534,0,0,0,1387.038-108.858Z" transform="translate(-1380.296 165.169)" fill="#fff"/>
      <path id="Path_504" data-name="Path 504" d="M1405.64-118.389a1.532,1.532,0,0,0,1.871-1.1,1.534,1.534,0,0,0-1.1-1.871,17.058,17.058,0,0,0-4.276-.542,17.094,17.094,0,0,0-14.769,8.541,1.536,1.536,0,0,0,.563,2.1,1.541,1.541,0,0,0,.765.2,1.533,1.533,0,0,0,1.331-.769,14.018,14.018,0,0,1,12.109-7A14,14,0,0,1,1405.64-118.389Z" transform="translate(-1380.249 164.865)" fill="#fff"/>
      <path id="Path_505" data-name="Path 505" d="M1412.043-107.271a6.114,6.114,0,0,0-6.107-6.106,6.114,6.114,0,0,0-6.107,6.106,6.089,6.089,0,0,0,2.072,4.572,6.089,6.089,0,0,0-2.072,4.572,6.114,6.114,0,0,0,6.107,6.107,6.114,6.114,0,0,0,6.107-6.107,6.089,6.089,0,0,0-2.072-4.572A6.089,6.089,0,0,0,1412.043-107.271Zm-3.07,9.145a3.04,3.04,0,0,1-3.037,3.037,3.04,3.04,0,0,1-3.037-3.037,3.041,3.041,0,0,1,3.037-3.037A3.041,3.041,0,0,1,1408.973-98.126Zm-6.075-9.145a3.04,3.04,0,0,1,3.037-3.036,3.04,3.04,0,0,1,3.037,3.036,3.04,3.04,0,0,1-3.037,3.037A3.04,3.04,0,0,1,1402.9-107.271Z" transform="translate(-1379.953 165.064)" fill="#fff"/>
      <path id="Path_506" data-name="Path 506" d="M1395.327-161.822c-2.072-2.485-3.387-2.278-4.125-1.664l-3.237,2.7a1.719,1.719,0,0,0-.611,1.175c-.077.828.429,1.9,1.494,3.178l22.9,27.815a1.535,1.535,0,0,0,2.16.209,1.536,1.536,0,0,0,.21-2.161l-22.906-27.821a7.636,7.636,0,0,1-.509-.68l1.687-1.405a7.536,7.536,0,0,1,.583.629l38.242,45.393-2.271,1.892-.057-.07a1.537,1.537,0,0,0-2.161-.209,1.536,1.536,0,0,0-.21,2.16l26.126,31.734c1.3,1.567,2.308,2.064,3.057,2.064a1.64,1.64,0,0,0,1.066-.4l4.117-3.428c.736-.615,1.178-1.87-.9-4.362Zm60.251,81.532a7.511,7.511,0,0,1-.571-.616l-24.112-29.288,2.3-1.914L1457.63-83.1a7.53,7.53,0,0,1,.508.681Z" transform="translate(-1380.245 163.884)" fill="#fff"/>
      <path id="Path_507" data-name="Path 507" d="M1434.085-125.221a6.256,6.256,0,0,0,6.25,6.249,6.255,6.255,0,0,0,6.248-6.249,6.255,6.255,0,0,0-6.248-6.249A6.256,6.256,0,0,0,1434.085-125.221Zm9.427,0a3.182,3.182,0,0,1-3.177,3.179,3.183,3.183,0,0,1-3.18-3.179,3.183,3.183,0,0,1,3.18-3.179A3.182,3.182,0,0,1,1443.512-125.221Z" transform="translate(-1379.153 164.642)" fill="#fff"/>
      <path id="Path_508" data-name="Path 508" d="M1426.7-138.167a6.254,6.254,0,0,0,6.248,6.248,6.255,6.255,0,0,0,6.249-6.248,6.256,6.256,0,0,0-6.249-6.25A6.256,6.256,0,0,0,1426.7-138.167Zm6.248-3.18a3.183,3.183,0,0,1,3.179,3.18,3.182,3.182,0,0,1-3.179,3.178,3.181,3.181,0,0,1-3.177-3.178A3.182,3.182,0,0,1,1432.951-141.347Z" transform="translate(-1379.326 164.339)" fill="#fff"/>
      <path id="Path_509" data-name="Path 509" d="M1441.468-138.167a6.255,6.255,0,0,0,6.249,6.248,6.254,6.254,0,0,0,6.248-6.248,6.255,6.255,0,0,0-6.248-6.25A6.256,6.256,0,0,0,1441.468-138.167Zm6.249-3.18a3.182,3.182,0,0,1,3.177,3.18,3.181,3.181,0,0,1-3.177,3.178,3.181,3.181,0,0,1-3.178-3.178A3.183,3.183,0,0,1,1447.716-141.347Z" transform="translate(-1378.981 164.339)" fill="#fff"/>
      <path id="Path_510" data-name="Path 510" d="M1425.571-145.382a6.254,6.254,0,0,0,6.247-6.249,6.254,6.254,0,0,0-6.247-6.248,6.256,6.256,0,0,0-6.25,6.248A6.256,6.256,0,0,0,1425.571-145.382Zm0-9.426a3.18,3.18,0,0,1,3.177,3.178,3.181,3.181,0,0,1-3.177,3.179,3.182,3.182,0,0,1-3.179-3.179A3.182,3.182,0,0,1,1425.571-154.808Z" transform="translate(-1379.498 164.025)" fill="#fff"/>
      <path id="Path_511" data-name="Path 511" d="M1440.335-145.382a6.255,6.255,0,0,0,6.248-6.249,6.255,6.255,0,0,0-6.248-6.248,6.256,6.256,0,0,0-6.25,6.248A6.256,6.256,0,0,0,1440.335-145.382Zm0-9.426a3.182,3.182,0,0,1,3.177,3.178,3.182,3.182,0,0,1-3.177,3.179,3.183,3.183,0,0,1-3.18-3.179A3.182,3.182,0,0,1,1440.335-154.808Z" transform="translate(-1379.153 164.025)" fill="#fff"/>
      <path id="Path_512" data-name="Path 512" d="M1455.1-145.382a6.256,6.256,0,0,0,6.25-6.249,6.256,6.256,0,0,0-6.25-6.248,6.255,6.255,0,0,0-6.248,6.248A6.255,6.255,0,0,0,1455.1-145.382Zm0-9.426a3.182,3.182,0,0,1,3.18,3.178,3.183,3.183,0,0,1-3.18,3.179,3.182,3.182,0,0,1-3.178-3.179A3.181,3.181,0,0,1,1455.1-154.808Z" transform="translate(-1378.808 164.025)" fill="#fff"/>
    </g>
  </g>
</svg>
