<svg xmlns="http://www.w3.org/2000/svg" xmlns:xlink="http://www.w3.org/1999/xlink" width="66.954" height="68" viewBox="0 0 66.954 68">
  <defs>
    <clipPath id="clip-path">
      <rect width="66.954" height="68" fill="none"/>
    </clipPath>
  </defs>
  <g id="frmin" clip-path="url(#clip-path)">
    <g id="Group_39" data-name="Group 39" transform="translate(-292.735 -364.664)">
      <path id="Path_395" data-name="Path 395" d="M358.806,430.9h-6.585v-5.346a6.842,6.842,0,0,0,5.952-6.774V408.493a6.837,6.837,0,0,0-13.674,0v10.286a6.843,6.843,0,0,0,5.953,6.774V430.9H340.7l-4.425-8.491h1.649v-5.123h-3.312a79.469,79.469,0,0,1-2.894-10.209h2.022v-5.122h-3.75c-.048-.277-.1-.546-.143-.81a67.3,67.3,0,0,1-.972-8.029c-.386-5.231-.584-9.762-.742-13.4-.089-2.036-.167-3.814-.258-5.232l0-.483a3.522,3.522,0,0,1,.067-.632h.029v-.133a1.018,1.018,0,0,1,.152-.391l.571-.381h.3v-1.836h-.866a13.83,13.83,0,0,0-.107-1.59,2.523,2.523,0,0,0-1.282-1.769v-2.6h-1.837v2.7a2.482,2.482,0,0,0-1.118,1.667,13.869,13.869,0,0,0-.106,1.591h-.666v1.836h.237l.556.37a2.385,2.385,0,0,1,.262,1.166v.917h.049c-.088,1.4-.164,3.141-.251,5.124-.158,3.642-.356,8.174-.742,13.407-.274,3.7-.688,6.585-1.023,8.51h-3.736v5.122h2.085a102.61,102.61,0,0,1-2.846,10.209h-3.422v5.123h1.665l-4.5,8.491h-10.2v-3.108a6.842,6.842,0,0,0,5.953-6.773v-6.051a6.838,6.838,0,0,0-13.675,0v6.051a6.842,6.842,0,0,0,5.953,6.773V430.9h-5.76a.883.883,0,1,0,0,1.765h65.188a.883.883,0,1,0,0-1.765Zm-6.585-27.392a5.073,5.073,0,0,1,4.184,4.986v7.369l-4.184,2.107Zm0,16.442,4.184-2.107v.937a5.072,5.072,0,0,1-4.184,4.986Zm-51.074-9.968a5.072,5.072,0,0,1,4.184,4.986V418.1l-4.184,2.106Zm0,12.207,4.184-2.107v.937A5.072,5.072,0,0,1,301.147,426ZM299.378,426a5.072,5.072,0,0,1-4.184-4.986v-5.061l4.184,2.106Zm0-9.921-4.093-2.06a5.077,5.077,0,0,1,4.093-4.042Zm33.3,1.2h-2.409c-.218-.793-.885-3.332-1.5-6.7h1.855C331.3,413.183,332.2,415.894,332.675,417.285Zm-.7-13.562v1.585h-1.494l-.093-.734c-.038-.3-.076-.581-.115-.851Zm-2.112,3.353c.079.518.187,1.08.316,1.67h-1.723c-.086-.542-.167-1.1-.245-1.67Zm-2.961,3.506c.548,3.1,1.149,5.528,1.46,6.7h-4.615c.29-1.151.851-3.534,1.4-6.7Zm-1.459-1.836c.083-.541.164-1.1.242-1.67h.672q.114.857.241,1.67Zm.159-39.42a.321.321,0,1,1,.613,0,11.9,11.9,0,0,1,.082,1.3h-.776A12.476,12.476,0,0,1,325.6,369.326Zm-.642,24.254c.389-5.261.586-9.809.746-13.463.086-1.984.162-3.724.25-5.108h.116c.08,1.329.151,2.95.231,4.782.158,3.654.356,8.2.745,13.459a68.552,68.552,0,0,0,1,8.215c.029.164.058.326.086.489h-4.157C324.306,399.993,324.7,397.172,324.961,393.58Zm-1.63,11.578c.014-.057.139-.551.317-1.435h4.772c.049.334.1.689.147,1.081l.064.5h-5.339Zm-1,1.928,0-.01h1.5c-.079.572-.162,1.131-.246,1.67h-1.621C322.094,408.193,322.219,407.637,322.332,407.086Zm-2.192-1.778v-1.585h1.631c-.13.624-.215.965-.218.976l-.157.609Zm1.372,5.274h1.768c-.605,3.436-1.222,5.913-1.429,6.7h-2.307C319.974,415.972,320.78,413.413,321.512,410.582Zm-5.556,8.472h2.888l.088.031.011-.031H333.3l.012.035.1-.035h2.752v1.586h-20.2Zm3.108,11.845a8.368,8.368,0,0,1,14.031,0Zm16.139,0a10.2,10.2,0,0,0-18.252,0h-3.523l4.5-8.491h16.278l4.426,8.491Zm15.249-7.134a5.072,5.072,0,0,1-4.184-4.986v-9.3l4.184,2.106Zm0-14.156-4.093-2.06a5.078,5.078,0,0,1,4.093-4.042Z" fill="#240f6e"/>
      <path id="Path_396" data-name="Path 396" d="M300.134,377.2a6.081,6.081,0,1,0,6.081-6.082A6.088,6.088,0,0,0,300.134,377.2Zm6.081-4.313A4.313,4.313,0,1,1,301.9,377.2,4.318,4.318,0,0,1,306.215,372.885Z" fill="#240f6e"/>
      <rect id="Rectangle_149" data-name="Rectangle 149" width="6.337" height="1.769" transform="translate(306.215 368.287)" fill="#240f6e"/>
      <rect id="Rectangle_150" data-name="Rectangle 150" width="6.337" height="1.769" transform="translate(299.879 384.339)" fill="#240f6e"/>
      <rect id="Rectangle_151" data-name="Rectangle 151" width="1.769" height="6.337" transform="translate(313.357 377.198)" fill="#240f6e"/>
      <rect id="Rectangle_152" data-name="Rectangle 152" width="1.769" height="6.337" transform="translate(297.305 370.861)" fill="#240f6e"/>
      <rect id="Rectangle_153" data-name="Rectangle 153" width="1.769" height="6.337" transform="translate(311.265 372.148) rotate(-45)" fill="#240f6e"/>
      <rect id="Rectangle_154" data-name="Rectangle 154" width="1.769" height="6.337" transform="translate(295.434 379.018) rotate(-45)" fill="#240f6e"/>
      <rect id="Rectangle_155" data-name="Rectangle 155" width="6.337" height="1.769" transform="translate(306.784 386.728) rotate(-45)" fill="#240f6e"/>
      <rect id="Rectangle_156" data-name="Rectangle 156" width="6.337" height="1.769" transform="translate(299.915 370.897) rotate(-45)" fill="#240f6e"/>
      <path id="Path_397" data-name="Path 397" d="M342.53,379.315a5.075,5.075,0,0,1,2.885,2.894c.076.14.163.3.247.447l-.249.573a.681.681,0,1,0,1.249.542l.249-.573c.167-.042.341-.085.495-.125a5.08,5.08,0,0,1,4.085.129.68.68,0,1,0,.541-1.248,6.332,6.332,0,0,0-4.966-.2l-.305.077c-.049-.091-.1-.19-.152-.276a6.332,6.332,0,0,0-3.537-3.491.681.681,0,0,0-.542,1.249Z" fill="#240f6e"/>
      <path id="Path_398" data-name="Path 398" d="M337.447,388.45a2.611,2.611,0,0,1,1.92.944c.034.032.075.068.111.1l-.016.212a.68.68,0,0,0,.628.729l.051,0a.68.68,0,0,0,.678-.629l.016-.212.124-.081a2.614,2.614,0,0,1,2.041-.648.68.68,0,0,0,.1-1.356,3.838,3.838,0,0,0-2.856.844,3.849,3.849,0,0,0-2.7-1.262.68.68,0,0,0-.1,1.357Z" fill="#240f6e"/>
    </g>
  </g>
</svg>
