<svg xmlns="http://www.w3.org/2000/svg" xmlns:xlink="http://www.w3.org/1999/xlink" width="73.487" height="68" viewBox="0 0 73.487 68">
  <defs>
    <clipPath id="clip-path">
      <rect width="73.487" height="68" fill="none"/>
    </clipPath>
  </defs>
  <g id="germin" clip-path="url(#clip-path)">
    <g id="Group_38" data-name="Group 38">
      <path id="Path_370" data-name="Path 370" d="M557.651,428.377H487.874a.945.945,0,0,0,0,1.89h69.778a.945.945,0,0,0,0-1.89Z" transform="translate(-485.108 -362.267)" fill="#240f6e"/>
      <path id="Path_371" data-name="Path 371" d="M490.95,393.041v-3.467h16.326v-1.888H486.929v1.888h2.132v3.467Z" transform="translate(-485.108 -365.55)" fill="#240f6e"/>
      <path id="Path_372" data-name="Path 372" d="M551.23,393.041v-3.467h1.458v-1.888H532.342v1.888h17v3.467Z" transform="translate(-481.444 -365.55)" fill="#240f6e"/>
      <path id="Path_373" data-name="Path 373" d="M488.25,402.924h.079v.112h67.438v-1.889h-.036l-.015-3.012,2.74-3.943h-25.3v-4.618h1.458v-1.888H509.063v1.888h1.01v4.618H485.857l2.393,3.513Zm23.712-13.35h19.306v4.618H511.962Zm42.882,6.507-1.02,1.468.018,3.6h-63.7v-4.024l-.71-1.042Z" transform="translate(-485.195 -365.55)" fill="#240f6e"/>
      <rect id="Rectangle_131" data-name="Rectangle 131" width="6.152" height="1.889" transform="translate(3.616 38.076)" fill="#240f6e"/>
      <rect id="Rectangle_132" data-name="Rectangle 132" width="1.889" height="24.067" transform="translate(4.402 40.893)" fill="#240f6e"/>
      <rect id="Rectangle_133" data-name="Rectangle 133" width="1.89" height="24.067" transform="translate(7.105 40.893)" fill="#240f6e"/>
      <rect id="Rectangle_134" data-name="Rectangle 134" width="6.152" height="1.889" transform="translate(15.283 38.076)" fill="#240f6e"/>
      <rect id="Rectangle_135" data-name="Rectangle 135" width="1.889" height="24.067" transform="translate(16.069 40.893)" fill="#240f6e"/>
      <rect id="Rectangle_136" data-name="Rectangle 136" width="1.889" height="24.067" transform="translate(18.772 40.893)" fill="#240f6e"/>
      <rect id="Rectangle_137" data-name="Rectangle 137" width="5.927" height="1.889" transform="translate(27.175 38.076)" fill="#240f6e"/>
      <rect id="Rectangle_138" data-name="Rectangle 138" width="1.889" height="24.067" transform="translate(27.736 40.893)" fill="#240f6e"/>
      <rect id="Rectangle_139" data-name="Rectangle 139" width="1.889" height="24.067" transform="translate(30.439 40.893)" fill="#240f6e"/>
      <rect id="Rectangle_140" data-name="Rectangle 140" width="6.152" height="1.889" transform="translate(39.963 38.076)" fill="#240f6e"/>
      <rect id="Rectangle_141" data-name="Rectangle 141" width="1.889" height="24.067" transform="translate(40.749 40.893)" fill="#240f6e"/>
      <rect id="Rectangle_142" data-name="Rectangle 142" width="1.89" height="24.067" transform="translate(43.452 40.893)" fill="#240f6e"/>
      <rect id="Rectangle_143" data-name="Rectangle 143" width="6.152" height="1.889" transform="translate(51.854 38.076)" fill="#240f6e"/>
      <rect id="Rectangle_144" data-name="Rectangle 144" width="1.89" height="24.067" transform="translate(52.64 40.893)" fill="#240f6e"/>
      <rect id="Rectangle_145" data-name="Rectangle 145" width="1.889" height="24.067" transform="translate(55.344 40.893)" fill="#240f6e"/>
      <rect id="Rectangle_146" data-name="Rectangle 146" width="6.153" height="1.889" transform="translate(64.419 38.076)" fill="#240f6e"/>
      <rect id="Rectangle_147" data-name="Rectangle 147" width="1.89" height="24.067" transform="translate(65.204 40.893)" fill="#240f6e"/>
      <rect id="Rectangle_148" data-name="Rectangle 148" width="1.889" height="24.067" transform="translate(67.908 40.893)" fill="#240f6e"/>
      <path id="Path_374" data-name="Path 374" d="M534.508,396.2h-1.89v1.889h1.89Z" transform="translate(-481.422 -364.864)" fill="#240f6e"/>
      <path id="Path_375" data-name="Path 375" d="M527.516,396.2h-1.89v1.889h1.89Z" transform="translate(-481.986 -364.864)" fill="#240f6e"/>
      <path id="Path_376" data-name="Path 376" d="M538,396.2h-1.889v1.889H538Z" transform="translate(-481.139 -364.864)" fill="#240f6e"/>
      <path id="Path_377" data-name="Path 377" d="M531.012,396.2h-1.889v1.889h1.889Z" transform="translate(-481.704 -364.864)" fill="#240f6e"/>
      <path id="Path_378" data-name="Path 378" d="M541.5,396.2h-1.889v1.889H541.5Z" transform="translate(-480.857 -364.864)" fill="#240f6e"/>
      <path id="Path_379" data-name="Path 379" d="M548.493,396.2H546.6v1.889h1.889Z" transform="translate(-480.293 -364.864)" fill="#240f6e"/>
      <path id="Path_380" data-name="Path 380" d="M545,396.2h-1.889v1.889H545Z" transform="translate(-480.575 -364.864)" fill="#240f6e"/>
      <path id="Path_381" data-name="Path 381" d="M503.043,396.2h-1.889v1.889h1.889Z" transform="translate(-483.96 -364.864)" fill="#240f6e"/>
      <path id="Path_382" data-name="Path 382" d="M524.02,396.2h-1.89v1.889h1.89Z" transform="translate(-482.268 -364.864)" fill="#240f6e"/>
      <path id="Path_383" data-name="Path 383" d="M496.051,396.2h-1.888v1.889h1.888Z" transform="translate(-484.524 -364.864)" fill="#240f6e"/>
      <path id="Path_384" data-name="Path 384" d="M492.554,396.2h-1.889v1.889h1.889Z" transform="translate(-484.807 -364.864)" fill="#240f6e"/>
      <path id="Path_385" data-name="Path 385" d="M506.539,396.2H504.65v1.889h1.889Z" transform="translate(-483.678 -364.864)" fill="#240f6e"/>
      <path id="Path_386" data-name="Path 386" d="M499.547,396.2h-1.889v1.889h1.889Z" transform="translate(-484.242 -364.864)" fill="#240f6e"/>
      <path id="Path_387" data-name="Path 387" d="M510.035,396.2h-1.889v1.889h1.889Z" transform="translate(-483.396 -364.864)" fill="#240f6e"/>
      <path id="Path_388" data-name="Path 388" d="M517.028,396.2h-1.89v1.889h1.89Z" transform="translate(-482.832 -364.864)" fill="#240f6e"/>
      <path id="Path_389" data-name="Path 389" d="M520.523,396.2h-1.889v1.889h1.889Z" transform="translate(-482.55 -364.864)" fill="#240f6e"/>
      <path id="Path_390" data-name="Path 390" d="M513.531,396.2h-1.889v1.889h1.889Z" transform="translate(-483.114 -364.864)" fill="#240f6e"/>
      <path id="Path_391" data-name="Path 391" d="M508.451,381.287l2.462,5.061h-1.032v1.889h20.265v-1.889h-1.032l2.461-5.061,1.8.845.805-1.714-3.49-1.639-3.681,7.569h-1.673v-.065l1.442-8.921-1.869-.3-.424,2.624a5.134,5.134,0,0,0-.932-1.345,4.5,4.5,0,0,0-2.594-1.3v-3.933a1.729,1.729,0,0,0,.3-2.657l2.4-.83-.619-1.79-3.031,1.049-3.032-1.049-.618,1.79,2.4.83a1.728,1.728,0,0,0,.3,2.656v3.934a4.492,4.492,0,0,0-2.595,1.3,5.133,5.133,0,0,0-.952,1.388l-.431-2.667-1.87.3,1.452,8.986h-1.654l-3.681-7.569-3.488,1.639.805,1.714Zm9.373-1.624a3.387,3.387,0,0,1,4.376,0c1.352,1.382,1.288,4.388,1.253,6,0,.164-.006.314-.009.456l-.037.227H516.59l-.013-.081c0-.177,0-.374-.01-.6C516.534,384.055,516.47,381.047,517.824,379.662Z" transform="translate(-483.581 -367.152)" fill="#240f6e"/>
      <path id="Path_392" data-name="Path 392" d="M534.324,377.709h4.342a2.666,2.666,0,1,0-.867-5.185,3.758,3.758,0,1,0-3.475,5.185Zm0-6.06a2.3,2.3,0,0,1,2.129,1.429,1.457,1.457,0,0,0,1.821.825,1.185,1.185,0,0,1,.392-.068,1.209,1.209,0,0,1,0,2.419h-4.342a2.3,2.3,0,1,1,0-4.6Z" transform="translate(-481.587 -366.962)" fill="#240f6e"/>
      <path id="Path_393" data-name="Path 393" d="M544.7,380.4h3.047a1.871,1.871,0,1,0-.607-3.639,2.638,2.638,0,1,0-2.44,3.639Zm0-3.819a1.178,1.178,0,0,1,1.093.734,1.457,1.457,0,0,0,1.821.825.4.4,0,0,1,.134-.024.414.414,0,0,1,0,.829H544.7a1.182,1.182,0,0,1,0-2.363Z" transform="translate(-480.659 -366.563)" fill="#240f6e"/>
      <path id="Path_394" data-name="Path 394" d="M489.271,378.449H500a3.232,3.232,0,1,0-1.1-6.269c.01-.119.018-.238.018-.36a4.617,4.617,0,0,0-9.026-1.37,4.094,4.094,0,0,0-.624-.053,4.026,4.026,0,1,0,0,8.052Zm0-6.6a2.507,2.507,0,0,1,.4.036,1.458,1.458,0,0,0,1.616-1.007,3.16,3.16,0,0,1,6.178.938c0,.083-.008.165-.014.247a1.458,1.458,0,0,0,1.948,1.483,1.775,1.775,0,1,1,.6,3.443h-10.73a2.57,2.57,0,1,1,0-5.14Z" transform="translate(-485.244 -367.203)" fill="#240f6e"/>
    </g>
  </g>
</svg>
