<svg xmlns="http://www.w3.org/2000/svg" xmlns:xlink="http://www.w3.org/1999/xlink" width="95.789" height="87" viewBox="0 0 95.789 87">
  <defs>
    <clipPath id="clip-path">
      <rect width="95.789" height="87" fill="none"/>
    </clipPath>
  </defs>
  <g id="proj" clip-path="url(#clip-path)">
    <path id="Path_485" data-name="Path 485" d="M1269.746-96.492H1244.29a13.48,13.48,0,0,0-13.465,13.466v2.853a1.545,1.545,0,0,0,1.545,1.545,1.545,1.545,0,0,0,1.545-1.545v-2.853A10.387,10.387,0,0,1,1244.29-93.4h25.456a10.386,10.386,0,0,1,10.373,10.376v2.853a1.545,1.545,0,0,0,1.545,1.545,1.545,1.545,0,0,0,1.545-1.545v-2.853A13.481,13.481,0,0,0,1269.746-96.492Z" transform="translate(-1208.868 165.627)" fill="#fff"/>
    <path id="Path_486" data-name="Path 486" d="M1256.661-126.646a14.031,14.031,0,0,0-14.015,14.016,14.03,14.03,0,0,0,14.015,14.013,14.029,14.029,0,0,0,14.015-14.013A14.031,14.031,0,0,0,1256.661-126.646Zm0,24.939a10.936,10.936,0,0,1-10.925-10.923,10.937,10.937,0,0,1,10.925-10.926,10.937,10.937,0,0,1,10.925,10.926A10.936,10.936,0,0,1,1256.661-101.707Z" transform="translate(-1208.511 164.719)" fill="#fff"/>
    <path id="Path_487" data-name="Path 487" d="M1250.161-140.777a1.545,1.545,0,0,0,2.027-.816l1.619-3.8h5.03l1.62,3.8a1.547,1.547,0,0,0,1.423.941,1.539,1.539,0,0,0,.6-.125,1.546,1.546,0,0,0,.816-2.027l-2.016-4.73-.007-.016-3.431-8.058a1.654,1.654,0,0,0-1.525-1.035h-.005a1.651,1.651,0,0,0-1.52,1.041l-3.43,8.053-.006.014-2.015,4.731A1.545,1.545,0,0,0,1250.161-140.777Zm6.161-10.524,1.2,2.814h-2.4Z" transform="translate(-1208.313 163.815)" fill="#fff"/>
    <path id="Path_488" data-name="Path 488" d="M1289.5-106.4l-2.983,3.639-.417-.416a1.545,1.545,0,0,0-2.185,0,1.545,1.545,0,0,0,0,2.185l1.624,1.622a1.542,1.542,0,0,0,1.092.453l.076,0a1.546,1.546,0,0,0,1.119-.563l4.066-4.959a1.546,1.546,0,0,0-.215-2.175A1.546,1.546,0,0,0,1289.5-106.4Z" transform="translate(-1207.281 165.312)" fill="#fff"/>
    <path id="Path_489" data-name="Path 489" d="M1252.744-133.759l2.459,4.5a1.544,1.544,0,0,0,1.356.8,1.547,1.547,0,0,0,1.357-.8l2.458-4.5a15.226,15.226,0,0,0,11.352-14.678,15.184,15.184,0,0,0-15.167-15.168,15.183,15.183,0,0,0-15.165,15.168A15.225,15.225,0,0,0,1252.744-133.759Zm3.815-26.756a12.091,12.091,0,0,1,12.076,12.077,12.116,12.116,0,0,1-9.6,11.819,1.544,1.544,0,0,0-1.041.773l-1.434,2.626-1.433-2.626a1.544,1.544,0,0,0-1.042-.773,12.114,12.114,0,0,1-9.6-11.819A12.09,12.09,0,0,1,1256.559-160.515Z" transform="translate(-1208.549 163.605)" fill="#fff"/>
    <path id="Path_490" data-name="Path 490" d="M1232.479-119.563l4.936,1.4a1.546,1.546,0,0,0,1.525-.4,1.544,1.544,0,0,0,.374-1.532l-1.494-4.91a15.227,15.227,0,0,0-2.531-18.383h0a15.185,15.185,0,0,0-21.448.208,15.183,15.183,0,0,0,.21,21.447,15.178,15.178,0,0,0,10.641,4.325A15.1,15.1,0,0,0,1232.479-119.563Zm-16.264-4.38a12.089,12.089,0,0,1-.168-17.078,12.04,12.04,0,0,1,8.623-3.615,12.045,12.045,0,0,1,8.455,3.449h0a12.118,12.118,0,0,1,1.716,15.131,1.538,1.538,0,0,0-.177,1.284l.869,2.863-2.877-.816a1.547,1.547,0,0,0-1.281.2A12.117,12.117,0,0,1,1216.215-123.943Z" transform="translate(-1209.51 164.084)" fill="#fff"/>
    <path id="Path_491" data-name="Path 491" d="M1299.053-143.185a15.186,15.186,0,0,0-21.448-.208h0a15.226,15.226,0,0,0-2.53,18.383l-1.5,4.91a1.545,1.545,0,0,0,.375,1.532,1.548,1.548,0,0,0,1.525.4l4.937-1.4a15.093,15.093,0,0,0,7.787,2.15,15.19,15.19,0,0,0,10.642-4.325A15.184,15.184,0,0,0,1299.053-143.185Zm-2.373,19.242a12.122,12.122,0,0,1-15.163,1.421,1.542,1.542,0,0,0-.859-.261,1.557,1.557,0,0,0-.421.058l-2.878.816.871-2.862a1.544,1.544,0,0,0-.177-1.285,12.118,12.118,0,0,1,1.714-15.131,12.092,12.092,0,0,1,17.078.166A12.091,12.091,0,0,1,1296.68-123.943Z" transform="translate(-1207.594 164.084)" fill="#fff"/>
    <path id="Path_492" data-name="Path 492" d="M1225.04-123.268l7.34-2.825a1.545,1.545,0,0,0,.99-1.442v-10.517a1.545,1.545,0,0,0-.672-1.274,1.54,1.54,0,0,0-1.429-.168l-6.785,2.61-6.783-2.61a1.545,1.545,0,0,0-1.43.168,1.544,1.544,0,0,0-.671,1.274v10.517a1.544,1.544,0,0,0,.989,1.442l7.34,2.825c.014.005.03,0,.045.008a1.521,1.521,0,0,0,.51.095l.013,0a1.535,1.535,0,0,0,.495-.093C1225.008-123.265,1225.024-123.262,1225.04-123.268Zm5.239-5.328-4.249,1.635v-7.2l4.249-1.636Zm-7.34,1.635-4.248-1.635V-135.8l4.248,1.636Z" transform="translate(-1209.326 164.328)" fill="#fff"/>
    <path id="Path_493" data-name="Path 493" d="M1234.584-104.376l1.521-2.159a1.545,1.545,0,0,0,.124-1.572,1.545,1.545,0,0,0-1.322-.862l-2.638-.112a9.348,9.348,0,0,0-10.962-2.054,9.239,9.239,0,0,0-4.7,5.351,9.241,9.241,0,0,0,.459,7.106,9.237,9.237,0,0,0,5.35,4.7,9.323,9.323,0,0,0,3.007.5,9.267,9.267,0,0,0,4.1-.961A9.343,9.343,0,0,0,1234.584-104.376Zm-2.915-1.228a1.545,1.545,0,0,0-.233,1.275,6.236,6.236,0,0,1-3.277,7.117,6.169,6.169,0,0,1-4.747.307,6.17,6.17,0,0,1-3.574-3.14,6.171,6.171,0,0,1-.306-4.746,6.175,6.175,0,0,1,3.139-3.574A6.186,6.186,0,0,1,1225.4-109a6.224,6.224,0,0,1,4.908,2.382,1.547,1.547,0,0,0,1.154.593l.485.021Z" transform="translate(-1209.311 165.158)" fill="#fff"/>
    <path id="Path_494" data-name="Path 494" d="M1292.084-111.135a9.349,9.349,0,0,0-10.962,2.054l-2.639.112a1.544,1.544,0,0,0-1.321.862,1.548,1.548,0,0,0,.123,1.572l1.523,2.159a9.342,9.342,0,0,0,5.06,9.938,9.267,9.267,0,0,0,4.1.961,9.32,9.32,0,0,0,3.007-.5,9.239,9.239,0,0,0,5.35-4.7,9.246,9.246,0,0,0,.459-7.106A9.239,9.239,0,0,0,1292.084-111.135Zm1.468,11.092a6.169,6.169,0,0,1-3.573,3.139,6.171,6.171,0,0,1-4.748-.307,6.233,6.233,0,0,1-3.276-7.117,1.545,1.545,0,0,0-.233-1.275l-.281-.4.486-.021a1.543,1.543,0,0,0,1.153-.593,6.235,6.235,0,0,1,7.639-1.748,6.173,6.173,0,0,1,3.14,3.574A6.173,6.173,0,0,1,1293.552-100.043Z" transform="translate(-1207.476 165.158)" fill="#fff"/>
    <path id="Path_495" data-name="Path 495" d="M1227.635-104.258h-.777v-.776a1.545,1.545,0,0,0-1.545-1.545,1.545,1.545,0,0,0-1.545,1.545v.776h-.776a1.545,1.545,0,0,0-1.545,1.545,1.546,1.546,0,0,0,1.545,1.545h.776v.776a1.545,1.545,0,0,0,1.545,1.545,1.545,1.545,0,0,0,1.545-1.545v-.776h.777a1.546,1.546,0,0,0,1.545-1.545A1.545,1.545,0,0,0,1227.635-104.258Z" transform="translate(-1209.15 165.323)" fill="#fff"/>
    <path id="Path_496" data-name="Path 496" d="M1287.945-140.8a6.454,6.454,0,0,0-6.446,6.446,6.432,6.432,0,0,0,2.553,5.125v3.673a1.546,1.546,0,0,0,1.545,1.545h4.7a1.546,1.546,0,0,0,1.545-1.545v-3.672a6.433,6.433,0,0,0,2.554-5.126A6.453,6.453,0,0,0,1287.945-140.8Zm0,3.09a3.359,3.359,0,0,1,3.355,3.355,3.359,3.359,0,0,1-3.355,3.355,3.36,3.36,0,0,1-3.356-3.355A3.36,3.36,0,0,1,1287.945-137.709Zm.8,10.608h-1.6v-.863a6.454,6.454,0,0,0,.8.056,6.422,6.422,0,0,0,.8-.056Z" transform="translate(-1207.341 164.292)" fill="#fff"/>
  </g>
</svg>
