<svg xmlns="http://www.w3.org/2000/svg" xmlns:xlink="http://www.w3.org/1999/xlink" width="65.702" height="67.999" viewBox="0 0 65.702 67.999">
  <defs>
    <clipPath id="clip-path">
      <rect width="65.702" height="67.999" fill="none"/>
    </clipPath>
  </defs>
  <g id="spmin" clip-path="url(#clip-path)">
    <g id="Group_49" data-name="Group 49" transform="translate(-679.426 -364.665)">
      <g id="Group_37" data-name="Group 37">
        <path id="Path_359" data-name="Path 359" d="M688.293,426.916l-.244,5.617,1.9.083.222-5.111,2.328-3.689.757,1.6-.355,7.109,1.9.095.379-7.585-2.441-5.176Z" fill="#240f6e"/>
        <path id="Path_360" data-name="Path 360" d="M701.407,416.024l-5.78,9.161-.319,7.347,1.9.083.3-6.841,3.657-5.8,1.383,2.933-.481,9.616,1.9.095.5-10.092Z" fill="#240f6e"/>
        <rect id="Rectangle_106" data-name="Rectangle 106" width="2.286" height="1.905" transform="translate(692.057 404.946) rotate(-86.195)" fill="#240f6e"/>
        <rect id="Rectangle_107" data-name="Rectangle 107" width="2.662" height="1.905" transform="translate(692.32 400.975) rotate(-86.215)" fill="#240f6e"/>
        <rect id="Rectangle_108" data-name="Rectangle 108" width="2.286" height="1.905" transform="matrix(0.066, -0.998, 0.998, 0.066, 694.424, 404.946)" fill="#240f6e"/>
        <rect id="Rectangle_109" data-name="Rectangle 109" width="2.662" height="1.905" transform="translate(694.687 400.975) rotate(-86.215)" fill="#240f6e"/>
        <rect id="Rectangle_110" data-name="Rectangle 110" width="2.286" height="1.905" transform="translate(694.974 396.629) rotate(-86.215)" fill="#240f6e"/>
        <rect id="Rectangle_111" data-name="Rectangle 111" width="2.286" height="1.905" transform="translate(701.822 398.673) rotate(-88.648)" fill="#240f6e"/>
        <rect id="Rectangle_112" data-name="Rectangle 112" width="2.286" height="1.905" transform="matrix(0.023, -1, 1, 0.023, 704.187, 398.573)" fill="#240f6e"/>
        <rect id="Rectangle_113" data-name="Rectangle 113" width="2.662" height="1.905" transform="translate(704.281 394.595) rotate(-88.648)" fill="#240f6e"/>
        <rect id="Rectangle_114" data-name="Rectangle 114" width="2.286" height="1.905" transform="translate(704.384 390.24) rotate(-88.658)" fill="#240f6e"/>
        <rect id="Rectangle_115" data-name="Rectangle 115" width="2.883" height="1.905" transform="translate(691.665 409.651) rotate(-82.023)" fill="#240f6e"/>
        <rect id="Rectangle_116" data-name="Rectangle 116" width="3.008" height="1.905" transform="translate(693.147 414.717) rotate(-85.849)" fill="#240f6e"/>
        <path id="Path_361" data-name="Path 361" d="M737.131,418.952a.983.983,0,0,0,.009-.249l-2.751-24.814a.85.85,0,0,0-.029-.149l-4.965-17.9a2.6,2.6,0,1,0-2.133.117L725.97,393.67a.957.957,0,0,0,0,.12l1.074,19.994-.78-.4-.976-25.662a.874.874,0,0,0-.02-.161l-3.758-17.727a2.6,2.6,0,1,0-3.077-.564,2.624,2.624,0,0,0,.8.588L716.7,387.071a.893.893,0,0,0-.01.155l.075,4.41-3.175-2.065V388.29a.952.952,0,0,0-1.9,0v1.21l-3.205,1.935.073-4.249a.893.893,0,0,0-.01-.155l-2.56-17.39a2.618,2.618,0,1,0-2.2-.01l-3.433,17.908a.944.944,0,0,0-.015.13l-1.37,25.994-.776.379,1.08-20.293a.962.962,0,0,0,0-.12l-1.28-17.554a2.4,2.4,0,1,0-2.179-.12l-4.742,17.754a1,1,0,0,0-.026.133L688.1,418.656a.934.934,0,0,0,.017.3l-2.679,1.308-.656,12.254,1.9.1.6-11.135L713.2,408.831l24.759,12.685.6,11.148,1.9-.1L739.8,420.32ZM696.227,415l-6.135,3,2.534-21.364,1.883.125.15-2.281-1.764-.117.027-.223,3.511-13.146.928,12.72Zm.921-40.642c-.03-.006-.056-.022-.086-.025a.961.961,0,0,0-.222.019.485.485,0,0,1-.323-.455.49.49,0,0,1,.98,0A.485.485,0,0,1,697.148,374.356Zm23.205-7.555h.031a.707.707,0,0,1,.673.734.693.693,0,0,1-.285.524.853.853,0,0,0-.853-.016.729.729,0,0,1-.084-.062.7.7,0,0,1,.518-1.18Zm-15.99,0a.7.7,0,0,1,.488-.227h.031a.7.7,0,0,1,.213,1.363.936.936,0,0,0-.175-.035.965.965,0,0,0-.247.04.7.7,0,0,1-.31-1.14Zm1.929,43.286-5.372,2.624,1.034-19.631-.038,1.619,1.9.045.063-2.662-1.874-.044.089-1.692,1.826.043.053-2.285-1.758-.042.011-.224,2.546-13.282,1.867,12.679-.388,22.587A.927.927,0,0,0,706.292,410.083Zm7.148-3.269-.087-.178-.134.065-.143-.073-.1.19-4.808,2.348.267-15.537c.032,0,4.137-2.443,4.137-2.443l4.309,2.862.17,14.618Zm5.536,2.837-.384-22.38,1.912-12.992,2.883,13.6.932,24.512Zm8.525-36.123a.7.7,0,1,1,.705.7A.705.705,0,0,1,727.5,373.528Zm1.5,41.261-1.131-21.041.939-12.881,3.692,13.308,2.633,23.756Z" fill="#240f6e"/>
        <path id="Path_362" data-name="Path 362" d="M732.491,419.9l-2.441,5.175.379,7.585,1.9-.1-.356-7.108.756-1.6,2.328,3.69.222,5.111,1.9-.083-.244-5.617Z" fill="#240f6e"/>
        <path id="Path_363" data-name="Path 363" d="M723.827,416.064l-3.068,6.5.5,10.093,1.9-.1-.481-9.616,1.383-2.933,3.657,5.8.3,6.841,1.9-.083-.32-7.347Z" fill="#240f6e"/>
        <rect id="Rectangle_117" data-name="Rectangle 117" width="1.905" height="2.286" transform="translate(731.098 402.854) rotate(-5.044)" fill="#240f6e"/>
        <rect id="Rectangle_118" data-name="Rectangle 118" width="1.905" height="2.664" transform="translate(730.715 398.507) rotate(-5.024)" fill="#240f6e"/>
        <rect id="Rectangle_119" data-name="Rectangle 119" width="1.905" height="2.286" transform="translate(730.364 394.536) rotate(-5.039)" fill="#240f6e"/>
        <rect id="Rectangle_120" data-name="Rectangle 120" width="1.905" height="2.286" transform="translate(728.759 402.832) rotate(-3.821)" fill="#240f6e"/>
        <rect id="Rectangle_121" data-name="Rectangle 121" width="1.905" height="2.662" transform="translate(728.472 398.485) rotate(-3.784)" fill="#240f6e"/>
        <rect id="Rectangle_122" data-name="Rectangle 122" width="1.905" height="2.286" transform="translate(728.209 394.514) rotate(-3.784)" fill="#240f6e"/>
        <rect id="Rectangle_123" data-name="Rectangle 123" width="1.905" height="2.286" transform="translate(721.455 396.473) rotate(-1.342)" fill="#240f6e"/>
        <rect id="Rectangle_124" data-name="Rectangle 124" width="1.905" height="2.663" transform="translate(721.351 392.118) rotate(-1.37)" fill="#240f6e"/>
        <rect id="Rectangle_125" data-name="Rectangle 125" width="1.905" height="2.286" transform="translate(721.257 388.14) rotate(-1.372)" fill="#240f6e"/>
        <rect id="Rectangle_126" data-name="Rectangle 126" width="1.905" height="2.286" transform="translate(719.09 396.372) rotate(-1.351)" fill="#240f6e"/>
        <rect id="Rectangle_127" data-name="Rectangle 127" width="1.905" height="2.662" transform="matrix(1, -0.024, 0.024, 1, 718.987, 392.017)" fill="#240f6e"/>
        <rect id="Rectangle_128" data-name="Rectangle 128" width="1.905" height="2.286" transform="translate(718.894 388.039) rotate(-1.331)" fill="#240f6e"/>
        <rect id="Rectangle_129" data-name="Rectangle 129" width="1.905" height="2.653" transform="translate(730.963 407.49) rotate(-8.993)" fill="#240f6e"/>
        <rect id="Rectangle_130" data-name="Rectangle 130" width="1.905" height="3.225" transform="translate(729.706 411.669) rotate(-2.981)" fill="#240f6e"/>
        <path id="Path_364" data-name="Path 364" d="M713.956,412.007l.092-.1-.727-.639-.493-.578-.083.071-.128-.112-.777.885-.46.393.057.066-6.409,7.295-.659,13.242,1.9.094.626-12.578,5.789-6.589,5.652,6.622.626,12.586,1.9-.094-.658-13.235Z" fill="#240f6e"/>
        <path id="Path_365" data-name="Path 365" d="M744.589,368.755a4.875,4.875,0,0,0-3.877.706l-.087.044-.061-.076a4.872,4.872,0,0,0-3.258-2.215.68.68,0,0,0-.282,1.331,3.571,3.571,0,0,1,2.475,1.73l.212.264-.094.445a.681.681,0,0,0,.525.806.691.691,0,0,0,.141.015.681.681,0,0,0,.665-.539l.094-.445.3-.156a3.583,3.583,0,0,1,2.964-.58.68.68,0,0,0,.282-1.33Z" fill="#240f6e"/>
        <path id="Path_366" data-name="Path 366" d="M733.795,375.32a1.47,1.47,0,0,1,1.214.241l.289.144a.253.253,0,0,0,.027.006.664.664,0,0,0,.268.062h0a.7.7,0,0,0,.24-.05l.056-.025a.678.678,0,0,0,.207-.15h0l.214-.241a1.467,1.467,0,0,1,1.035-.68.68.68,0,1,0-.261-1.335,2.938,2.938,0,0,1-3.554.693.68.68,0,1,0,.26,1.335Z" fill="#240f6e"/>
        <path id="Path_367" data-name="Path 367" d="M736.239,379.657a.679.679,0,0,0,.63.727.964.964,0,0,1,.731.35.673.673,0,0,0,.621.659l.049,0a.674.674,0,0,0,.66-.567.951.951,0,0,1,.774-.239.68.68,0,0,0,.1-1.357,2.446,2.446,0,0,1-2.835-.2A.688.688,0,0,0,736.239,379.657Z" fill="#240f6e"/>
        <path id="Path_368" data-name="Path 368" d="M685.095,379.279l-.158-.364c.05-.09.1-.187.15-.272a3.709,3.709,0,0,1,2.123-2.138.679.679,0,1,0-.54-1.247,5.008,5.008,0,0,0-2.776,2.734l-.055.1-.111-.027a5.007,5.007,0,0,0-3.893.159.68.68,0,0,0,.542,1.247,3.708,3.708,0,0,1,3.011-.09c.094.025.2.051.3.076l.158.365a.68.68,0,1,0,1.247-.542Z" fill="#240f6e"/>
        <path id="Path_369" data-name="Path 369" d="M686.7,382.448a.68.68,0,1,0,.1,1.356,1.829,1.829,0,0,1,1.454.467l.029.019.007.082a.679.679,0,0,0,.677.629.449.449,0,0,0,.052,0,.68.68,0,0,0,.627-.728l-.007-.083.027-.024a1.824,1.824,0,0,1,1.369-.678.68.68,0,1,0-.1-1.356,3.341,3.341,0,0,1-4.236.318Z" fill="#240f6e"/>
      </g>
    </g>
  </g>
</svg>
