<svg xmlns="http://www.w3.org/2000/svg" xmlns:xlink="http://www.w3.org/1999/xlink" width="68" height="68" viewBox="0 0 68 68">
  <defs>
    <clipPath id="clip-path">
      <rect width="68" height="68" fill="none"/>
    </clipPath>
  </defs>
  <g id="sun" clip-path="url(#clip-path)">
    <path id="Path_225" data-name="Path 225" d="M112.11,921.61a21.483,21.483,0,1,0,21.483,21.482A21.507,21.507,0,0,0,112.11,921.61Zm0,40.723a19.241,19.241,0,1,1,19.241-19.241A19.263,19.263,0,0,1,112.11,962.333Z" transform="translate(-78.11 -909.092)" fill="#fff"/>
    <path id="Path_226" data-name="Path 226" d="M119.863,947.883A1.121,1.121,0,0,0,118.742,949a6.632,6.632,0,0,1-13.264,0,1.12,1.12,0,1,0-2.241,0,8.874,8.874,0,1,0,17.747,0A1.121,1.121,0,0,0,119.863,947.883Z" transform="translate(-78.11 -909.092)" fill="#fff"/>
    <path id="Path_227" data-name="Path 227" d="M107.249,945.485a1.122,1.122,0,0,0,1.121-1.121v-3.772a1.121,1.121,0,0,0-2.242,0v3.772A1.122,1.122,0,0,0,107.249,945.485Z" transform="translate(-78.11 -909.092)" fill="#fff"/>
    <path id="Path_228" data-name="Path 228" d="M116.972,945.485a1.122,1.122,0,0,0,1.121-1.121v-3.772a1.121,1.121,0,0,0-2.242,0v3.772A1.122,1.122,0,0,0,116.972,945.485Z" transform="translate(-78.11 -909.092)" fill="#fff"/>
    <path id="Path_229" data-name="Path 229" d="M144.99,941.972h-8.127a1.121,1.121,0,1,0,0,2.241h8.127a1.121,1.121,0,0,0,0-2.241Z" transform="translate(-78.11 -909.092)" fill="#fff"/>
    <path id="Path_230" data-name="Path 230" d="M88.478,943.092a1.121,1.121,0,0,0-1.12-1.12H79.231a1.121,1.121,0,1,0,0,2.241h8.127A1.121,1.121,0,0,0,88.478,943.092Z" transform="translate(-78.11 -909.092)" fill="#fff"/>
    <path id="Path_231" data-name="Path 231" d="M112.11,919.461a1.122,1.122,0,0,0,1.121-1.121v-8.127a1.121,1.121,0,1,0-2.241,0v8.127A1.122,1.122,0,0,0,112.11,919.461Z" transform="translate(-78.11 -909.092)" fill="#fff"/>
    <path id="Path_232" data-name="Path 232" d="M112.11,966.724a1.121,1.121,0,0,0-1.12,1.121v8.127a1.121,1.121,0,0,0,2.241,0v-8.127A1.121,1.121,0,0,0,112.11,966.724Z" transform="translate(-78.11 -909.092)" fill="#fff"/>
    <path id="Path_233" data-name="Path 233" d="M133.548,931.837a1.118,1.118,0,0,0,.56-.15l7.037-4.064a1.121,1.121,0,1,0-1.121-1.941l-7.037,4.064a1.121,1.121,0,0,0,.561,2.091Z" transform="translate(-78.11 -909.092)" fill="#fff"/>
    <path id="Path_234" data-name="Path 234" d="M90.113,954.5l-7.037,4.063A1.121,1.121,0,1,0,84.2,960.5l7.038-4.064a1.121,1.121,0,0,0-1.121-1.941Z" transform="translate(-78.11 -909.092)" fill="#fff"/>
    <path id="Path_235" data-name="Path 235" d="M98.763,922.216a1.121,1.121,0,0,0,1.942-1.121l-4.064-7.037a1.12,1.12,0,1,0-1.941,1.12Z" transform="translate(-78.11 -909.092)" fill="#fff"/>
    <path id="Path_236" data-name="Path 236" d="M125.457,963.969a1.121,1.121,0,0,0-1.941,1.121l4.063,7.037a1.121,1.121,0,0,0,.972.561,1.1,1.1,0,0,0,.559-.151,1.119,1.119,0,0,0,.41-1.531Z" transform="translate(-78.11 -909.092)" fill="#fff"/>
    <path id="Path_237" data-name="Path 237" d="M123.926,922.626a1.121,1.121,0,0,0,1.531-.41l4.063-7.038a1.12,1.12,0,1,0-1.941-1.12l-4.063,7.037A1.121,1.121,0,0,0,123.926,922.626Z" transform="translate(-78.11 -909.092)" fill="#fff"/>
    <path id="Path_238" data-name="Path 238" d="M100.294,963.559a1.12,1.12,0,0,0-1.531.41L94.7,971.006a1.121,1.121,0,0,0,.41,1.531,1.119,1.119,0,0,0,1.531-.41l4.064-7.037A1.12,1.12,0,0,0,100.294,963.559Z" transform="translate(-78.11 -909.092)" fill="#fff"/>
    <path id="Path_239" data-name="Path 239" d="M83.076,927.623l7.037,4.064a1.121,1.121,0,0,0,1.121-1.941L84.2,925.682a1.12,1.12,0,1,0-1.12,1.941Z" transform="translate(-78.11 -909.092)" fill="#fff"/>
    <path id="Path_240" data-name="Path 240" d="M141.145,958.561l-7.037-4.063a1.121,1.121,0,0,0-1.121,1.941l7.037,4.064a1.121,1.121,0,0,0,1.121-1.942Z" transform="translate(-78.11 -909.092)" fill="#fff"/>
  </g>
</svg>
