<svg xmlns="http://www.w3.org/2000/svg" xmlns:xlink="http://www.w3.org/1999/xlink" width="64" height="64" viewBox="0 0 64 64">
  <defs>
    <clipPath id="clip-path">
      <rect width="64" height="64" fill="none"/>
    </clipPath>
  </defs>
  <g id="zzz" clip-path="url(#clip-path)">
    <g id="Group_47" data-name="Group 47" transform="translate(-200.747 -911.47)">
      <path id="Path_241" data-name="Path 241" d="M264.336,938.363a1.116,1.116,0,0,0-2.2-.033A20.709,20.709,0,0,1,231.9,952.585a1.117,1.117,0,0,0-1.07,1.96,22.949,22.949,0,0,0,31.67-10.239,29.767,29.767,0,1,1-30.592-30.591,22.956,22.956,0,0,0-11.3,29.455,1.116,1.116,0,1,0,2.062-.853,20.719,20.719,0,0,1,15.211-28.237,1.117,1.117,0,0,0-.032-2.2,32.006,32.006,0,1,0,26.481,26.482Z" fill="#240f6e"/>
      <path id="Path_242" data-name="Path 242" d="M214.255,946.843c-.587.8-1.486,1.756-2.433,1.756s-1.846-.955-2.433-1.756a1.117,1.117,0,1,0-1.8,1.321c1.3,1.77,2.723,2.668,4.234,2.668s2.935-.9,4.234-2.668a1.117,1.117,0,0,0-1.8-1.321Z" fill="#240f6e"/>
      <path id="Path_243" data-name="Path 243" d="M230.111,948.164a1.116,1.116,0,1,0-1.8-1.32c-.587.8-1.486,1.755-2.433,1.755s-1.846-.955-2.433-1.756a1.117,1.117,0,0,0-1.8,1.321c1.3,1.77,2.723,2.668,4.234,2.668S228.813,949.934,230.111,948.164Z" fill="#240f6e"/>
      <path id="Path_244" data-name="Path 244" d="M220.018,954.1c-1.7,0-3.023,1.684-3.023,3.836s1.328,3.836,3.023,3.836,3.022-1.685,3.022-3.836S221.713,954.1,220.018,954.1Zm0,5.439c-.279,0-.791-.609-.791-1.6s.512-1.6.791-1.6.789.609.789,1.6S220.3,959.543,220.018,959.543Z" fill="#240f6e"/>
      <path id="Path_245" data-name="Path 245" d="M230.676,941.214a1.116,1.116,0,0,0,1.016.656h5.376a1.116,1.116,0,0,0,0-2.233h-2.912l2.815-3.212a1.116,1.116,0,0,0-.84-1.852h-4.655a1.117,1.117,0,1,0,0,2.233h2.192l-2.815,3.212A1.114,1.114,0,0,0,230.676,941.214Z" fill="#240f6e"/>
      <path id="Path_246" data-name="Path 246" d="M241.763,928.276H245.1l-3.753,4.419a1.116,1.116,0,0,0,.851,1.839h6.472a1.116,1.116,0,0,0,0-2.233h-4.059l3.753-4.419a1.117,1.117,0,0,0-.851-1.839h-5.754a1.116,1.116,0,0,0,0,2.233Z" fill="#240f6e"/>
      <path id="Path_247" data-name="Path 247" d="M252.205,917.245h3.774l-4.105,4.878a1.117,1.117,0,0,0,.854,1.836h6.891a1.116,1.116,0,1,0,0-2.233h-4.492l4.1-4.879a1.116,1.116,0,0,0-.854-1.835h-6.173a1.116,1.116,0,0,0,0,2.233Z" fill="#240f6e"/>
    </g>
  </g>
</svg>
